<?xml version="1.0" standalone="no"?>
<!DOCTYPE svg PUBLIC "-//W3C//DTD SVG 20010904//EN"
 "http://www.w3.org/TR/2001/REC-SVG-20010904/DTD/svg10.dtd">
<svg version="1.0" xmlns="http://www.w3.org/2000/svg"
 width="2480.000000pt" height="480.000000pt" viewBox="-310 -60 2480.000000 480.000000" preserveAspectRatio="xMidYMid meet">
  <g transform="translate(0.000000,480.000000) scale(0.0750000,-0.0750000)"  
fill="#000000" stroke="none">
<path d="M17705 5868 c-3 -7 -4 -1131 -3 -2498 l3 -2485 3085 0 3085 0 0 2495
0 2495 -3083 3 c-2461 2 -3084 0 -3087 -10z m6135 -2488 l0 -2460 -3050 0
-3050 0 0 2460 0 2460 3050 0 3050 0 0 -2460z"/>
<path d="M21957 4555 c-95 -33 -110 -83 -105 -330 3 -188 10 -214 66 -251 87
-59 230 -32 272 51 20 39 27 346 10 422 -22 100 -131 148 -243 108z m107 -101
c3 -9 6 -98 6 -199 0 -101 -3 -190 -6 -199 -4 -9 -18 -16 -34 -16 -16 0 -30 7
-34 16 -3 9 -6 98 -6 199 0 101 3 190 6 199 4 9 18 16 34 16 16 0 30 -7 34
-16z"/>
<path d="M22807 4555 c-95 -33 -110 -83 -105 -330 3 -188 10 -214 66 -251 87
-59 230 -32 272 51 20 39 27 346 10 422 -22 100 -131 148 -243 108z m107 -101
c3 -9 6 -98 6 -199 0 -101 -3 -190 -6 -199 -4 -9 -18 -16 -34 -16 -16 0 -30 7
-34 16 -3 9 -6 98 -6 199 0 101 3 190 6 199 4 9 18 16 34 16 16 0 30 -7 34
-16z"/>
<path d="M18410 4255 l0 -305 70 0 70 0 0 145 0 145 75 0 75 0 0 45 0 45 -75
0 -75 0 0 70 0 70 75 0 75 0 0 45 0 45 -145 0 -145 0 0 -305z"/>
<path d="M18835 4548 c-2 -7 -25 -137 -50 -288 -25 -151 -48 -283 -51 -292 -5
-16 2 -18 55 -18 l60 0 12 75 12 75 37 0 c41 0 50 -11 50 -60 0 -15 3 -42 6
-59 l7 -31 68 0 69 0 -5 28 c-6 31 -75 564 -75 575 0 13 -190 8 -195 -5z m100
-275 l7 -83 -27 0 -28 0 6 63 c3 34 10 96 14 137 l7 75 7 -55 c4 -30 11 -92
14 -137z"/>
<path d="M19180 4255 l0 -305 55 0 55 0 0 257 c0 141 3 254 6 251 4 -5 83
-474 84 -501 0 -4 28 -7 63 -5 l62 3 40 254 40 255 3 -257 2 -257 65 0 65 0 0
305 0 305 -103 0 -103 0 -29 -215 c-16 -118 -30 -213 -33 -211 -3 4 -61 396
-62 419 0 4 -47 7 -105 7 l-105 0 0 -305z"/>
<path d="M19800 4255 l0 -305 70 0 70 0 0 305 0 305 -70 0 -70 0 0 -305z"/>
<path d="M20020 4255 l0 -305 145 0 145 0 0 45 0 45 -75 0 -75 0 0 260 0 260
-70 0 -70 0 0 -305z"/>
<path d="M20270 4558 c0 -2 27 -88 60 -193 58 -185 60 -193 60 -302 l0 -113
70 0 70 0 0 117 c0 121 6 147 110 466 l9 27 -68 0 -68 0 -22 -107 c-12 -60
-25 -115 -28 -123 -3 -8 -18 39 -32 105 l-26 120 -68 3 c-37 2 -67 2 -67 0z"/>
<path d="M20970 4256 l0 -306 70 0 70 0 0 120 0 120 38 0 c57 0 110 18 145 50
31 27 32 32 35 117 7 169 -22 195 -225 201 l-133 4 0 -306z m210 195 c5 -11
10 -45 10 -76 0 -72 -12 -95 -50 -95 l-30 0 0 95 0 95 30 0 c19 0 33 -7 40
-19z"/>
<path d="M21410 4255 l0 -305 70 0 70 0 0 145 0 145 40 0 40 0 0 -145 0 -145
70 0 70 0 0 305 0 305 -70 0 -70 0 0 -115 0 -115 -40 0 -40 0 0 115 0 115 -70
0 -70 0 0 -305z"/>
<path d="M22280 4515 l0 -45 50 0 50 0 0 -260 0 -260 70 0 70 0 0 260 0 260
50 0 50 0 0 45 0 45 -170 0 -170 0 0 -45z"/>
<path d="M18580 3498 c-11 -18 -32 -69 -47 -113 -22 -67 -26 -99 -27 -195 0
-99 4 -125 26 -191 15 -42 37 -92 48 -112 21 -36 24 -37 82 -37 33 0 58 3 56
8 -1 4 -17 36 -34 72 -43 89 -58 159 -58 270 1 106 18 179 65 272 l29 58 -60
0 c-57 0 -61 -2 -80 -32z"/>
<path d="M19357 3516 c-95 -35 -110 -84 -105 -331 3 -189 10 -214 66 -252 44
-29 109 -38 170 -23 84 20 122 78 122 187 l0 53 -70 0 -70 0 0 -59 c0 -77 -6
-91 -40 -91 -16 0 -30 7 -34 16 -3 9 -6 98 -6 199 0 101 3 190 6 199 4 9 18
16 34 16 33 0 40 -14 40 -81 l0 -49 71 0 71 0 -4 63 c-5 76 -23 115 -66 140
-42 25 -136 31 -185 13z"/>
<path d="M21787 3516 c-95 -35 -110 -84 -105 -331 3 -189 10 -214 66 -252 44
-29 109 -38 170 -23 84 20 122 78 122 187 l0 53 -70 0 -70 0 0 -59 c0 -77 -6
-91 -40 -91 -16 0 -30 7 -34 16 -3 9 -6 98 -6 199 0 101 3 190 6 199 4 9 18
16 34 16 33 0 40 -14 40 -81 l0 -49 71 0 71 0 -4 63 c-5 76 -23 115 -66 140
-42 25 -136 31 -185 13z"/>
<path d="M22776 3467 c87 -164 84 -404 -6 -564 l-31 -54 63 3 63 3 32 65 c45
90 63 169 63 273 0 100 -18 180 -60 274 l-29 63 -64 0 -65 0 34 -63z"/>
<path d="M18881 3338 c-68 -154 -81 -191 -81 -235 l0 -53 100 0 100 0 0 -70 0
-70 65 0 65 0 0 70 c0 68 1 70 25 70 23 0 25 3 25 50 0 47 -2 50 -25 50 l-25
0 0 185 0 185 -84 0 -83 0 -82 -182z m119 -68 l0 -120 -56 0 c-31 0 -54 4 -52
8 18 46 102 232 105 232 2 0 3 -54 3 -120z"/>
<path d="M19700 3215 l0 -305 55 0 55 0 0 257 c0 141 3 254 6 251 4 -5 83
-474 84 -501 0 -4 28 -7 63 -5 l62 3 40 254 40 255 3 -257 2 -257 65 0 65 0 0
305 0 305 -103 0 -103 0 -29 -215 c-16 -118 -30 -213 -33 -211 -3 4 -61 396
-62 419 0 4 -47 7 -105 7 l-105 0 0 -305z"/>
<path d="M20552 3508 c3 -7 22 -70 43 -141 l38 -127 -41 -159 c-23 -87 -42
-161 -42 -165 0 -4 28 -6 62 -4 l63 3 26 125 c29 137 26 138 59 -24 11 -55 22
-101 24 -103 2 -2 35 -3 73 -1 l70 3 -43 154 -42 154 43 148 42 149 -62 0 -62
0 -23 -114 c-13 -63 -27 -113 -30 -111 -4 3 -10 22 -13 42 -4 21 -14 71 -23
111 l-16 72 -75 0 c-56 0 -74 -3 -71 -12z"/>
<path d="M21240 3360 l0 -160 68 0 c56 0 69 3 80 20 14 22 42 26 60 8 8 -8 12
-47 12 -108 0 -102 -7 -120 -46 -120 -28 0 -34 17 -34 91 l0 59 -70 0 -70 0 0
-72 c0 -123 52 -172 180 -173 83 0 126 23 158 85 19 38 22 59 21 150 0 119
-12 164 -51 193 -34 25 -101 27 -145 3 l-33 -17 0 56 0 55 110 0 110 0 0 45 0
45 -175 0 -175 0 0 -160z"/>
<path d="M22120 3215 l0 -305 55 0 55 0 0 257 c0 141 3 254 6 251 4 -5 83
-474 84 -501 0 -4 28 -7 63 -5 l62 3 40 254 40 255 3 -257 2 -257 65 0 65 0 0
305 0 305 -103 0 -103 0 -29 -215 c-16 -118 -30 -213 -33 -211 -3 4 -61 396
-62 419 0 4 -47 7 -105 7 l-105 0 0 -305z"/>
<path d="M1956 5820 c-427 -68 -766 -381 -881 -813 -147 -551 138 -1140 648
-1341 137 -54 220 -69 377 -70 126 0 159 4 250 28 344 89 617 339 747 685 52
139 66 224 66 401 0 136 -3 181 -22 255 -56 230 -155 408 -314 562 -197 191
-425 289 -692 298 -66 2 -147 0 -179 -5z m194 -49 c0 -27 3 -29 53 -35 146
-19 289 -71 416 -153 233 -150 392 -392 446 -676 21 -111 19 -300 -4 -412 -91
-437 -433 -758 -861 -806 -72 -9 -100 -16 -100 -25 0 -17 -95 -19 -172 -3
-394 81 -694 366 -806 766 -25 90 -27 112 -27 283 0 171 2 192 28 285 86 310
295 563 573 692 137 63 354 105 354 69 0 -9 -17 -16 -47 -20 -345 -48 -617
-243 -769 -551 -206 -417 -124 -910 204 -1227 160 -155 330 -238 545 -267 107
-15 117 -14 117 8 0 15 -11 19 -72 24 -334 29 -631 243 -778 561 -60 131 -82
229 -87 396 -4 129 -2 157 20 257 58 255 213 480 425 617 107 69 256 127 357
138 28 3 30 1 30 -32 1 -30 4 -35 28 -38 l27 -3 0 -90 0 -89 -43 0 c-24 0 -77
-11 -117 -25 -201 -68 -362 -224 -439 -423 -42 -109 -55 -195 -49 -326 6 -118
34 -223 84 -316 l24 -45 -25 -49 c-31 -61 -32 -116 -4 -192 25 -67 84 -130
149 -162 25 -12 107 -40 183 -62 147 -43 188 -60 225 -93 l22 -20 0 27 c0 39
-35 101 -72 129 -18 14 -82 48 -142 78 -101 48 -186 108 -186 130 0 23 32 18
81 -14 96 -60 241 -107 330 -107 l29 0 0 -125 0 -125 39 0 c99 0 291 53 390
107 141 78 292 223 374 360 106 178 161 417 139 613 -15 133 -35 213 -81 320
-94 220 -275 405 -487 500 -80 36 -196 70 -239 70 -27 0 -30 -3 -30 -32 0 -29
-4 -33 -27 -36 l-28 -3 0 -84 c0 -84 0 -85 28 -90 271 -51 444 -180 553 -411
58 -123 72 -194 67 -354 -5 -145 -19 -201 -80 -323 l-28 -57 22 -30 c30 -41
36 -131 14 -198 -22 -66 -84 -135 -149 -166 -29 -14 -115 -44 -192 -66 -78
-23 -162 -54 -189 -71 -27 -16 -51 -27 -54 -25 -11 11 30 94 61 123 17 17 92
61 165 98 125 64 190 114 176 136 -9 15 -34 10 -65 -12 -80 -57 -225 -107
-324 -112 l-50 -2 0 85 0 85 216 3 c198 2 218 1 239 -16 18 -15 22 -24 16 -47
-11 -43 -63 -84 -191 -150 -109 -56 -195 -118 -182 -131 3 -3 16 2 30 10 13 9
88 38 165 65 206 71 263 111 298 208 33 93 6 169 -76 211 -42 21 -55 22 -282
22 l-238 0 0 -85 0 -85 -216 0 c-129 0 -223 -4 -235 -10 -19 -11 -26 -51 -13
-85 9 -22 73 -65 190 -125 96 -49 174 -102 174 -119 0 -5 -21 2 -47 14 -27 13
-97 40 -157 60 -130 43 -173 64 -222 108 -73 64 -99 179 -56 249 42 67 67 73
340 76 l242 3 0 68 c0 62 10 91 32 91 4 0 8 -25 8 -55 0 -54 1 -55 29 -55 25
0 29 4 35 38 3 20 6 51 6 68 0 17 5 45 11 63 l11 31 109 0 c60 0 109 -3 109
-6 0 -3 -14 -23 -32 -44 -36 -45 -100 -80 -146 -80 -29 0 -32 -3 -32 -31 l0
-32 68 5 c112 8 196 64 248 165 26 52 29 68 29 153 0 52 -2 111 -5 130 l-5 35
65 5 65 5 3 58 c4 76 -7 89 -72 85 l-51 -3 0 -50 c0 -45 -8 -64 -26 -65 -3 0
-14 18 -24 41 -23 49 -69 98 -155 163 -143 108 -168 143 -178 245 -7 66 -7 66
-40 69 l-33 3 3 112 3 112 28 3 c21 3 27 9 27 28 0 20 -5 24 -30 24 -28 0 -30
2 -30 40 0 29 -4 40 -15 40 -13 0 -15 -48 -15 -375 0 -292 -3 -376 -12 -379
-7 -2 -35 -9 -63 -15 -76 -18 -171 -68 -204 -108 -23 -28 -33 -34 -43 -25 -7
6 -35 16 -61 22 -26 7 -49 16 -52 20 -9 15 61 105 115 147 168 133 182 146
201 188 11 24 22 71 25 104 7 59 8 61 35 61 l29 0 0 115 0 115 -25 0 c-20 0
-25 5 -25 25 0 20 5 25 25 25 23 0 25 4 25 40 0 29 4 40 15 40 8 0 15 5 15 10
0 6 11 10 25 10 21 0 25 -5 25 -29z m214 -167 c-1 -10 -3 -28 -5 -39 -3 -12 2
-21 14 -23 12 -3 19 5 23 27 7 36 15 43 32 32 9 -5 6 -28 -13 -91 -28 -94 -31
-98 -47 -82 -8 8 -9 21 -1 47 6 19 10 35 8 35 -2 0 -10 3 -18 6 -11 4 -17 -4
-22 -26 -7 -30 -29 -49 -42 -37 -10 11 47 179 60 174 7 -2 12 -13 11 -23z
m153 -45 c8 -8 1 -32 -25 -90 -34 -73 -53 -92 -66 -70 -6 9 64 170 75 171 3 0
10 -5 16 -11z m122 -85 c16 -20 18 -30 10 -46 -13 -25 -39 -7 -32 22 10 37
-25 22 -57 -24 -32 -48 -36 -61 -20 -71 17 -10 41 16 35 36 -7 22 4 24 29 6
18 -13 17 -15 -5 -50 -29 -45 -42 -46 -80 -7 -30 29 -30 30 -13 62 49 98 94
122 133 72z m97 -85 c3 -6 -6 -23 -20 -38 -20 -21 -23 -30 -14 -39 9 -9 18 -6
40 15 22 21 31 24 40 15 9 -9 1 -24 -37 -64 -28 -28 -56 -58 -63 -66 -10 -11
-15 -12 -28 -1 -13 11 -11 16 17 45 28 29 30 34 15 40 -11 4 -27 -3 -46 -21
-26 -25 -30 -26 -36 -11 -5 13 9 34 52 77 61 61 68 66 80 48z m171 -234 c13
-28 14 -37 3 -50 -7 -8 -19 -15 -26 -15 -17 0 -18 22 -2 38 9 9 9 15 -1 25
-17 17 -41 -16 -41 -58 0 -36 -15 -55 -44 -55 -46 0 -76 71 -41 100 12 10 16
9 21 -4 3 -9 1 -22 -5 -30 -8 -10 -8 -16 3 -26 22 -17 36 -4 36 33 0 76 67
105 97 42z m-1287 -114 c0 -16 -9 -50 -21 -76 -11 -25 -19 -48 -17 -49 1 -2
32 -9 68 -15 82 -16 192 -67 247 -115 24 -21 62 -66 85 -102 40 -60 45 -64 80
-64 l38 0 0 -70 c0 -63 -2 -70 -20 -70 -18 0 -20 -7 -20 -55 0 -51 -2 -55 -24
-55 -20 0 -24 6 -30 43 -46 292 -179 437 -421 456 -64 5 -80 9 -83 23 -2 11 5
19 22 24 21 5 24 10 19 38 -4 26 2 42 28 79 35 50 49 52 49 8z m1347 -38 c12
-30 11 -35 -8 -54 -20 -20 -22 -21 -32 -4 -7 13 -5 20 7 27 51 28 -17 38 -73
10 -44 -21 -52 -42 -17 -42 20 0 26 -5 26 -21 0 -33 -51 -22 -69 15 -18 38 -8
54 50 83 62 32 99 27 116 -14z m-758 -2 c33 -10 80 -30 105 -45 41 -24 97 -79
96 -94 -1 -4 -26 -23 -56 -42 -57 -36 -124 -110 -152 -167 -13 -27 -22 -33
-47 -33 -38 0 -55 16 -55 52 0 18 7 31 23 39 38 20 66 50 72 80 9 39 -19 88
-61 105 -33 14 -34 16 -34 69 0 51 2 55 24 55 13 0 51 -8 85 -19z m431 -56 c0
-38 -3 -45 -20 -45 -17 0 -20 7 -20 45 0 38 3 45 20 45 17 0 20 -7 20 -45z
m50 0 c0 -33 -4 -45 -15 -45 -11 0 -15 12 -15 45 0 33 4 45 15 45 11 0 15 -12
15 -45z m-590 -141 c0 -94 0 -95 -22 -89 -37 11 -59 39 -65 82 -4 32 -1 44 22
71 15 18 35 32 46 32 17 0 19 -8 19 -96z m900 56 c0 -16 -7 -20 -35 -20 -28 0
-35 -4 -35 -20 0 -17 7 -20 40 -20 28 0 40 -4 40 -14 0 -9 -21 -18 -63 -25
-86 -15 -117 -14 -117 3 0 16 21 26 57 26 18 0 24 5 21 18 -3 13 -13 17 -43
17 -29 0 -40 4 -40 15 0 11 19 18 70 26 102 17 105 17 105 -6z m-1273 -36 l31
-14 -14 -46 c-8 -26 -14 -69 -14 -96 l0 -48 105 0 c58 0 105 -4 105 -9 0 -5 3
-16 6 -25 5 -13 -9 -16 -98 -18 l-103 -3 45 -49 c48 -53 91 -76 140 -76 27 0
30 -3 30 -31 l0 -32 -65 5 c-188 16 -310 191 -275 396 l12 71 31 -6 c18 -4 46
-12 64 -19z m722 -32 c13 -31 30 -128 26 -151 -1 -13 -22 -17 -114 -19 l-113
-3 19 33 c20 37 146 168 161 168 5 0 15 -12 21 -28z m545 -108 c21 -20 20 -68
-1 -89 -13 -14 -27 -15 -77 -10 -34 4 -67 12 -73 17 -16 13 -17 70 -1 86 18
18 133 15 152 -4z m-80 -156 c22 -6 47 -16 54 -21 18 -14 14 -65 -7 -86 -19
-19 -21 -19 -79 -2 -77 24 -82 27 -82 57 0 62 31 76 114 52z m20 -213 c-8 -21
-15 -19 -77 15 -65 36 -74 37 -82 9 -5 -15 -10 -18 -18 -10 -8 8 -6 21 6 46
l17 35 80 -40 c58 -29 78 -44 74 -55z"/>
<path d="M1798 5608 c-15 -11 -16 -23 -8 -88 5 -41 9 -83 10 -92 0 -27 30 -10
30 18 0 28 34 34 48 8 6 -11 14 -14 25 -8 13 8 8 20 -29 83 -53 91 -56 94 -76
79z m40 -73 c15 -33 15 -35 -2 -35 -8 0 -16 13 -18 30 -6 37 5 39 20 5z"/>
<path d="M1634 5527 c-25 -22 -27 -28 -19 -53 9 -25 16 -29 52 -32 46 -3 74
-25 55 -44 -8 -8 -15 -8 -27 2 -19 16 -41 0 -32 -24 15 -38 97 -6 97 38 0 38
-19 56 -59 56 -44 0 -76 25 -46 36 9 4 20 2 24 -4 4 -7 12 -8 21 -2 12 7 12
13 4 27 -17 27 -39 27 -70 0z"/>
<path d="M1527 5452 c-3 -4 12 -28 33 -53 53 -60 50 -69 -6 -20 -52 46 -52 46
-78 26 -18 -14 -17 -17 25 -70 24 -31 49 -63 55 -71 13 -17 34 -19 34 -3 0 7
-16 31 -35 55 -48 58 -44 64 11 15 26 -23 50 -41 54 -41 4 0 14 8 23 18 15 16
12 22 -36 81 -52 65 -71 79 -80 63z"/>
<path d="M1382 5297 c-40 -43 -21 -84 66 -139 32 -20 33 -20 53 -2 29 26 40
50 33 68 -8 20 -102 96 -119 96 -6 0 -21 -10 -33 -23z m79 -56 c34 -30 41 -42
32 -51 -9 -10 -22 -4 -57 25 -46 37 -52 46 -39 58 11 12 19 8 64 -32z"/>
<path d="M1301 5167 c-17 -17 -13 -24 19 -37 18 -8 30 -20 30 -31 0 -23 -3
-23 -42 -3 -25 13 -32 14 -39 2 -5 -7 -9 -15 -9 -18 0 -3 36 -24 79 -46 64
-34 81 -39 85 -27 9 21 9 21 -24 38 -16 9 -30 22 -30 30 0 19 13 19 50 0 27
-14 30 -14 39 2 8 15 -3 24 -69 59 -56 30 -81 39 -89 31z"/>
<path d="M1224 4965 c-7 -19 -14 -40 -14 -47 0 -8 33 -23 81 -37 65 -18 83
-20 90 -10 11 18 3 26 -31 34 -26 6 -29 9 -23 37 7 37 -15 58 -59 58 -24 0
-32 -7 -44 -35z m76 -31 c0 -11 -6 -14 -22 -8 -30 9 -32 10 -24 29 4 13 10 14
26 5 11 -6 20 -18 20 -26z"/>
<path d="M1350 4809 c0 -20 -4 -21 -77 -18 -67 4 -78 2 -81 -13 -4 -18 14 -23
121 -32 l57 -5 0 29 c0 16 3 35 6 44 4 11 1 16 -10 16 -10 0 -16 -8 -16 -21z"/>
<path d="M1267 4684 c-69 -22 -78 -28 -75 -47 3 -18 13 -24 68 -34 88 -16 120
-16 120 1 0 8 -10 16 -23 20 -29 7 -33 42 -6 49 21 6 27 37 7 37 -7 -1 -48
-12 -91 -26z m43 -39 c0 -10 -10 -15 -30 -15 -16 0 -30 4 -30 9 0 8 10 12 53
20 4 0 7 -6 7 -14z"/>
<path d="M2861 4656 c-17 -21 14 -36 73 -36 39 0 46 3 46 20 0 16 -7 20 -32
20 -18 0 -42 3 -54 6 -12 3 -26 -1 -33 -10z"/>
<path d="M2836 4503 c-17 -17 -1 -33 48 -47 66 -19 63 -19 70 0 4 10 -4 19
-27 28 -46 19 -83 27 -91 19z"/>
<path d="M5603 5690 c-54 -13 -96 -44 -120 -89 -22 -43 -23 -52 -23 -286 0
-234 1 -243 23 -286 71 -133 321 -130 395 5 15 27 17 63 17 271 0 132 -3 252
-8 267 -26 94 -157 149 -284 118z m111 -132 c13 -19 16 -60 16 -243 0 -238 -5
-265 -54 -265 -44 0 -46 11 -46 265 0 174 3 244 12 253 19 19 55 14 72 -10z"/>
<path d="M6706 5690 c-95 -24 -136 -78 -136 -178 0 -102 29 -149 150 -243 56
-43 85 -74 100 -105 28 -56 20 -101 -17 -110 -47 -12 -58 5 -61 95 l-3 81 -84
0 -85 0 0 -92 c0 -110 16 -145 82 -180 35 -18 59 -22 133 -23 78 0 96 3 134
25 62 35 86 85 86 175 -1 90 -24 135 -106 207 -135 116 -159 143 -159 180 0
39 15 58 45 58 40 0 49 -16 53 -89 l4 -71 85 0 85 0 -4 88 c-5 105 -24 140
-90 167 -51 21 -158 28 -212 15z"/>
<path d="M13826 5690 c-95 -24 -136 -78 -136 -178 0 -102 29 -149 150 -243 56
-43 85 -74 100 -105 28 -56 20 -101 -17 -110 -47 -12 -58 5 -61 95 l-3 81 -84
0 -85 0 0 -92 c0 -110 16 -145 82 -180 35 -18 59 -22 133 -23 78 0 96 3 134
25 62 35 86 85 86 175 -1 90 -24 135 -106 207 -135 116 -159 143 -159 180 0
39 15 58 45 58 40 0 49 -16 53 -89 l4 -71 85 0 85 0 -4 88 c-5 105 -24 140
-90 167 -51 21 -158 28 -212 15z"/>
<path d="M14363 5690 c-56 -13 -97 -44 -120 -90 -22 -42 -23 -55 -23 -285 0
-230 1 -243 23 -285 34 -69 89 -95 197 -95 75 0 91 3 131 27 61 36 81 79 87
186 l5 82 -87 0 -86 0 0 -68 c0 -76 -17 -112 -54 -112 -44 0 -46 11 -46 265 0
254 2 265 46 265 35 0 54 -36 54 -102 l0 -58 85 0 85 0 0 58 c0 124 -44 190
-138 211 -59 12 -111 13 -159 1z"/>
<path d="M15433 5690 c-54 -13 -96 -44 -120 -89 -22 -43 -23 -52 -23 -286 0
-234 1 -243 23 -286 71 -133 321 -130 395 5 15 27 17 63 17 271 0 132 -3 252
-8 267 -26 94 -157 149 -284 118z m111 -132 c13 -19 16 -60 16 -243 0 -238 -5
-265 -54 -265 -44 0 -46 11 -46 265 0 174 3 244 12 253 19 19 55 14 72 -10z"/>
<path d="M15963 5690 c-54 -13 -96 -44 -120 -89 -22 -43 -23 -52 -23 -286 0
-234 1 -243 23 -286 71 -133 321 -130 395 5 15 27 17 63 17 271 0 132 -3 252
-8 267 -26 94 -157 149 -284 118z m111 -132 c13 -19 16 -60 16 -243 0 -238 -5
-265 -54 -265 -44 0 -46 11 -46 265 0 174 3 244 12 253 19 19 55 14 72 -10z"/>
<path d="M3530 5618 c-7 -40 -36 -208 -64 -373 l-52 -300 69 -3 c38 -2 71 -1
74 1 2 2 8 33 14 68 19 128 15 120 67 117 l47 -3 10 -90 10 -90 88 -3 89 -3
-6 28 c-3 15 -24 172 -46 348 -22 176 -43 332 -46 348 l-6 27 -118 0 -118 0
-12 -72z m139 -345 c1 -30 -2 -33 -29 -33 -17 0 -30 5 -30 13 0 36 23 274 28
287 5 14 30 -194 31 -267z"/>
<path d="M3950 5315 l0 -375 180 0 180 0 0 55 0 54 -92 3 -93 3 -3 318 -2 317
-85 0 -85 0 0 -375z"/>
<path d="M4400 5316 l0 -376 85 0 85 0 0 144 0 143 71 7 c87 8 127 24 162 65
33 40 40 76 35 195 -4 109 -18 138 -84 171 -33 17 -64 20 -196 23 l-158 4 0
-376z m248 252 c15 -19 25 -102 18 -153 -9 -54 -27 -75 -67 -75 l-29 0 0 120
0 120 34 0 c18 0 38 -6 44 -12z"/>
<path d="M4930 5315 l0 -375 85 0 85 0 0 180 0 180 50 0 50 0 0 -180 0 -180
85 0 85 0 0 375 0 375 -85 0 -84 0 -3 -137 -3 -138 -47 -3 -48 -3 0 140 0 141
-85 0 -85 0 0 -375z"/>
<path d="M5990 5315 l0 -375 70 0 70 0 1 308 1 307 62 -305 62 -305 112 -3
112 -3 0 376 0 375 -70 0 -70 0 -1 -262 -1 -263 -44 210 c-24 116 -49 234 -55
263 l-10 52 -120 0 -119 0 0 -375z"/>
<path d="M7200 5618 c-7 -40 -36 -208 -64 -373 l-52 -300 69 -3 c38 -2 71 -1
74 1 2 2 8 33 14 68 19 128 15 120 67 117 l47 -3 10 -90 10 -90 88 -3 89 -3
-6 28 c-3 15 -24 172 -46 348 -22 176 -43 332 -46 348 l-6 27 -118 0 -118 0
-12 -72z m139 -345 c1 -30 -2 -33 -29 -33 -17 0 -30 5 -30 13 0 36 23 274 28
287 5 14 30 -194 31 -267z"/>
<path d="M7920 5316 l0 -376 85 0 85 0 0 144 0 143 71 7 c87 8 127 24 162 65
33 40 40 76 35 195 -4 109 -18 138 -84 171 -33 17 -64 20 -196 23 l-158 4 0
-376z m248 252 c15 -19 25 -102 18 -153 -9 -54 -27 -75 -67 -75 l-29 0 0 120
0 120 34 0 c18 0 38 -6 44 -12z"/>
<path d="M8450 5316 l0 -376 85 0 85 0 0 170 0 170 34 0 c55 0 66 -25 66 -155
0 -60 5 -127 11 -147 l10 -38 90 0 90 0 -13 23 c-7 13 -14 82 -17 169 -6 137
-8 148 -30 172 -13 14 -39 29 -57 32 l-34 6 43 22 c54 27 77 72 77 149 0 141
-45 169 -282 175 l-158 4 0 -376z m250 244 c15 -15 20 -33 20 -75 0 -65 -22
-95 -70 -95 l-30 0 0 95 0 95 30 0 c17 0 39 -9 50 -20z"/>
<path d="M8980 5315 l0 -375 180 0 180 0 0 55 0 54 -92 3 -93 3 -3 123 -3 122
96 0 95 0 0 55 0 54 -92 3 -93 3 0 80 0 80 93 3 92 3 0 54 0 55 -180 0 -180 0
0 -375z"/>
<path d="M9740 5316 l0 -376 85 0 85 0 0 144 0 143 71 7 c87 8 127 24 162 65
33 40 40 76 35 195 -4 109 -18 138 -84 171 -33 17 -64 20 -196 23 l-158 4 0
-376z m248 252 c15 -19 25 -102 18 -153 -9 -54 -27 -75 -67 -75 l-29 0 0 120
0 120 34 0 c18 0 38 -6 44 -12z"/>
<path d="M10270 5316 l0 -376 85 0 85 0 0 170 0 170 34 0 c55 0 66 -25 66
-155 0 -60 5 -127 11 -147 l10 -38 90 0 90 0 -13 23 c-7 13 -14 82 -17 169 -6
137 -8 148 -30 172 -13 14 -39 29 -57 32 l-34 6 43 22 c54 27 77 72 77 149 0
141 -45 169 -282 175 l-158 4 0 -376z m250 244 c15 -15 20 -33 20 -75 0 -65
-22 -95 -70 -95 l-30 0 0 95 0 95 30 0 c17 0 39 -9 50 -20z"/>
<path d="M10800 5315 l0 -375 85 0 85 0 0 375 0 375 -85 0 -85 0 0 -375z"/>
<path d="M11060 5315 l0 -375 70 0 70 0 2 317 3 318 49 -318 50 -317 76 0 76
0 51 318 51 317 1 -317 1 -318 80 0 80 0 0 375 0 375 -124 0 c-110 0 -125 -2
-130 -17 -2 -10 -19 -127 -37 -261 -18 -133 -36 -237 -40 -230 -3 7 -21 124
-39 261 l-34 247 -128 0 -128 0 0 -375z"/>
<path d="M11920 5618 c-7 -40 -36 -208 -64 -373 l-52 -300 69 -3 c38 -2 71 -1
74 1 2 2 8 33 14 68 19 128 15 120 67 117 l47 -3 10 -90 10 -90 88 -3 89 -3
-6 28 c-3 15 -24 172 -46 348 -22 176 -43 332 -46 348 l-6 27 -118 0 -118 0
-12 -72z m139 -345 c1 -30 -2 -33 -29 -33 -17 0 -30 5 -30 13 0 36 23 274 28
287 5 14 30 -194 31 -267z"/>
<path d="M12340 5316 l0 -376 85 0 85 0 0 170 0 170 34 0 c55 0 66 -25 66
-155 0 -60 5 -127 11 -147 l10 -38 90 0 90 0 -13 23 c-7 13 -14 82 -17 169 -6
137 -8 148 -30 172 -13 14 -39 29 -57 32 l-34 6 43 22 c54 27 77 72 77 149 0
141 -45 169 -282 175 l-158 4 0 -376z m250 244 c15 -15 20 -33 20 -75 0 -65
-22 -95 -70 -95 l-30 0 0 95 0 95 30 0 c17 0 39 -9 50 -20z"/>
<path d="M12865 5648 c8 -24 41 -129 74 -234 l61 -191 0 -142 0 -141 85 0 85
0 0 133 0 132 75 237 c41 130 75 239 75 242 0 3 -38 6 -83 6 l-84 0 -28 -132
c-15 -73 -30 -139 -34 -146 -4 -7 -18 36 -30 95 -12 59 -27 125 -32 146 l-10
37 -84 0 -84 0 14 -42z"/>
<path d="M14760 5315 l0 -375 85 0 85 0 0 180 0 180 50 0 50 0 0 -180 0 -180
85 0 85 0 0 375 0 375 -85 0 -84 0 -3 -137 -3 -138 -47 -3 -48 -3 0 140 0 141
-85 0 -85 0 0 -375z"/>
<path d="M16350 5315 l0 -375 180 0 180 0 0 55 0 54 -92 3 -93 3 -3 318 -2
317 -85 0 -85 0 0 -375z"/>
<path d="M9420 5280 l0 -60 115 0 115 0 0 60 0 60 -115 0 -115 0 0 -60z"/>
<path d="M6135 4638 c-79 -29 -123 -90 -132 -183 -9 -90 28 -170 97 -205 47
-24 144 -27 196 -5 l35 14 -3 98 -3 98 -69 3 c-70 3 -90 -6 -79 -35 3 -8 22
-13 54 -13 l49 0 0 -60 c0 -57 -2 -61 -27 -71 -16 -6 -45 -8 -66 -6 -81 11
-127 68 -127 160 0 109 50 167 143 167 26 0 64 -7 84 -15 45 -19 45 -19 41 7
-2 13 -15 29 -31 36 -38 18 -126 24 -162 10z"/>
<path d="M16087 4614 c-37 -23 -57 -42 -57 -55 0 -24 3 -24 56 7 l45 26 -3
-158 -3 -159 -47 -3 c-40 -3 -48 -6 -48 -23 0 -18 8 -19 114 -19 88 0 115 3
119 14 8 20 -2 26 -45 26 l-38 0 0 184 c0 158 -2 185 -16 190 -9 3 -17 6 -18
6 -1 0 -27 -16 -59 -36z"/>
<path d="M3597 4453 c36 -104 67 -196 70 -205 4 -13 15 -18 38 -18 l32 0 66
188 c36 103 69 195 73 205 6 16 2 18 -21 15 -27 -3 -31 -10 -84 -170 -31 -92
-58 -169 -61 -172 -3 -2 -32 74 -64 170 -57 171 -59 174 -87 174 l-28 0 66
-187z"/>
<path d="M3990 4435 l0 -205 25 0 25 0 0 205 0 205 -25 0 -25 0 0 -205z"/>
<path d="M4230 4466 c0 -196 -5 -210 -61 -189 -25 10 -31 9 -36 -3 -9 -25 17
-44 62 -44 35 0 48 5 64 26 19 25 21 40 21 205 l0 179 -25 0 -25 0 0 -174z"/>
<path d="M4455 4444 c-38 -108 -72 -200 -74 -206 -2 -5 9 -8 24 -6 23 2 31 12
47 56 l19 52 88 0 87 0 18 -55 c16 -50 20 -55 46 -55 l30 0 -44 123 c-108 303
-98 282 -137 285 l-34 2 -70 -196z m140 41 c16 -44 30 -86 33 -92 3 -10 -14
-13 -67 -13 -43 0 -71 4 -71 10 0 25 63 190 70 183 4 -4 19 -44 35 -88z"/>
<path d="M4807 4528 c55 -107 58 -118 63 -203 5 -88 6 -90 30 -90 24 0 25 2
30 90 5 85 8 96 63 203 l57 112 -29 0 c-26 0 -32 -7 -72 -95 -24 -52 -46 -95
-49 -95 -3 0 -25 43 -49 95 -40 88 -46 95 -73 95 l-28 0 57 -112z"/>
<path d="M5160 4435 l0 -206 23 3 c22 3 22 4 22 176 0 94 1 172 2 172 0 0 43
-77 95 -170 69 -127 99 -172 115 -176 52 -14 53 -10 53 206 l0 200 -25 0 -25
0 -1 -167 c0 -114 -3 -163 -10 -153 -5 8 -47 83 -92 165 -82 149 -82 150 -119
153 l-38 3 0 -206z"/>
<path d="M5645 4444 c-38 -108 -72 -200 -74 -206 -2 -5 9 -8 24 -6 23 2 31 12
47 56 l19 52 88 0 87 0 18 -55 c16 -50 20 -55 46 -55 l30 0 -44 123 c-108 303
-98 282 -137 285 l-34 2 -70 -196z m140 41 c16 -44 30 -86 33 -92 3 -10 -14
-13 -67 -13 -43 0 -71 4 -71 10 0 25 63 190 70 183 4 -4 19 -44 35 -88z"/>
<path d="M6515 4444 c-38 -108 -72 -200 -74 -206 -2 -5 9 -8 24 -6 23 2 31 12
47 56 l19 52 88 0 87 0 18 -55 c16 -50 20 -55 46 -55 l30 0 -44 123 c-108 303
-98 282 -137 285 l-34 2 -70 -196z m140 41 c16 -44 30 -86 33 -92 3 -10 -14
-13 -67 -13 -43 0 -71 4 -71 10 0 25 63 190 70 183 4 -4 19 -44 35 -88z"/>
<path d="M6900 4435 l0 -205 25 0 c25 0 25 0 25 96 l0 97 37 -6 c49 -8 67 -28
101 -112 25 -61 32 -70 57 -73 23 -3 27 -1 21 15 -40 108 -54 139 -75 161 -14
16 -19 28 -13 30 75 25 87 141 19 182 -25 16 -50 20 -114 20 l-83 0 0 -205z
m153 154 c29 -16 37 -28 37 -61 0 -42 -35 -68 -92 -68 l-48 0 0 70 0 70 41 0
c22 0 50 -5 62 -11z"/>
<path d="M7690 4435 l0 -205 25 0 c24 0 24 1 27 106 l3 106 77 -106 c63 -86
82 -106 103 -106 14 0 25 5 25 10 0 6 -34 56 -76 111 -68 89 -74 102 -62 117
93 110 128 155 128 163 0 5 -11 9 -24 9 -19 0 -42 -22 -98 -92 l-73 -92 -3 92
c-3 90 -3 92 -27 92 l-25 0 0 -205z"/>
<path d="M8095 4444 c-38 -108 -72 -200 -74 -206 -2 -5 9 -8 24 -6 23 2 31 12
47 56 l19 52 88 0 87 0 18 -55 c16 -50 20 -55 46 -55 l30 0 -44 123 c-108 303
-98 282 -137 285 l-34 2 -70 -196z m140 41 c16 -44 30 -86 33 -92 3 -10 -14
-13 -67 -13 -43 0 -71 4 -71 10 0 25 63 190 70 183 4 -4 19 -44 35 -88z"/>
<path d="M8490 4435 l0 -206 103 3 c94 3 102 4 102 23 0 18 -8 20 -77 23 l-78
3 0 179 0 180 -25 0 -25 0 0 -205z"/>
<path d="M8800 4435 l0 -205 110 0 c103 0 110 1 110 20 0 18 -7 20 -85 20
l-85 0 0 80 0 80 76 0 c66 0 75 2 72 18 -3 14 -16 18 -76 20 l-72 3 0 64 0 65
85 0 c78 0 85 2 85 20 0 19 -7 20 -110 20 l-110 0 0 -205z"/>
<path d="M9125 4617 c3 -12 29 -103 58 -202 l52 -180 34 0 34 0 43 160 c23 88
44 153 47 145 3 -8 20 -67 37 -130 51 -187 48 -180 80 -180 16 0 32 5 35 10 7
12 115 379 115 392 0 4 -11 8 -25 8 -20 0 -26 -7 -34 -37 -6 -21 -26 -98 -45
-172 -19 -73 -37 -135 -39 -137 -2 -2 -11 22 -19 53 -9 32 -31 111 -48 176
-31 113 -33 117 -60 117 -27 0 -28 -2 -71 -170 -24 -93 -46 -170 -49 -170 -3
0 -25 77 -50 170 -44 169 -45 170 -73 170 -23 0 -27 -3 -22 -23z"/>
<path d="M9775 4444 c-38 -108 -72 -200 -74 -206 -2 -5 9 -8 24 -6 23 2 31 12
47 56 l19 52 88 0 87 0 18 -55 c16 -50 20 -55 46 -55 l30 0 -44 123 c-108 303
-98 282 -137 285 l-34 2 -70 -196z m140 41 c16 -44 30 -86 33 -92 3 -10 -14
-13 -67 -13 -43 0 -71 4 -71 10 0 25 63 190 70 183 4 -4 19 -44 35 -88z"/>
<path d="M10170 4435 l0 -205 68 0 c128 1 181 25 220 100 16 32 22 62 22 106
0 74 -11 108 -48 148 -41 43 -81 56 -177 56 l-85 0 0 -205z m198 138 c40 -29
56 -70 56 -138 -1 -66 -21 -116 -57 -139 -12 -8 -50 -18 -84 -22 l-63 -7 0
168 0 167 60 -4 c39 -3 70 -11 88 -25z"/>
<path d="M10610 4435 l0 -205 25 0 25 0 0 205 0 205 -25 0 -25 0 0 -205z"/>
<path d="M11210 4435 l0 -205 25 0 c25 0 25 1 25 79 l0 79 60 4 c73 5 109 29
129 85 12 34 13 48 2 83 -18 61 -55 80 -158 80 l-83 0 0 -205z m164 144 c20
-16 26 -29 26 -59 0 -56 -25 -82 -88 -88 l-52 -5 0 87 0 86 44 0 c29 0 52 -7
70 -21z"/>
<path d="M11590 4435 l0 -205 25 0 25 0 0 205 0 205 -25 0 -25 0 0 -205z"/>
<path d="M11790 4435 l0 -205 25 0 25 0 2 180 3 179 69 -180 c65 -169 71 -180
94 -177 21 3 32 24 95 180 l72 177 3 -179 2 -180 25 0 25 0 0 206 0 205 -42
-3 -41 -3 -66 -157 c-35 -87 -68 -158 -71 -158 -3 0 -33 66 -65 148 -32 81
-63 153 -68 160 -5 6 -27 12 -48 12 l-39 0 0 -205z"/>
<path d="M12390 4435 l0 -205 25 0 c25 0 25 1 25 79 l0 79 60 4 c73 5 109 29
129 85 12 34 13 48 2 83 -18 61 -55 80 -158 80 l-83 0 0 -205z m164 144 c20
-16 26 -29 26 -59 0 -56 -25 -82 -88 -88 l-52 -5 0 87 0 86 44 0 c29 0 52 -7
70 -21z"/>
<path d="M12770 4435 l0 -205 25 0 c25 0 25 0 25 96 l0 97 37 -6 c49 -8 67
-28 101 -112 25 -61 32 -70 57 -73 23 -3 27 -1 21 15 -40 108 -54 139 -75 161
-14 16 -19 28 -13 30 75 25 87 141 19 182 -25 16 -50 20 -114 20 l-83 0 0
-205z m153 154 c29 -16 37 -28 37 -61 0 -42 -35 -68 -92 -68 l-48 0 0 70 0 70
41 0 c22 0 50 -5 62 -11z"/>
<path d="M13160 4435 l0 -205 25 0 25 0 0 205 0 205 -25 0 -25 0 0 -205z"/>
<path d="M13760 4435 l0 -205 25 0 c25 0 25 1 25 79 l0 79 60 4 c73 5 109 29
129 85 12 34 13 48 2 83 -18 61 -55 80 -158 80 l-83 0 0 -205z m164 144 c20
-16 26 -29 26 -59 0 -56 -25 -82 -88 -88 l-52 -5 0 87 0 86 44 0 c29 0 52 -7
70 -21z"/>
<path d="M14142 4470 l3 -170 32 -32 c28 -28 40 -33 96 -36 76 -5 118 13 147
61 18 28 20 51 20 190 l0 157 -25 0 -25 0 0 -156 0 -156 -29 -29 c-23 -23 -38
-29 -71 -29 -33 0 -48 6 -71 29 l-29 29 0 156 0 156 -26 0 -25 0 3 -170z"/>
<path d="M14600 4435 l0 -206 23 3 c22 3 22 4 22 176 0 94 1 172 2 172 0 0 43
-77 95 -170 69 -127 99 -172 115 -176 52 -14 53 -10 53 206 l0 200 -25 0 -25
0 -1 -167 c0 -114 -3 -163 -10 -153 -5 8 -47 83 -92 165 -82 149 -82 150 -119
153 l-38 3 0 -206z"/>
<path d="M15060 4435 l0 -205 110 0 c103 0 110 1 110 20 0 18 -7 20 -85 20
l-85 0 0 80 0 80 76 0 c66 0 75 2 72 18 -3 14 -16 18 -76 20 l-72 3 0 64 0 65
85 0 c78 0 85 2 85 20 0 19 -7 20 -110 20 l-110 0 0 -205z"/>
<path d="M16375 4630 c-14 -23 11 -30 106 -30 54 0 99 -3 99 -7 0 -4 -34 -83
-75 -175 -41 -92 -75 -172 -75 -178 0 -6 12 -10 26 -8 23 3 33 22 105 186 43
101 79 192 79 203 0 18 -8 19 -129 19 -76 0 -132 -4 -136 -10z"/>
<path d="M15564 4399 c-13 -21 14 -30 82 -27 56 2 69 6 72 21 3 15 -6 17 -72
17 -43 0 -78 -5 -82 -11z"/>
<path d="M7300 4271 c0 -16 -9 -50 -20 -76 -24 -56 -24 -55 -5 -55 21 0 77 87
79 123 1 28 -3 32 -26 35 -25 3 -28 0 -28 -27z"/>
<path d="M10820 4271 c0 -16 -9 -50 -20 -76 -24 -56 -24 -55 -5 -55 21 0 77
87 79 123 1 28 -3 32 -26 35 -25 3 -28 0 -28 -27z"/>
<path d="M13370 4271 c0 -16 -9 -50 -20 -76 -24 -56 -24 -55 -5 -55 21 0 77
87 79 123 1 28 -3 32 -26 35 -25 3 -28 0 -28 -27z"/>
<path d="M3650 3350 l0 -550 6510 0 6510 0 0 550 0 550 -6510 0 -6510 0 0
-550z m2233 256 c55 -23 71 -50 75 -127 l4 -69 -65 0 -66 0 -3 51 c-3 59 -25
83 -52 60 -24 -20 -24 -372 0 -392 29 -24 49 1 52 70 l3 61 64 0 65 0 0 -65
c0 -112 -38 -154 -146 -163 -80 -6 -144 22 -168 72 -23 49 -23 393 0 441 30
65 154 96 237 61z m1300 0 c18 -7 43 -26 57 -41 l25 -27 0 -213 0 -213 -25
-27 c-33 -36 -79 -55 -135 -55 -56 0 -102 19 -135 55 l-25 27 0 213 0 213 25
27 c14 15 39 34 55 41 39 17 117 18 158 0z m1380 0 c18 -7 43 -26 57 -41 l25
-27 0 -213 0 -213 -25 -27 c-33 -36 -79 -55 -135 -55 -56 0 -102 19 -135 55
l-25 27 0 213 0 213 25 27 c14 15 39 34 55 41 39 17 117 18 158 0z m2606 -2
c56 -22 71 -50 71 -134 l0 -70 -65 0 -65 0 0 54 c0 35 -5 58 -15 66 -17 14
-43 7 -51 -15 -13 -33 8 -66 77 -121 90 -73 119 -122 119 -198 0 -102 -41
-145 -145 -154 -76 -6 -126 10 -160 49 -22 27 -25 40 -25 105 l0 74 65 0 65 0
0 -59 c0 -41 5 -62 16 -72 26 -21 49 2 48 47 -2 34 -10 46 -88 119 -94 87
-106 109 -106 190 0 63 31 109 83 124 51 15 133 12 176 -5z m410 0 c56 -22 71
-50 71 -134 l0 -70 -65 0 -65 0 0 54 c0 35 -5 58 -15 66 -17 14 -43 7 -51 -15
-13 -33 8 -66 77 -121 90 -73 119 -122 119 -198 0 -102 -41 -145 -145 -154
-76 -6 -126 10 -160 49 -22 27 -25 40 -25 105 l0 74 65 0 65 0 0 -59 c0 -41 5
-62 16 -72 26 -21 49 2 48 47 -2 34 -10 46 -88 119 -94 87 -106 109 -106 190
0 63 31 109 83 124 51 15 133 12 176 -5z m574 2 c18 -7 43 -26 57 -41 l25 -27
0 -213 0 -213 -25 -27 c-33 -36 -79 -55 -135 -55 -56 0 -102 19 -135 55 l-25
27 0 213 0 213 25 27 c14 15 39 34 55 41 39 17 117 18 158 0z m1073 -6 c49
-24 74 -68 74 -131 0 -59 -28 -111 -109 -201 -125 -138 -124 -148 9 -148 l100
0 0 -40 0 -40 -171 0 -172 0 5 74 c6 88 25 126 122 236 73 82 94 127 76 160
-14 25 -46 26 -60 1 -5 -11 -10 -40 -10 -65 l0 -46 -65 0 -65 0 0 55 c0 89 32
142 95 158 50 12 130 6 171 -13z m416 -4 c51 -33 58 -66 58 -276 0 -220 -5
-240 -73 -271 -84 -38 -199 -16 -237 46 -18 30 -20 49 -20 227 0 186 1 197 23
228 36 53 81 72 158 67 38 -2 76 -11 91 -21z m384 4 c49 -24 74 -68 74 -131 0
-59 -28 -111 -109 -201 -125 -138 -124 -148 9 -148 l100 0 0 -40 0 -40 -171 0
-172 0 5 74 c6 88 25 126 122 236 73 82 94 127 76 160 -14 25 -46 26 -60 1 -5
-11 -10 -40 -10 -65 l0 -46 -65 0 -65 0 0 55 c0 89 32 142 95 158 50 12 130 6
171 -13z m1050 0 c49 -24 74 -68 74 -131 0 -59 -28 -111 -109 -201 -125 -138
-124 -148 9 -148 l100 0 0 -40 0 -40 -171 0 -172 0 5 74 c6 88 25 126 122 236
73 82 94 127 76 160 -14 25 -46 26 -60 1 -5 -11 -10 -40 -10 -65 l0 -46 -65 0
-65 0 0 55 c0 89 32 142 95 158 50 12 130 6 171 -13z m416 -4 c51 -33 58 -66
58 -276 0 -220 -5 -240 -73 -271 -84 -38 -199 -16 -237 46 -18 30 -20 49 -20
227 0 186 1 197 23 228 36 53 81 72 158 67 38 -2 76 -11 91 -21z m384 4 c49
-24 74 -68 74 -131 0 -59 -28 -111 -109 -201 -125 -138 -124 -148 9 -148 l100
0 0 -40 0 -40 -171 0 -172 0 5 74 c6 88 25 126 122 236 73 82 94 127 76 160
-14 25 -46 26 -60 1 -5 -11 -10 -40 -10 -65 l0 -46 -65 0 -65 0 0 55 c0 89 32
142 95 158 50 12 130 6 171 -13z m-11702 -27 c11 -66 66 -497 66 -515 0 -15
-10 -18 -64 -18 l-65 0 -5 43 c-3 23 -7 53 -8 67 -3 21 -9 25 -39 28 l-37 3
-8 -68 -9 -68 -59 -3 -59 -3 6 28 c3 15 25 144 49 286 l43 257 92 0 91 0 6
-37z m390 23 c56 -23 66 -48 66 -157 0 -84 -3 -100 -22 -124 -27 -35 -75 -55
-133 -55 l-45 0 0 -110 0 -110 -65 0 -65 0 0 285 0 285 115 0 c76 0 127 -5
149 -14z m400 0 c56 -23 66 -48 66 -157 0 -84 -3 -100 -22 -124 -27 -35 -75
-55 -133 -55 l-45 0 0 -110 0 -110 -65 0 -65 0 0 285 0 285 115 0 c76 0 127
-5 149 -14z m276 -226 l0 -240 75 0 75 0 0 -45 0 -45 -140 0 -140 0 0 285 0
285 65 0 65 0 0 -240z m320 -45 l0 -285 -65 0 -65 0 0 285 0 285 65 0 65 0 0
-285z m744 248 c11 -66 66 -497 66 -515 0 -15 -10 -18 -64 -18 l-65 0 -5 43
c-3 23 -7 53 -8 67 -3 21 -9 25 -39 28 l-37 3 -8 -68 -9 -68 -59 -3 -59 -3 6
28 c3 15 25 144 49 286 l43 257 92 0 91 0 6 -37z m386 -8 l0 -45 -45 0 -45 0
0 -240 0 -240 -65 0 -65 0 0 240 0 240 -50 0 -50 0 0 45 0 45 160 0 160 0 0
-45z m190 -240 l0 -285 -65 0 -65 0 0 285 0 285 65 0 65 0 0 -285z m660 228
c7 -32 25 -116 40 -188 l28 -130 1 188 1 187 55 0 55 0 0 -285 0 -285 -87 0
-88 0 -47 218 -46 217 -1 -217 -1 -218 -55 0 -55 0 0 285 0 285 94 0 95 0 11
-57z m730 12 l0 -45 -70 0 -70 0 0 -60 0 -60 70 0 70 0 0 -45 0 -45 -70 0 -70
0 0 -135 0 -135 -65 0 -65 0 0 285 0 285 135 0 135 0 0 -45z m741 22 c37 -25
52 -67 47 -129 -4 -42 -11 -57 -37 -80 -35 -31 -38 -38 -17 -38 8 0 24 -12 35
-26 18 -23 21 -41 21 -125 0 -54 4 -109 10 -123 l10 -26 -69 0 c-82 0 -81 -2
-81 118 0 96 -14 135 -48 140 -22 3 -22 2 -22 -127 l0 -131 -65 0 -65 0 0 286
0 286 128 -4 c101 -3 132 -7 153 -21z m613 -14 c11 -66 66 -497 66 -515 0 -15
-10 -18 -64 -18 l-65 0 -5 43 c-3 23 -7 53 -8 67 -3 21 -9 25 -39 28 l-37 3
-8 -68 -9 -68 -59 -3 -59 -3 6 28 c3 15 25 144 49 286 l43 257 92 0 91 0 6
-37z m386 19 c62 -30 70 -62 70 -265 0 -265 -10 -278 -212 -285 l-118 -4 0
286 0 286 113 0 c87 0 120 -4 147 -18z m334 1 c2 -10 15 -93 27 -185 13 -92
25 -165 29 -162 3 3 16 85 30 182 l25 177 98 3 97 3 0 -286 0 -285 -60 0 -60
0 -1 233 -1 232 -38 -230 c-22 -126 -39 -231 -40 -232 0 -2 -27 -3 -60 -3 -33
0 -60 1 -61 3 0 1 -18 106 -39 232 l-38 230 -1 -232 -1 -233 -55 0 -55 0 0
285 0 285 99 0 c86 0 100 -2 105 -17z m506 -268 l0 -285 -65 0 -65 0 0 285 0
285 65 0 65 0 0 -285z m1000 0 l0 -285 -65 0 -65 0 0 285 0 285 65 0 65 0 0
-285z m660 228 c7 -32 25 -116 40 -188 l28 -130 1 188 1 187 55 0 55 0 0 -285
0 -285 -87 0 -88 0 -47 218 -46 217 -1 -217 -1 -218 -55 0 -55 0 0 285 0 285
94 0 95 0 11 -57z m1960 -118 c0 -168 1 -175 20 -175 17 0 20 -7 20 -45 0 -38
-3 -45 -20 -45 -18 0 -20 -7 -20 -65 l0 -65 -65 0 -65 0 0 65 0 65 -95 0 -95
0 0 43 c0 31 21 89 77 219 l78 178 83 0 82 0 0 -175z m1890 135 l0 -39 -102
-3 -103 -3 -3 -47 c-2 -27 -1 -48 1 -48 2 0 19 7 36 16 49 24 109 13 144 -26
l28 -32 -3 -138 c-3 -132 -4 -140 -28 -166 -50 -54 -141 -70 -220 -38 -62 25
-80 58 -80 148 l0 76 65 0 65 0 0 -64 c0 -71 17 -99 48 -79 14 8 17 28 17 108
0 84 -3 99 -18 109 -16 9 -22 7 -34 -11 -13 -20 -24 -23 -79 -23 l-64 0 0 150
0 150 165 0 165 0 0 -40z m-1610 -280 l0 -50 -90 0 -90 0 0 50 0 50 90 0 90 0
0 -50z"/>
<path d="M7082 3518 c-8 -8 -12 -66 -12 -194 0 -153 2 -184 16 -195 11 -9 20
-10 32 -2 15 9 17 35 20 193 2 181 -2 210 -32 210 -7 0 -17 -5 -24 -12z"/>
<path d="M8462 3518 c-8 -8 -12 -66 -12 -194 0 -153 2 -184 16 -195 11 -9 20
-10 32 -2 15 9 17 35 20 193 2 181 -2 210 -32 210 -7 0 -17 -5 -24 -12z"/>
<path d="M12052 3518 c-8 -8 -12 -66 -12 -194 0 -153 2 -184 16 -195 11 -9 20
-10 32 -2 15 9 17 35 20 193 2 181 -2 210 -32 210 -7 0 -17 -5 -24 -12z"/>
<path d="M13512 3518 c-8 -8 -12 -66 -12 -194 0 -153 2 -184 16 -195 11 -9 20
-10 32 -2 15 9 17 35 20 193 2 181 -2 210 -32 210 -7 0 -17 -5 -24 -12z"/>
<path d="M15362 3518 c-8 -8 -12 -66 -12 -194 0 -153 2 -184 16 -195 11 -9 20
-10 32 -2 15 9 17 35 20 193 2 181 -2 210 -32 210 -7 0 -17 -5 -24 -12z"/>
<path d="M4058 3445 c-4 -22 -10 -70 -13 -107 -6 -64 -5 -68 14 -68 23 0 25
22 12 150 -6 63 -7 64 -13 25z"/>
<path d="M4430 3435 c0 -84 2 -95 18 -95 39 0 47 17 47 95 0 78 -8 95 -47 95
-16 0 -18 -11 -18 -95z"/>
<path d="M4830 3435 c0 -84 2 -95 18 -95 39 0 47 17 47 95 0 78 -8 95 -47 95
-16 0 -18 -11 -18 -95z"/>
<path d="M6188 3445 c-4 -22 -10 -70 -13 -107 -6 -64 -5 -68 14 -68 23 0 25
22 12 150 -6 63 -7 64 -13 25z"/>
<path d="M8860 3454 c0 -73 1 -75 23 -69 35 11 42 23 42 71 0 34 -5 49 -19 60
-39 28 -46 19 -46 -62z"/>
<path d="M9508 3445 c-4 -22 -10 -70 -13 -107 -6 -64 -5 -68 14 -68 23 0 25
22 12 150 -6 63 -7 64 -13 25z"/>
<path d="M9880 3325 c0 -176 2 -205 15 -205 8 0 24 9 35 20 18 18 20 33 20
185 0 152 -2 167 -20 185 -11 11 -27 20 -35 20 -13 0 -15 -29 -15 -205z"/>
<path d="M14292 3372 c-23 -53 -42 -100 -42 -104 0 -5 20 -8 45 -8 l45 0 0
105 c0 58 -1 105 -2 105 -2 0 -22 -44 -46 -98z"/>
<path d="M1134 3811 c-23 -10 -51 -32 -62 -49 -22 -30 -56 -141 -47 -151 3 -2
18 7 33 22 48 46 108 67 197 67 84 0 154 -18 313 -81 107 -43 256 -79 316 -78
32 1 40 4 21 6 -117 16 -247 71 -425 178 -174 105 -259 126 -346 86z"/>
<path d="M2910 3821 c-37 -12 -100 -45 -213 -113 -154 -92 -295 -149 -397
-161 -28 -3 -25 -4 15 -5 69 -2 183 27 365 94 131 48 168 57 240 61 104 6 154
-6 216 -53 l47 -36 -7 42 c-9 60 -40 114 -82 147 -29 22 -49 28 -98 30 -33 1
-72 -1 -86 -6z"/>
<path d="M1120 3586 c-65 -18 -103 -40 -138 -80 -46 -53 -55 -101 -48 -246 8
-164 20 -234 47 -272 27 -37 105 -74 177 -84 l52 -7 0 137 c0 104 -3 136 -12
135 -46 -6 -72 4 -111 41 -48 45 -46 50 37 75 99 30 242 14 596 -65 304 -68
469 -67 776 6 323 75 496 92 597 58 57 -19 63 -28 43 -59 -20 -30 -64 -54
-108 -59 l-33 -3 -3 -127 c-3 -148 -4 -147 95 -122 73 18 125 52 148 97 23 44
47 307 35 381 -23 148 -124 208 -349 208 -131 0 -188 -10 -451 -75 -309 -76
-427 -76 -754 5 -111 27 -228 54 -260 59 -79 15 -280 12 -336 -3z m361 -22
c46 -8 143 -31 214 -49 196 -51 286 -65 409 -65 126 0 186 10 446 75 165 42
200 47 331 52 116 4 157 2 200 -11 144 -41 186 -116 172 -309 -5 -72 -9 -87
-17 -72 -56 96 -137 135 -284 135 -104 0 -134 -5 -457 -74 -289 -61 -374 -71
-494 -56 -53 6 -199 33 -326 60 -126 27 -267 54 -313 61 -184 26 -315 -8 -371
-96 l-30 -47 -6 47 c-4 25 -5 86 -3 134 3 75 8 95 30 129 27 40 88 77 152 93
57 13 261 9 347 -7z m-345 -409 c16 -4 35 -8 42 -11 9 -2 12 -34 12 -115 l0
-111 -42 7 c-108 17 -178 80 -178 162 0 46 20 106 46 134 13 15 18 13 52 -22
21 -21 52 -41 68 -44z m2094 -15 c13 -47 13 -65 -4 -104 -26 -62 -79 -97 -169
-110 l-47 -7 0 110 c0 119 -4 111 60 125 14 3 43 23 64 45 l39 40 24 -31 c13
-18 28 -48 33 -68z"/>
<path d="M2923 3494 c-2 -6 -3 -36 -1 -65 l3 -54 43 0 c50 0 62 19 15 23 -43
4 -45 32 -3 32 17 0 30 5 30 10 0 6 -13 10 -30 10 -20 0 -30 5 -30 15 0 10 10
15 29 15 49 0 44 18 -5 22 -29 2 -48 -1 -51 -8z"/>
<path d="M1180 3485 c-17 -21 -5 -44 30 -56 31 -11 38 -23 19 -34 -5 -4 -19 1
-29 10 -12 11 -20 13 -25 5 -12 -19 16 -41 48 -38 57 6 62 65 7 78 -13 3 -25
11 -28 18 -5 15 20 16 36 0 15 -15 26 -4 19 17 -8 19 -61 20 -77 0z"/>
<path d="M1296 3463 c-12 -78 -9 -93 23 -93 16 0 37 -3 47 -7 12 -4 15 -2 12
8 -2 8 -17 15 -31 17 -38 5 -35 32 3 32 17 0 30 5 30 10 0 6 -13 13 -30 17
-41 8 -38 23 5 23 36 0 47 13 19 24 -9 3 -28 6 -44 6 -24 0 -28 -5 -34 -37z"/>
<path d="M2788 3494 c-11 -11 47 -125 62 -122 14 3 48 114 37 124 -11 11 -27
-7 -27 -29 0 -12 -4 -29 -9 -36 -7 -12 -14 -5 -26 27 -16 40 -25 49 -37 36z"/>
<path d="M1416 3448 c-11 -66 -11 -91 2 -95 7 -3 12 5 12 21 0 36 25 33 40 -4
7 -16 19 -30 26 -30 17 0 17 5 4 31 -8 14 -7 25 5 42 26 40 2 66 -62 67 -17 0
-23 -7 -27 -32z m73 -4 c3 -3 0 -9 -6 -15 -15 -15 -43 -4 -43 16 0 12 6 15 23
9 12 -3 24 -8 26 -10z"/>
<path d="M2676 3464 c-22 -21 -20 -77 2 -97 40 -36 102 -9 102 44 0 58 -66 92
-104 53z m63 -18 c7 -8 11 -27 9 -43 -4 -40 -44 -45 -58 -8 -13 33 -13 31 6
49 19 20 28 20 43 2z"/>
<path d="M1534 3429 c19 -120 29 -126 75 -45 35 60 36 66 18 66 -8 0 -23 -19
-33 -42 l-19 -42 -10 49 c-14 64 -40 76 -31 14z"/>
<path d="M2554 3435 c3 -8 8 -38 12 -66 7 -50 7 -51 37 -45 16 3 36 6 43 6 8
0 14 6 14 14 0 11 -9 13 -34 9 l-33 -5 -7 51 c-5 37 -11 51 -22 51 -10 0 -14
-6 -10 -15z"/>
<path d="M1641 3379 c-7 -33 -10 -63 -7 -66 12 -12 25 11 31 55 8 62 8 66 -3
70 -5 1 -15 -25 -21 -59z"/>
<path d="M2459 3423 c-1 -5 0 -18 1 -30 1 -18 -4 -23 -24 -23 -19 0 -26 5 -26
20 0 11 -7 20 -15 20 -11 0 -14 -7 -10 -27 3 -16 8 -45 11 -65 4 -24 12 -38
21 -38 11 0 13 7 9 27 -5 17 -3 29 6 34 24 15 38 9 38 -16 0 -16 6 -25 15 -25
18 0 18 1 4 73 -7 31 -16 57 -20 57 -5 0 -9 -3 -10 -7z"/>
<path d="M1696 3398 c-9 -12 -16 -34 -16 -49 0 -48 62 -78 90 -44 17 20 7 29
-17 17 -27 -15 -45 0 -41 33 4 39 33 56 52 30 17 -24 35 -12 20 13 -17 27 -69
27 -88 0z"/>
<path d="M1805 3340 c-4 -33 -6 -63 -4 -64 2 -2 23 -7 47 -11 52 -8 59 11 7
21 -43 8 -41 28 3 32 40 4 41 18 2 26 -44 8 -36 26 12 26 52 0 40 16 -18 26
l-42 6 -7 -62z"/>
<path d="M2310 3393 c-8 -2 -22 -7 -30 -10 -8 -4 -20 -5 -27 -4 -9 1 -12 -14
-10 -51 2 -47 0 -53 -18 -53 -16 0 -21 8 -25 44 -3 26 -11 46 -19 49 -11 4
-13 -5 -7 -49 8 -59 27 -83 60 -73 34 10 44 31 38 80 -5 44 -4 46 19 42 17 -2
25 -10 27 -28 5 -51 13 -70 26 -70 10 0 11 9 5 43 -12 60 -11 67 6 67 8 0 15
5 15 10 0 10 -34 12 -60 3z"/>
<path d="M1960 3360 c0 -5 7 -10 16 -10 14 0 16 -9 12 -55 -6 -75 17 -76 26
-1 6 46 10 54 27 53 16 -1 19 -9 19 -54 0 -40 4 -53 15 -53 9 0 15 9 15 25 0
14 4 25 9 25 5 0 16 -11 25 -25 9 -14 24 -25 32 -25 15 0 15 2 0 25 -13 20
-14 28 -4 45 10 15 10 25 2 38 -9 14 -28 18 -103 20 -58 2 -91 -1 -91 -8z
m175 -29 c7 -12 -31 -25 -45 -16 -5 3 -10 10 -10 16 0 12 47 12 55 0z"/>
</g>
</svg>
