<?xml version="1.0" encoding="utf-8"?>
<!-- Generator: Adobe Illustrator 26.0.2, SVG Export Plug-In . SVG Version: 6.00 Build 0)  -->
<svg version="1.1" id="Layer_1" xmlns="http://www.w3.org/2000/svg" xmlns:xlink="http://www.w3.org/1999/xlink" x="0px" y="0px"
	 viewBox="0 0 2480 480" style="enable-background:new 0 0 2480 480;" xml:space="preserve">
<style type="text/css">
	.st0{clip-path:url(#SVGID_00000015342212422919641180000013359811952371381689_);}
	.st1{clip-path:url(#SVGID_00000134947643565610426850000012653868489201334967_);fill:#231F20;}
	
		.st2{clip-path:url(#SVGID_00000134947643565610426850000012653868489201334967_);fill:none;stroke:#231F20;stroke-width:5.0312;stroke-linecap:round;stroke-linejoin:round;stroke-miterlimit:10;}
	.st3{clip-path:url(#SVGID_00000134947643565610426850000012653868489201334967_);fill:#A9ABAD;}
	.st4{fill:#FFFFFF;}
	.st5{font-family:'EBGaramond-Bold';}
	.st6{font-size:36.142px;}
	.st7{font-family:'EBGaramond-SemiBold';}
	.st8{font-size:16.1342px;}
	.st9{letter-spacing:1;}
	.st10{fill:#231F20;}
	.st11{font-size:157.8013px;}
	.st12{font-size:71.1699px;}
	.st13{letter-spacing:7.9;}
	.st14{clip-path:url(#SVGID_00000015342212422919641180000013359811952371381689_);fill:#231F20;}
	.st15{font-size:33.3357px;}
	.st16{fill-rule:evenodd;clip-rule:evenodd;fill:#231F20;}
	.st17{fill:none;stroke:#231F20;stroke-miterlimit:22.926;}
</style>
<path d="M1634.1,66.5c-0.2,0.5-0.3,84.8-0.2,187.4l0.2,186.4h231.4h231.4V253.1V66l-231.2-0.2C1681.1,65.6,1634.4,65.7,1634.1,66.5z
	 M2094.3,253.1v184.5h-228.8h-228.8V253.1V68.6h228.8h228.8V253.1z"/>
<path d="M1953,165c-7.1,2.5-8.2,6.2-7.9,24.8c0.2,14.1,0.8,16.1,4.9,18.8c6.5,4.4,17.2,2.4,20.4-3.8c1.5-2.9,2-25.9,0.8-31.7
	C1969.6,165.6,1961.4,162,1953,165z M1961.1,172.5c0.2,0.7,0.5,7.4,0.5,14.9s-0.2,14.2-0.5,14.9c-0.3,0.7-1.3,1.2-2.5,1.2
	c-1.2,0-2.2-0.5-2.6-1.2c-0.2-0.7-0.4-7.4-0.4-14.9s0.2-14.2,0.4-14.9c0.3-0.7,1.3-1.2,2.6-1.2
	C1959.7,171.3,1960.8,171.9,1961.1,172.5z"/>
<path d="M2016.8,165c-7.1,2.5-8.2,6.2-7.9,24.8c0.2,14.1,0.8,16.1,4.9,18.8c6.5,4.4,17.2,2.4,20.4-3.8c1.5-2.9,2-25.9,0.8-31.7
	C2033.4,165.6,2025.2,162,2016.8,165z M2024.8,172.5c0.2,0.7,0.5,7.4,0.5,14.9s-0.2,14.2-0.5,14.9c-0.3,0.7-1.3,1.2-2.5,1.2
	c-1.2,0-2.2-0.5-2.6-1.2c-0.2-0.7-0.4-7.4-0.4-14.9s0.2-14.2,0.4-14.9c0.3-0.7,1.3-1.2,2.6-1.2
	C2023.5,171.3,2024.5,171.9,2024.8,172.5z"/>
<path d="M1687,187.5v22.9h5.2h5.2v-10.9v-10.9h5.6h5.6v-3.4v-3.4h-5.6h-5.6v-5.2v-5.2h5.6h5.6V168v-3.4h-10.9H1687V187.5z"/>
<path d="M1718.9,165.5c-0.2,0.5-1.9,10.3-3.8,21.6s-3.6,21.2-3.8,21.9c-0.4,1.2,0.2,1.4,4.1,1.4h4.5l0.9-5.6l0.9-5.6h2.8
	c3.1,0,3.8,0.8,3.8,4.5c0,1.1,0.2,3.1,0.4,4.4l0.5,2.3h5.1h5.2l-0.4-2.1c-0.5-2.3-5.6-42.3-5.6-43.1
	C1733.5,164.1,1719.3,164.5,1718.9,165.5z M1726.4,186.1l0.5,6.2h-2h-2.1l0.5-4.7c0.2-2.6,0.8-7.2,1-10.3l0.5-5.6l0.5,4.1
	C1725.6,178.1,1726.2,182.7,1726.4,186.1z"/>
<path d="M1744.8,187.5v22.9h4.1h4.1v-19.3c0-10.6,0.2-19,0.4-18.8c0.3,0.4,6.2,35.6,6.3,37.6c0,0.3,2.1,0.5,4.7,0.4l4.7-0.2l3-19.1
	l3-19.1l0.2,19.3l0.2,19.3h4.9h4.9v-22.9v-22.9h-7.7h-7.7l-2.2,16.1c-1.2,8.8-2.2,16-2.5,15.8c-0.2-0.3-4.6-29.7-4.6-31.4
	c0-0.3-3.5-0.5-7.9-0.5h-7.9V187.5z"/>
<path d="M1791.3,187.5v22.9h5.2h5.2v-22.9v-22.9h-5.2h-5.2V187.5z"/>
<path d="M1807.8,187.5v22.9h10.9h10.9V207v-3.4h-5.6h-5.6v-19.5v-19.5h-5.2h-5.2V187.5z"/>
<path d="M1826.5,164.7c0,0.2,2,6.6,4.5,14.5c4.3,13.9,4.5,14.5,4.5,22.6v8.5h5.2h5.2v-8.8c0-9.1,0.4-11,8.2-35l0.7-2h-5.1h-5.1
	l-1.7,8c-0.9,4.5-1.9,8.6-2.1,9.2c-0.2,0.6-1.3-2.9-2.4-7.9l-1.9-9l-5.1-0.2C1828.8,164.6,1826.5,164.6,1826.5,164.7z"/>
<path d="M1879,187.4v22.9h5.2h5.2v-9v-9h2.8c4.3,0,8.2-1.4,10.9-3.8c2.3-2,2.4-2.4,2.6-8.8c0.5-12.7-1.7-14.6-16.9-15.1l-10-0.3
	V187.4z M1894.8,172.8c0.4,0.8,0.8,3.4,0.8,5.7c0,5.4-0.9,7.1-3.8,7.1h-2.2v-7.1v-7.1h2.2C1893.2,171.3,1894.2,171.9,1894.8,172.8z"
	/>
<path d="M1912,187.5v22.9h5.2h5.2v-10.9v-10.9h3h3v10.9v10.9h5.2h5.2v-22.9v-22.9h-5.2h-5.2v8.6v8.6h-3h-3v-8.6v-8.6h-5.2h-5.2
	V187.5z"/>
<path d="M1977.3,168v3.4h3.8h3.8v19.5v19.5h5.2h5.2v-19.5v-19.5h3.8h3.8V168v-3.4H1990h-12.8V168z"/>
<path d="M1699.8,244.2c-0.8,1.4-2.4,5.2-3.5,8.5c-1.7,5-2,7.4-2,14.6c0,7.4,0.3,9.4,1.9,14.3c1.1,3.1,2.8,6.9,3.6,8.4
	c1.6,2.7,1.8,2.8,6.1,2.8c2.5,0,4.4-0.2,4.2-0.6c-0.1-0.3-1.3-2.7-2.6-5.4c-3.2-6.7-4.3-11.9-4.3-20.2c0.1-8,1.3-13.4,4.9-20.4
	l2.2-4.4h-4.5C1701.5,241.8,1701.2,242,1699.8,244.2z"/>
<path d="M1758,242.9c-7.1,2.6-8.2,6.3-7.9,24.8c0.2,14.2,0.8,16,5,18.9c3.3,2.2,8.2,2.9,12.8,1.7c6.3-1.5,9.2-5.9,9.2-14v-4h-5.2
	h-5.2v4.4c0,5.8-0.5,6.8-3,6.8c-1.2,0-2.2-0.5-2.6-1.2c-0.2-0.7-0.4-7.4-0.4-14.9c0-7.6,0.2-14.3,0.4-14.9c0.3-0.7,1.3-1.2,2.6-1.2
	c2.5,0,3,1.1,3,6.1v3.7h5.3h5.3l-0.3-4.7c-0.4-5.7-1.7-8.6-5-10.5C1768.8,242,1761.7,241.5,1758,242.9z"/>
<path d="M1940.3,242.9c-7.1,2.6-8.2,6.3-7.9,24.8c0.2,14.2,0.8,16,4.9,18.9c3.3,2.2,8.2,2.9,12.8,1.7c6.3-1.5,9.2-5.9,9.2-14v-4
	h-5.2h-5.2v4.4c0,5.8-0.5,6.8-3,6.8c-1.2,0-2.2-0.5-2.6-1.2c-0.2-0.7-0.4-7.4-0.4-14.9c0-7.6,0.2-14.3,0.4-14.9
	c0.3-0.7,1.3-1.2,2.6-1.2c2.5,0,3,1.1,3,6.1v3.7h5.3h5.3l-0.3-4.7c-0.4-5.7-1.7-8.6-4.9-10.5C1951,242,1944,241.5,1940.3,242.9z"/>
<path d="M2014.5,246.6c6.5,12.3,6.3,30.3-0.4,42.3l-2.3,4l4.7-0.2l4.7-0.2l2.4-4.9c3.4-6.8,4.7-12.7,4.7-20.5
	c0-7.5-1.3-13.5-4.5-20.6l-2.2-4.7h-4.8h-4.9L2014.5,246.6z"/>
<path d="M1722.3,256.2c-5.1,11.5-6.1,14.3-6.1,17.6v4h7.5h7.5v5.2v5.2h4.9h4.9v-5.2c0-5.1,0.1-5.2,1.9-5.2c1.7,0,1.9-0.2,1.9-3.8
	c0-3.5-0.2-3.8-1.9-3.8h-1.9v-13.9v-13.9h-6.3h-6.2L1722.3,256.2z M1731.3,261.3v9h-4.2c-2.3,0-4-0.3-3.9-0.6
	c1.4-3.5,7.7-17.4,7.9-17.4C1731.2,252.3,1731.3,256.4,1731.3,261.3z"/>
<path d="M1783.8,265.5v22.9h4.1h4.1v-19.3c0-10.6,0.2-19,0.4-18.8c0.3,0.4,6.2,35.6,6.3,37.6c0,0.3,2.1,0.5,4.7,0.4l4.7-0.2l3-19.1
	l3-19.1l0.2,19.3l0.2,19.3h4.9h4.9v-22.9v-22.9h-7.7h-7.7l-2.2,16.1c-1.2,8.8-2.2,16-2.5,15.8c-0.2-0.3-4.6-29.7-4.6-31.4
	c0-0.3-3.5-0.5-7.9-0.5h-7.9V265.5z"/>
<path d="M1847.7,243.5c0.2,0.5,1.6,5.2,3.2,10.6l2.8,9.5l-3.1,11.9c-1.7,6.5-3.2,12.1-3.2,12.4s2.1,0.5,4.7,0.3l4.7-0.2l1.9-9.4
	c2.2-10.3,2-10.4,4.4,1.8c0.8,4.1,1.7,7.6,1.8,7.7c0.2,0.1,2.6,0.2,5.5,0.1l5.2-0.2l-3.2-11.6l-3.1-11.5l3.2-11.1l3.2-11.2h-4.7
	h-4.7l-1.7,8.6c-1,4.7-2,8.5-2.2,8.3c-0.3-0.2-0.8-1.7-1-3.2c-0.3-1.6-1.1-5.3-1.7-8.3l-1.2-5.4h-5.6
	C1848.8,242.6,1847.4,242.8,1847.7,243.5z"/>
<path d="M1899.3,254.6v12h5.1c4.2,0,5.2-0.2,6-1.5c1.1-1.7,3.2-2,4.5-0.6c0.6,0.6,0.9,3.5,0.9,8.1c0,7.6-0.5,9-3.5,9
	c-2.1,0-2.5-1.3-2.5-6.8v-4.4h-5.2h-5.2v5.4c0,9.2,3.9,12.9,13.5,13c6.2,0,9.4-1.7,11.8-6.4c1.4-2.9,1.7-4.4,1.6-11.2
	c0-8.9-0.9-12.3-3.8-14.5c-2.6-1.9-7.6-2-10.9-0.2l-2.5,1.3v-4.2v-4.1h8.2h8.2V246v-3.4h-13.1h-13.1V254.6z"/>
<path d="M1965.3,265.5v22.9h4.1h4.1v-19.3c0-10.6,0.2-19,0.4-18.8c0.3,0.4,6.2,35.6,6.3,37.6c0,0.3,2.1,0.5,4.7,0.4l4.7-0.2l3-19.1
	l3-19.1l0.2,19.3l0.2,19.3h4.9h4.9v-22.9v-22.9h-7.7h-7.7l-2.2,16.1c-1.2,8.8-2.2,16-2.5,15.8c-0.2-0.3-4.6-29.7-4.7-31.4
	c0-0.3-3.5-0.5-7.9-0.5h-7.9V265.5z"/>
<g>
	<g>
		<defs>
			<rect id="SVGID_1_" x="298.7" y="4.1" width="1240" height="452.8"/>
		</defs>
		<clipPath id="SVGID_00000012461914810091346030000001966152704447762836_">
			<use xlink:href="#SVGID_1_"  style="overflow:visible;"/>
		</clipPath>
		<g style="clip-path:url(#SVGID_00000012461914810091346030000001966152704447762836_);">
			<defs>
				<rect id="SVGID_00000041989003371292927250000006508741534156501899_" x="298.7" y="4.1" width="1240" height="452.8"/>
			</defs>
			<clipPath id="SVGID_00000075137488329231256530000001481395889213494696_">
				<use xlink:href="#SVGID_00000041989003371292927250000006508741534156501899_"  style="overflow:visible;"/>
			</clipPath>
			<path style="clip-path:url(#SVGID_00000075137488329231256530000001481395889213494696_);fill:#231F20;" d="M364.7,194.2
				c0,0,71.9-87.3,228.6-50.9l3.8-4.3l-1.3-41l-24.4-8.5l-90.5-20.7L362.2,95.4L364.7,194.2z"/>
			<path style="clip-path:url(#SVGID_00000075137488329231256530000001481395889213494696_);fill:#231F20;" d="M472.7,343.6
				L456.3,282l29.4-6.7v-1.8l-43.4-1.2l6.7-15.4c0,0,32.8-8.5,61.4,0l0.4,6.1l-25.3-0.8v1.4c0,0,25.4,7.9,25.3,9.2v8l-11.4,2.9
				l-21,6.3l19.2,0.6l-19.5,52.4"/>
			<path style="clip-path:url(#SVGID_00000075137488329231256530000001481395889213494696_);fill:#231F20;" d="M479.8,408.6
				l-0.5-0.1c-19.8-3.4-119.1-53.5-119.1-100V93.3l119.6-27l0.6,0.1l119,26.8v215.2c0,46.4-99.3,96.5-119.1,100L479.8,408.6z
				 M366.4,98.6v210c0,41.9,94,89.6,113.5,93.5c19.5-3.9,113.4-51.6,113.4-93.5v-210L479.8,73L366.4,98.6z"/>
			<path style="clip-path:url(#SVGID_00000075137488329231256530000001481395889213494696_);fill:#231F20;" d="M455.2,362
				c0.3,0.3,0.5,0.6,0.8,0.8c0.3,0.2,0.6,0.5,0.9,0.7c0.3,0.2,0.6,0.4,0.9,0.6c0.3,0.2,0.6,0.3,0.9,0.5c1.2,0.6,2.5,0.8,3.5,1
				c1.1,0.1,2,0.1,2.7,0.1c0.7-0.1,1-0.1,1-0.1s-0.1-0.5-0.2-1.2c-0.1-0.4-0.2-0.8-0.3-1.3c-0.1-0.5-0.3-1-0.5-1.6
				c-0.4-1.2-0.9-2.4-1.5-3.7c-0.3-0.6-0.7-1.3-1.1-1.8c-0.1-0.1-0.2-0.3-0.3-0.4c-0.1-0.1-0.2-0.3-0.3-0.4
				c-0.2-0.3-0.5-0.6-0.7-0.8c-0.3-0.3-0.6-0.6-0.9-0.8c-0.3-0.3-0.6-0.5-0.9-0.7c-0.3-0.2-0.6-0.4-0.9-0.6
				c-0.3-0.2-0.6-0.4-0.9-0.6c-0.3-0.2-0.6-0.3-0.9-0.5c-0.3-0.2-0.6-0.3-0.9-0.4c-0.3-0.1-0.6-0.3-0.8-0.4
				c-0.3-0.1-0.5-0.2-0.8-0.3c-0.5-0.2-1-0.3-1.4-0.5c-0.4-0.1-0.8-0.2-1.2-0.3c-0.3-0.1-0.6-0.1-0.8-0.1c-0.2,0-0.3,0-0.3,0
				s0,0.5,0.1,1.3c0.1,0.8,0.2,2,0.5,3.3c0.1,0.3,0.1,0.7,0.2,1c0.1,0.4,0.2,0.7,0.3,1.1c0.2,0.7,0.5,1.5,0.8,2.2
				C453.1,359.3,454,360.8,455.2,362"/>
			<path style="clip-path:url(#SVGID_00000075137488329231256530000001481395889213494696_);fill:#231F20;" d="M453.8,367.3
				c0.4-0.1,0.8-0.1,1.1-0.2c0.4,0,0.7-0.1,1.1-0.1c0.4,0,0.7,0,1.1,0c0.4,0,0.7,0.1,1,0.1c1.3,0.2,2.6,0.5,3.6,0.9
				c1.1,0.4,1.9,0.8,2.6,1.1c0.6,0.3,1,0.5,1,0.5s-0.2,0.4-0.6,1c-0.2,0.3-0.4,0.7-0.7,1.1c-0.3,0.4-0.6,0.9-1,1.3
				c-0.8,0.9-1.8,1.9-3,2.7c-0.6,0.4-1.3,0.8-2,1.1c-0.2,0.1-0.4,0.2-0.5,0.2c-0.2,0.1-0.4,0.1-0.6,0.2c-0.4,0.1-0.8,0.2-1.2,0.3
				c-0.5,0.1-0.9,0.2-1.4,0.2c-0.5,0-0.9,0.1-1.4,0.1c-0.4,0-0.9,0-1.3,0c-0.4,0-0.9-0.1-1.3-0.2c-0.4-0.1-0.8-0.1-1.3-0.2
				c-0.4-0.1-0.8-0.2-1.2-0.3c-0.4-0.1-0.8-0.2-1.1-0.4c-0.4-0.1-0.7-0.3-1-0.4c-0.7-0.3-1.3-0.6-1.8-0.8c-0.5-0.3-1-0.5-1.4-0.8
				c-0.4-0.2-0.7-0.4-0.9-0.6c-0.2-0.1-0.3-0.2-0.3-0.2s0.3-0.3,1-0.9c0.6-0.5,1.5-1.3,2.6-2c0.3-0.2,0.6-0.4,0.9-0.6
				c0.3-0.2,0.6-0.4,0.9-0.6c0.7-0.4,1.3-0.7,2.1-1.1C450.5,368.2,452.1,367.6,453.8,367.3"/>
			<path style="clip-path:url(#SVGID_00000075137488329231256530000001481395889213494696_);fill:#231F20;" d="M439,354.8
				c0.4,0.7,0.9,1.3,1.4,1.8c0.3,0.3,0.5,0.5,0.8,0.7c0.3,0.2,0.6,0.4,0.8,0.6c0.6,0.4,1.1,0.7,1.7,1c0.6,0.3,1.1,0.5,1.6,0.7
				c0.5,0.2,1,0.3,1.4,0.4c0.4,0.1,0.8,0.2,1.2,0.2c0.7,0.1,1,0.1,1,0.1s0-0.5,0-1.2c0-0.8-0.1-1.8-0.3-3c-0.2-1.2-0.4-2.6-0.9-3.9
				c-0.1-0.2-0.1-0.3-0.2-0.5c-0.1-0.2-0.1-0.3-0.2-0.5c-0.1-0.3-0.3-0.7-0.4-1c-0.3-0.7-0.7-1.3-1.1-2c-0.5-0.7-0.9-1.3-1.4-1.9
				c-0.5-0.6-1-1.1-1.5-1.6c-1.1-0.9-2.1-1.7-3.1-2.3c-0.5-0.3-0.9-0.5-1.3-0.8c-0.2-0.1-0.4-0.2-0.6-0.3c-0.2-0.1-0.3-0.2-0.5-0.2
				c-0.6-0.3-1-0.4-1-0.4s-0.1,0.5-0.2,1.3c-0.1,0.8-0.1,2-0.1,3.4c0,0.7,0.1,1.4,0.2,2.2c0.1,0.8,0.2,1.6,0.5,2.4
				c0.2,0.8,0.5,1.6,0.8,2.4C438.1,353.2,438.5,354,439,354.8"/>
			<path style="clip-path:url(#SVGID_00000075137488329231256530000001481395889213494696_);fill:#231F20;" d="M436.8,359.6
				c0.8,0,1.5,0.1,2.2,0.2c0.4,0.1,0.7,0.2,1,0.2c0.3,0.1,0.7,0.2,1,0.3c0.6,0.2,1.3,0.5,1.8,0.8c0.6,0.3,1.1,0.6,1.6,0.9
				c0.5,0.3,0.9,0.6,1.3,0.9c0.4,0.3,0.7,0.5,1,0.7c0.6,0.4,0.9,0.7,0.9,0.7s-0.3,0.4-0.7,0.9c-0.5,0.5-1.2,1.3-2.1,2
				c-0.9,0.7-2,1.5-3.4,2c-0.2,0.1-0.3,0.1-0.5,0.2c-0.2,0.1-0.3,0.1-0.5,0.2c-0.4,0.1-0.7,0.2-1.1,0.3c-0.7,0.2-1.5,0.3-2.4,0.2
				c-0.9,0-1.8-0.1-2.7-0.3c-0.9-0.2-1.7-0.4-2.6-0.7c-1.6-0.6-3.1-1.4-4.3-2.2c-0.6-0.4-1.1-0.8-1.6-1.2c-0.2-0.2-0.5-0.4-0.7-0.5
				c-0.2-0.2-0.4-0.3-0.5-0.5c-0.7-0.6-1-1-1-1s0.4-0.3,1.1-0.7c0.7-0.4,1.7-0.9,2.9-1.4c0.6-0.3,1.3-0.5,2-0.8
				c0.7-0.2,1.4-0.4,2.2-0.6c0.8-0.2,1.6-0.3,2.4-0.4C435.1,359.7,435.9,359.6,436.8,359.6"/>
			<path style="clip-path:url(#SVGID_00000075137488329231256530000001481395889213494696_);fill:#231F20;" d="M424.2,344.3
				c0.3,0.7,0.7,1.4,1.1,2.1c0.4,0.6,0.9,1.2,1.4,1.7c0.5,0.5,1,0.9,1.5,1.3c0.1,0.1,0.3,0.2,0.4,0.3c0.1,0.1,0.3,0.2,0.4,0.3
				c0.3,0.2,0.5,0.3,0.7,0.5c1,0.6,1.8,0.9,2.5,1.1c0.3,0.1,0.6,0.2,0.7,0.2c0.2,0,0.3,0.1,0.3,0.1s0.1-0.4,0.2-1.2
				c0.1-0.8,0.2-1.8,0.2-3c0-0.6,0-1.3,0-1.9c0-0.7-0.1-1.4-0.2-2.1c-0.2-1.4-0.6-2.9-1.2-4.3c-0.3-0.8-0.7-1.5-1.1-2.2
				c-0.4-0.7-0.8-1.3-1.3-1.9c-0.4-0.6-0.9-1.1-1.3-1.6c-0.4-0.5-0.9-0.9-1.3-1.3c-0.2-0.2-0.4-0.4-0.6-0.5
				c-0.2-0.2-0.4-0.3-0.6-0.5c-0.4-0.3-0.7-0.5-1-0.7c-0.6-0.4-0.9-0.6-0.9-0.6s-0.2,0.5-0.4,1.3c-0.2,0.8-0.5,1.9-0.6,3.3
				c-0.1,0.7-0.1,1.4-0.2,2.2c0,0.8,0,1.6,0.1,2.4c0.1,0.8,0.2,1.7,0.4,2.5c0.1,0.4,0.2,0.9,0.4,1.3c0.1,0.2,0.1,0.4,0.2,0.6
				C424.1,343.9,424.1,344.1,424.2,344.3"/>
			<path style="clip-path:url(#SVGID_00000075137488329231256530000001481395889213494696_);fill:#231F20;" d="M421.3,348.6
				c0.8,0.2,1.5,0.4,2.2,0.7c0.7,0.3,1.3,0.6,1.9,1c0.6,0.3,1.2,0.7,1.7,1.1c0.1,0.1,0.3,0.2,0.4,0.3c0.1,0.1,0.2,0.2,0.4,0.3
				c0.2,0.2,0.5,0.4,0.7,0.6c0.9,0.8,1.6,1.5,2,2.1c0.2,0.3,0.4,0.5,0.5,0.7c0.1,0.2,0.2,0.2,0.2,0.2s-0.3,0.3-0.9,0.7
				c-0.6,0.4-1.4,1-2.4,1.5c-0.5,0.3-1.1,0.5-1.7,0.7c-0.6,0.2-1.3,0.4-2,0.5c-1.4,0.3-2.9,0.3-4.6,0c-0.9-0.2-1.8-0.5-2.6-0.9
				c-0.8-0.4-1.6-0.8-2.4-1.3c-0.7-0.5-1.4-1-2.1-1.5c-0.6-0.5-1.2-1.1-1.8-1.6c-0.1-0.1-0.3-0.3-0.4-0.4c-0.1-0.1-0.2-0.3-0.4-0.4
				c-0.2-0.3-0.4-0.5-0.7-0.7c-0.4-0.5-0.8-0.9-1-1.3c-0.5-0.7-0.8-1.2-0.8-1.2s0.4-0.2,1.2-0.4c0.8-0.2,1.8-0.5,3.1-0.8
				c0.6-0.1,1.3-0.2,2.1-0.3c0.7-0.1,1.5-0.2,2.3-0.2c0.8,0,1.6,0,2.4,0.1c0.4,0,0.8,0.1,1.3,0.2c0.2,0,0.4,0.1,0.6,0.1
				C420.8,348.5,421,348.6,421.3,348.6"/>
			<path style="clip-path:url(#SVGID_00000075137488329231256530000001481395889213494696_);fill:#231F20;" d="M411.5,330.9
				c0.8,3.2,2.7,5.6,4.4,7.1c0.9,0.7,1.7,1.3,2.2,1.6c0.6,0.3,1,0.5,1,0.5s0.2-0.4,0.4-1.1c0.2-0.7,0.5-1.7,0.7-2.9
				c0.1-0.6,0.2-1.2,0.3-1.9c0.1-0.7,0.1-1.4,0.2-2.1c0-0.7,0-1.5-0.1-2.2c-0.1-0.7-0.2-1.5-0.4-2.3c-0.2-0.8-0.4-1.6-0.7-2.4
				c-0.3-0.7-0.6-1.4-0.9-2.1c-0.2-0.3-0.3-0.6-0.5-0.9c-0.2-0.3-0.3-0.6-0.5-0.9c-0.2-0.3-0.4-0.5-0.5-0.8
				c-0.2-0.3-0.4-0.5-0.5-0.7c-0.3-0.5-0.7-0.9-1-1.2c-0.3-0.4-0.6-0.7-0.8-0.9c-0.2-0.3-0.4-0.4-0.6-0.6c-0.1-0.1-0.2-0.2-0.2-0.2
				s-0.1,0.1-0.2,0.3c-0.1,0.2-0.3,0.5-0.4,0.9c-0.3,0.7-0.8,1.8-1.2,3.1c-0.1,0.3-0.2,0.7-0.3,1c-0.1,0.4-0.2,0.7-0.2,1.1
				c-0.1,0.8-0.3,1.6-0.3,2.4C411,327.3,411,329.1,411.5,330.9"/>
			<path style="clip-path:url(#SVGID_00000075137488329231256530000001481395889213494696_);fill:#231F20;" d="M407.8,334.6
				c2.9,1.3,4.9,3.5,6.4,5.4c0.7,0.9,1.3,1.8,1.7,2.4c0.4,0.6,0.6,1,0.6,1s-0.3,0.2-1,0.5c-0.6,0.3-1.5,0.7-2.6,1
				c-0.5,0.2-1.1,0.3-1.8,0.4c-0.6,0.1-1.3,0.1-2,0.1c-0.7,0-1.4-0.1-2.2-0.2c-0.8-0.2-1.5-0.4-2.3-0.7c-0.9-0.4-1.7-0.9-2.4-1.4
				c-0.8-0.5-1.5-1.1-2.1-1.7c-0.3-0.3-0.7-0.6-1-0.9c-0.3-0.3-0.6-0.6-0.9-1c-0.3-0.3-0.5-0.6-0.8-1c-0.2-0.3-0.5-0.6-0.7-1
				c-0.4-0.6-0.8-1.2-1.1-1.8c-0.3-0.6-0.6-1-0.8-1.5c-0.2-0.4-0.4-0.7-0.5-1c-0.1-0.2-0.2-0.4-0.2-0.4s0.1,0,0.3-0.1
				c0.2,0,0.5-0.1,0.9-0.1c0.8-0.1,1.9-0.2,3.2-0.1c0.3,0,0.7,0,1,0c0.3,0,0.7,0,1.1,0.1c0.7,0.1,1.5,0.2,2.3,0.3
				C404.6,333.4,406.2,333.8,407.8,334.6"/>
			<path style="clip-path:url(#SVGID_00000075137488329231256530000001481395889213494696_);fill:#231F20;" d="M401.1,315.2
				c0.2,3.3,1.7,6.1,3.1,7.9c0.4,0.5,0.7,0.9,1,1.2c0.3,0.3,0.6,0.6,0.9,0.9c0.5,0.5,0.8,0.7,0.8,0.7s0.2-0.4,0.6-1
				c0.3-0.7,0.8-1.6,1.2-2.7c0.1-0.3,0.2-0.6,0.3-0.9c0.1-0.3,0.2-0.6,0.3-0.9c0.2-0.6,0.4-1.3,0.5-2c0.1-0.7,0.2-1.4,0.3-2.2
				c0-0.4,0-0.8,0-1.1c0-0.2,0-0.4,0-0.6c0-0.2,0-0.4,0-0.6c-0.2-3.5-1.4-6.3-2.4-8.5c-0.1-0.3-0.3-0.5-0.4-0.8
				c-0.1-0.2-0.3-0.5-0.4-0.7c-0.2-0.4-0.5-0.8-0.7-1.1c-0.4-0.6-0.6-0.9-0.6-0.9s-0.3,0.4-0.8,1c-0.2,0.3-0.5,0.7-0.8,1.2
				c-0.3,0.5-0.6,1-0.9,1.6c-0.3,0.6-0.6,1.3-0.9,2c-0.3,0.7-0.5,1.5-0.7,2.3C401.2,311.5,401,313.3,401.1,315.2"/>
			<path style="clip-path:url(#SVGID_00000075137488329231256530000001481395889213494696_);fill:#231F20;" d="M396.9,318
				c2.6,1.9,4.3,4.5,5.4,6.6c0.3,0.5,0.5,1.1,0.7,1.5c0.2,0.5,0.4,0.9,0.5,1.2c0.3,0.7,0.4,1.1,0.4,1.1s-0.4,0.2-1,0.3
				c-0.7,0.2-1.6,0.4-2.7,0.5c-0.3,0-0.6,0-0.9,0c-0.3,0-0.6,0-0.9,0c-0.6,0-1.3-0.1-2-0.3c-0.7-0.2-1.4-0.4-2.1-0.7
				c-0.4-0.2-0.7-0.3-1.1-0.5c-0.2-0.1-0.4-0.2-0.5-0.3c-0.2-0.1-0.3-0.2-0.5-0.4c-3.1-2.2-5.3-5.6-6.6-8.5
				c-0.1-0.2-0.2-0.3-0.2-0.5c-0.1-0.2-0.1-0.3-0.2-0.5c-0.1-0.3-0.3-0.7-0.4-1c-0.2-0.6-0.4-1.1-0.5-1.6c-0.3-0.9-0.4-1.5-0.4-1.5
				s0.5,0,1.2,0.1c0.4,0,0.9,0.1,1.4,0.2c0.5,0.1,1.1,0.2,1.8,0.3c0.6,0.1,1.3,0.3,2,0.5c0.7,0.2,1.4,0.5,2.2,0.8
				C394,316.1,395.5,316.9,396.9,318"/>
			<path style="clip-path:url(#SVGID_00000075137488329231256530000001481395889213494696_);fill:#231F20;" d="M393.5,297.5
				c-0.1,1.6,0,3.3,0.3,4.7c0.3,1.4,0.9,2.7,1.4,3.8c0.6,1,1.1,1.9,1.6,2.4c0.4,0.6,0.7,0.9,0.7,0.9s0.3-0.3,0.7-0.9
				c0.4-0.6,1-1.4,1.6-2.4c0.6-1,1.2-2.2,1.7-3.6c0.5-1.3,0.9-2.8,1.1-4.3c0-0.4,0.1-0.9,0.1-1.3c0-0.4,0-0.8,0-1.2
				c0-0.8-0.1-1.6-0.2-2.3c-0.1-0.7-0.2-1.5-0.4-2.1c-0.1-0.3-0.2-0.7-0.3-1c-0.1-0.3-0.2-0.6-0.3-0.9c-0.2-0.6-0.4-1.1-0.5-1.6
				c-0.1-0.2-0.2-0.5-0.3-0.7c-0.1-0.2-0.2-0.4-0.2-0.6c-0.3-0.7-0.5-1.1-0.5-1.1s-0.4,0.3-0.9,0.8c-0.3,0.3-0.6,0.6-1,1
				c-0.4,0.4-0.8,0.9-1.1,1.4c-0.8,1.1-1.6,2.3-2.3,3.9c-0.3,0.8-0.6,1.5-0.8,2.4c-0.1,0.4-0.2,0.9-0.3,1.3c0,0.2-0.1,0.4-0.1,0.7
				C393.6,297.1,393.5,297.3,393.5,297.5"/>
			<path style="clip-path:url(#SVGID_00000075137488329231256530000001481395889213494696_);fill:#231F20;" d="M389,299.4
				c1.1,1.2,2,2.5,2.7,3.8c0.7,1.3,1.2,2.6,1.6,3.8c0.4,1.2,0.6,2.2,0.8,3c0.2,0.7,0.2,1.2,0.2,1.2s-0.4,0.1-1.1,0.1
				c-0.7,0-1.6,0-2.8-0.1c-1.1-0.2-2.4-0.5-3.7-1.1c-1.3-0.6-2.6-1.5-3.8-2.7c-0.3-0.4-0.7-0.7-1-1.1c-0.3-0.4-0.6-0.8-0.9-1.2
				c-0.5-0.8-1-1.6-1.4-2.5c-0.4-0.8-0.8-1.7-1.1-2.5c-0.2-0.4-0.3-0.8-0.4-1.2c-0.1-0.4-0.2-0.8-0.3-1.2c-0.2-0.8-0.4-1.5-0.5-2.1
				c-0.1-0.3-0.1-0.6-0.2-0.9c0-0.3-0.1-0.5-0.1-0.8c-0.1-0.9-0.1-1.5-0.1-1.5s0.5,0.1,1.2,0.3c0.4,0.1,0.8,0.3,1.3,0.5
				c0.5,0.2,1.1,0.4,1.7,0.7c1.2,0.5,2.6,1.2,3.9,2.1c0.7,0.4,1.4,0.9,2,1.5c0.3,0.3,0.7,0.6,1,0.9c0.2,0.2,0.3,0.3,0.5,0.5
				C388.6,299.1,388.8,299.3,389,299.4"/>
			<path style="clip-path:url(#SVGID_00000075137488329231256530000001481395889213494696_);fill:#231F20;" d="M388.9,278.6
				c-0.1,0.4-0.2,0.8-0.3,1.2c-0.1,0.4-0.1,0.8-0.1,1.2c-0.1,0.8-0.1,1.6,0,2.3c0.1,0.7,0.2,1.4,0.3,2.1c0.1,0.3,0.1,0.7,0.2,1
				c0.1,0.3,0.2,0.6,0.3,0.9c0.4,1.1,0.8,2.1,1.1,2.7c0.2,0.3,0.3,0.6,0.4,0.7c0.1,0.2,0.2,0.3,0.2,0.3s0.3-0.3,0.9-0.7
				c0.5-0.5,1.2-1.2,2-2.1c0.8-0.9,1.6-2,2.3-3.2c0.7-1.2,1.4-2.6,1.7-4c0.5-1.7,0.6-3.3,0.7-4.8c0-0.4,0-0.7,0-1.1
				c0-0.4,0-0.7,0-1.1c0-0.7-0.1-1.3-0.2-1.9c0-0.3-0.1-0.6-0.1-0.9c0-0.3-0.1-0.5-0.1-0.8c-0.1-0.5-0.2-0.9-0.3-1.3
				c-0.1-0.4-0.2-0.6-0.2-0.8c-0.1-0.2-0.1-0.3-0.1-0.3s-0.1,0.1-0.3,0.2c-0.2,0.1-0.4,0.3-0.8,0.5c-0.6,0.4-1.5,1.1-2.4,1.9
				c-0.5,0.4-1,0.9-1.5,1.5c-0.5,0.6-0.9,1.2-1.4,1.8c-0.4,0.7-0.9,1.4-1.2,2.2C389.5,276.9,389.2,277.7,388.9,278.6"/>
			<path style="clip-path:url(#SVGID_00000075137488329231256530000001481395889213494696_);fill:#231F20;" d="M384.1,279.5
				c0.2,0.4,0.4,0.7,0.6,1.1c0.2,0.4,0.4,0.7,0.5,1.1c0.3,0.7,0.6,1.5,0.8,2.2c0.2,0.7,0.4,1.4,0.6,2.1c0.1,0.3,0.1,0.7,0.2,1
				c0.1,0.3,0.1,0.6,0.1,1c0.2,1.2,0.3,2.3,0.3,3.1c0,0.4,0,0.7,0,0.9c0,0.2,0,0.3,0,0.3s-0.4,0-1.1-0.1c-0.7-0.1-1.6-0.3-2.7-0.7
				c-1.1-0.4-2.3-1-3.5-1.8c-1.2-0.9-2.3-2-3.3-3.5c-1.1-1.7-1.9-3.5-2.4-5.4c-0.1-0.5-0.3-0.9-0.4-1.4c-0.1-0.2-0.1-0.4-0.2-0.7
				c0-0.2-0.1-0.4-0.1-0.7c-0.2-0.9-0.3-1.7-0.3-2.5c0-0.4-0.1-0.8-0.1-1.1c0-0.4,0-0.7,0-1c0-0.7,0-1.2,0-1.7s0-0.9,0.1-1.1
				c0-0.3,0-0.4,0-0.4s0.1,0,0.3,0.1c0.2,0.1,0.5,0.2,0.8,0.4c0.7,0.4,1.7,1,2.8,1.8c0.5,0.4,1.1,0.8,1.7,1.3c0.6,0.5,1.2,1,1.8,1.6
				c0.6,0.6,1.2,1.2,1.7,1.9C383.1,278,383.6,278.8,384.1,279.5"/>
			<path style="clip-path:url(#SVGID_00000075137488329231256530000001481395889213494696_);fill:#231F20;" d="M387.5,259.1
				c-0.3,0.7-0.6,1.5-0.8,2.3c-0.1,0.4-0.2,0.8-0.2,1.1c-0.1,0.4-0.1,0.7-0.1,1.1c-0.1,0.7-0.1,1.5-0.1,2.1c0,0.7,0.1,1.3,0.2,1.9
				c0.1,0.6,0.2,1.2,0.3,1.6c0.1,0.5,0.3,0.9,0.4,1.3c0.2,0.7,0.4,1.1,0.4,1.1s0.4-0.2,1-0.5c0.6-0.4,1.4-0.9,2.3-1.6
				c0.2-0.2,0.4-0.4,0.7-0.6c0.2-0.2,0.5-0.4,0.7-0.6c0.5-0.4,0.9-0.9,1.4-1.4c0.5-0.5,0.9-1.1,1.3-1.7c0.4-0.6,0.8-1.2,1.1-1.9
				c0.2-0.4,0.3-0.8,0.5-1.2c0.2-0.4,0.3-0.8,0.4-1.1c0.1-0.4,0.2-0.8,0.3-1.1c0.1-0.4,0.2-0.7,0.2-1.1c0.3-1.5,0.4-2.9,0.5-4.1
				c0-0.6,0-1.2,0-1.7c0-0.5,0-1,0-1.3c-0.1-0.7-0.1-1.2-0.1-1.2s-0.4,0.1-1.1,0.4c-0.7,0.3-1.7,0.7-2.7,1.4
				c-1.1,0.7-2.2,1.5-3.3,2.7c-0.6,0.6-1.1,1.2-1.6,1.9C388.4,257.5,387.9,258.3,387.5,259.1"/>
			<path style="clip-path:url(#SVGID_00000075137488329231256530000001481395889213494696_);fill:#231F20;" d="M382.7,259
				c0.3,0.8,0.6,1.6,0.8,2.4c0.1,0.4,0.2,0.8,0.3,1.2c0.1,0.4,0.1,0.8,0.2,1.1c0.1,0.8,0.2,1.5,0.2,2.2c0,0.7,0.1,1.4,0,2
				c0,0.6-0.1,1.2-0.1,1.7c0,0.5-0.1,1-0.1,1.3c-0.1,0.8-0.2,1.2-0.2,1.2s-0.4-0.1-1-0.3c-0.6-0.2-1.5-0.6-2.5-1.2
				c-0.3-0.1-0.5-0.3-0.8-0.5c-0.3-0.2-0.5-0.4-0.8-0.6c-0.5-0.4-1-0.9-1.6-1.4c-0.5-0.5-1-1.2-1.5-1.8c-0.4-0.7-0.9-1.4-1.2-2.3
				c-0.2-0.5-0.4-0.9-0.6-1.4c-0.2-0.5-0.3-1-0.4-1.4c-0.1-0.5-0.2-1-0.3-1.5c-0.1-0.5-0.2-1-0.2-1.4c-0.2-1.9-0.2-3.7-0.1-5.3
				c0.1-0.8,0.1-1.5,0.2-2.2c0.1-0.6,0.2-1.2,0.3-1.7c0.2-0.9,0.3-1.5,0.3-1.5s0.4,0.3,1,0.8s1.5,1.3,2.4,2.3c0.9,1,2,2.2,3,3.6
				c0.5,0.7,1,1.4,1.4,2.2C381.9,257.3,382.3,258.1,382.7,259"/>
			<path style="clip-path:url(#SVGID_00000075137488329231256530000001481395889213494696_);fill:#231F20;" d="M389.4,239.6
				c-0.5,0.7-0.8,1.3-1.2,2c-0.3,0.7-0.5,1.4-0.7,2.1c-0.1,0.4-0.2,0.7-0.3,1.1c-0.1,0.4-0.1,0.7-0.2,1c-0.1,0.7-0.1,1.3-0.1,1.9
				c0,0.6,0,1.2,0,1.7c0,0.5,0.1,0.9,0.1,1.3c0,0.4,0.1,0.7,0.1,0.9c0,0.2,0.1,0.3,0.1,0.3s0.1,0,0.3-0.1c0.2-0.1,0.4-0.1,0.8-0.3
				c0.6-0.2,1.5-0.6,2.5-1.1c0.5-0.3,1-0.6,1.5-0.9c0.3-0.2,0.5-0.3,0.8-0.5c0.3-0.2,0.5-0.4,0.8-0.6c0.5-0.4,1.1-0.9,1.5-1.4
				c0.2-0.3,0.5-0.5,0.7-0.8c0.2-0.3,0.5-0.6,0.7-0.9c1.9-2.7,2.8-5.7,3.3-8.1c0.1-0.6,0.2-1.1,0.3-1.7c0.1-0.5,0.1-0.9,0.2-1.3
				c0.1-0.7,0.1-1.2,0.1-1.2s-0.4,0-1.2,0.2c-0.7,0.1-1.8,0.4-2.9,0.8c-0.6,0.2-1.2,0.5-1.8,0.8c-0.3,0.2-0.6,0.3-1,0.5
				c-0.3,0.2-0.6,0.4-1,0.6c-0.6,0.4-1.3,1-1.9,1.5c-0.3,0.3-0.6,0.6-0.9,0.9C389.9,238.9,389.6,239.2,389.4,239.6"/>
			<path style="clip-path:url(#SVGID_00000075137488329231256530000001481395889213494696_);fill:#231F20;" d="M384.6,238.5
				c0.2,0.8,0.3,1.7,0.4,2.5c0.1,0.8,0.1,1.6,0.1,2.4c0,0.4,0,0.8-0.1,1.1c0,0.4-0.1,0.7-0.1,1.1c-0.1,0.7-0.2,1.4-0.3,2
				c-0.1,0.6-0.2,1.2-0.4,1.7c-0.1,0.5-0.3,0.9-0.4,1.3c-0.1,0.4-0.2,0.6-0.3,0.8c-0.1,0.2-0.1,0.3-0.1,0.3s-0.1,0-0.3-0.1
				c-0.2-0.1-0.4-0.2-0.7-0.4c-0.6-0.4-1.4-0.9-2.3-1.7c-0.4-0.4-0.9-0.9-1.3-1.4c-0.2-0.3-0.5-0.5-0.7-0.8
				c-0.2-0.3-0.4-0.6-0.6-0.9c-0.4-0.6-0.8-1.3-1.1-2.1c-0.2-0.4-0.3-0.8-0.5-1.2c-0.1-0.4-0.3-0.8-0.4-1.3c-0.2-1-0.4-2-0.5-3
				c-0.1-1-0.1-2,0-3c0-0.2,0-0.5,0-0.7c0-0.2,0-0.5,0.1-0.7c0.1-0.5,0.1-0.9,0.2-1.4c0.1-0.4,0.1-0.9,0.2-1.3
				c0-0.2,0.1-0.4,0.1-0.6c0-0.2,0.1-0.4,0.1-0.6c0.2-0.8,0.4-1.5,0.6-2.1c0.2-0.6,0.4-1.2,0.6-1.6c0.4-0.9,0.6-1.4,0.6-1.4
				s0.3,0.4,0.9,1c0.5,0.7,1.2,1.6,2,2.8c0.4,0.6,0.8,1.2,1.2,1.9c0.2,0.3,0.4,0.7,0.6,1.1c0.2,0.4,0.4,0.8,0.6,1.1
				c0.4,0.8,0.7,1.6,1,2.5c0.2,0.4,0.3,0.9,0.4,1.3C384.4,237.6,384.5,238,384.6,238.5"/>
			<path style="clip-path:url(#SVGID_00000075137488329231256530000001481395889213494696_);fill:#231F20;" d="M394.4,220.8
				c-0.3,0.3-0.5,0.6-0.8,0.9c-0.3,0.3-0.5,0.6-0.7,0.9c-0.4,0.6-0.8,1.3-1.1,1.9c-0.3,0.7-0.5,1.3-0.7,2c-0.1,0.3-0.2,0.6-0.3,1
				c-0.1,0.3-0.1,0.6-0.2,0.9c-0.2,1.2-0.3,2.2-0.3,3c0,0.4,0,0.7,0,0.9c0,0.2,0,0.3,0,0.3s0.4,0,1.1-0.1c0.3-0.1,0.7-0.1,1.2-0.2
				c0.5-0.1,1-0.2,1.5-0.4c1.1-0.3,2.2-0.7,3.4-1.3c0.6-0.3,1.2-0.6,1.8-1c0.3-0.2,0.6-0.4,0.8-0.6c0.3-0.2,0.5-0.5,0.8-0.7
				c0.6-0.6,1.1-1.2,1.6-1.8c0.1-0.2,0.2-0.3,0.3-0.5c0.1-0.2,0.2-0.3,0.3-0.5c0.2-0.3,0.4-0.6,0.6-0.9c0.2-0.3,0.4-0.6,0.5-0.9
				c0.2-0.3,0.3-0.6,0.5-0.9c0.3-0.6,0.5-1.2,0.7-1.8c0.1-0.3,0.2-0.6,0.3-0.8c0.1-0.3,0.2-0.5,0.3-0.7c0.2-0.5,0.3-0.9,0.4-1.3
				c0.1-0.4,0.2-0.6,0.2-0.8c0-0.2,0.1-0.3,0.1-0.3s-0.4-0.1-1.2-0.1c-0.2,0-0.4,0-0.6,0c-0.2,0-0.5,0-0.7,0c-0.5,0-1.1,0.1-1.7,0.2
				c-1.2,0.2-2.6,0.5-4,1.1c-0.7,0.3-1.4,0.7-2.1,1.1C395.7,219.7,395,220.2,394.4,220.8"/>
			<path style="clip-path:url(#SVGID_00000075137488329231256530000001481395889213494696_);fill:#231F20;" d="M389.9,218.8
				c0,0.4,0,0.9,0,1.3c0,0.4,0,0.8,0,1.2c-0.1,0.8-0.2,1.6-0.3,2.3c-0.1,0.7-0.3,1.5-0.5,2.1c-0.1,0.3-0.2,0.7-0.3,1
				c-0.1,0.3-0.2,0.6-0.3,0.9c-0.4,1.2-0.9,2.1-1.2,2.8c-0.2,0.3-0.3,0.6-0.4,0.8c-0.1,0.2-0.2,0.3-0.2,0.3s-0.3-0.2-0.9-0.7
				c-0.3-0.2-0.6-0.5-0.9-0.9c-0.3-0.4-0.7-0.8-1-1.3c-0.7-1-1.5-2.2-2.1-3.6c-0.3-0.7-0.6-1.5-0.8-2.3c-0.1-0.4-0.2-0.8-0.3-1.3
				c-0.1-0.4-0.1-0.9-0.2-1.4c-0.1-1,0-2.1,0-3.1c0-0.3,0-0.5,0.1-0.8c0-0.2,0.1-0.5,0.1-0.7c0.1-0.5,0.2-1,0.3-1.4
				c0.1-0.5,0.2-0.9,0.3-1.4c0.1-0.4,0.3-0.9,0.4-1.3c0.3-0.8,0.6-1.6,0.9-2.3c0.1-0.4,0.3-0.7,0.5-1c0.2-0.3,0.3-0.6,0.5-0.9
				c0.3-0.6,0.6-1,0.8-1.4c0.2-0.4,0.4-0.7,0.6-0.9c0.1-0.2,0.2-0.3,0.2-0.3s0.3,0.4,0.7,1.2c0.1,0.2,0.2,0.4,0.3,0.6
				c0.1,0.2,0.2,0.5,0.4,0.7c0.3,0.5,0.5,1.1,0.8,1.8c0.6,1.3,1.1,2.9,1.6,4.6c0.2,0.9,0.4,1.7,0.6,2.6
				C389.7,216.9,389.8,217.8,389.9,218.8"/>
			<path style="clip-path:url(#SVGID_00000075137488329231256530000001481395889213494696_);fill:#231F20;" d="M406,194.2
				c0,0-0.4,0.1-1.2,0.3c-0.4,0.1-0.8,0.3-1.3,0.5c-0.2,0.1-0.5,0.2-0.8,0.3c-0.1,0.1-0.3,0.1-0.4,0.2c-0.1,0.1-0.3,0.1-0.4,0.2
				c-0.6,0.3-1.2,0.7-1.8,1.1c-0.3,0.2-0.6,0.4-0.9,0.7c-0.3,0.3-0.6,0.5-0.9,0.8c-0.3,0.3-0.6,0.6-0.9,0.9c-0.3,0.3-0.6,0.6-0.9,1
				c-0.6,0.7-1.1,1.5-1.5,2.3c-0.2,0.4-0.4,0.8-0.6,1.1c-0.2,0.4-0.3,0.8-0.4,1.2c-0.1,0.4-0.2,0.8-0.3,1.2
				c-0.1,0.4-0.2,0.8-0.2,1.2c-0.3,1.5-0.3,3-0.2,4.2c0.1,1.3,0.3,2.3,0.4,3c0.2,0.7,0.3,1.2,0.3,1.2s0.4-0.1,1-0.4
				c0.6-0.3,1.5-0.7,2.4-1.4c0.2-0.2,0.5-0.3,0.7-0.5c0.1-0.1,0.2-0.2,0.4-0.3c0.1-0.1,0.2-0.2,0.4-0.3c0.5-0.4,1-0.8,1.5-1.3
				c0.2-0.2,0.5-0.5,0.7-0.8c0.2-0.3,0.5-0.5,0.7-0.8c0.5-0.6,0.9-1.2,1.2-1.9c0.4-0.8,0.8-1.5,1.1-2.3c0.1-0.2,0.1-0.4,0.2-0.6
				c0.1-0.2,0.1-0.4,0.2-0.6c0.1-0.4,0.3-0.8,0.4-1.2c0.1-0.4,0.2-0.8,0.3-1.2c0.1-0.4,0.2-0.8,0.2-1.1c0.1-0.7,0.3-1.5,0.3-2.2
				c0.1-0.7,0.2-1.3,0.2-1.9c0.1-0.6,0.1-1.1,0.1-1.5C406,194.7,406,194.2,406,194.2"/>
			<path style="clip-path:url(#SVGID_00000075137488329231256530000001481395889213494696_);fill:#231F20;" d="M503.5,362
				c-0.3,0.3-0.5,0.6-0.8,0.8c-0.3,0.2-0.6,0.5-0.9,0.7c-0.3,0.2-0.6,0.4-0.9,0.6c-0.3,0.2-0.6,0.3-0.9,0.5c-1.2,0.6-2.5,0.8-3.5,1
				c-1.1,0.1-2,0.1-2.7,0.1c-0.7-0.1-1-0.1-1-0.1s0.1-0.5,0.2-1.2c0.1-0.4,0.2-0.8,0.3-1.3c0.1-0.5,0.3-1,0.5-1.6
				c0.4-1.2,0.9-2.4,1.5-3.7c0.3-0.6,0.7-1.3,1.1-1.8c0.1-0.1,0.2-0.3,0.3-0.4c0.1-0.1,0.2-0.3,0.3-0.4c0.2-0.3,0.5-0.6,0.7-0.8
				c0.3-0.3,0.6-0.6,0.9-0.8c0.3-0.3,0.6-0.5,0.9-0.7c0.3-0.2,0.6-0.4,0.9-0.6c0.3-0.2,0.6-0.4,0.9-0.6c0.3-0.2,0.6-0.3,0.9-0.5
				c0.3-0.2,0.6-0.3,0.9-0.4c0.3-0.1,0.6-0.3,0.8-0.4c0.3-0.1,0.5-0.2,0.8-0.3c0.5-0.2,1-0.3,1.4-0.5c0.4-0.1,0.8-0.2,1.2-0.3
				c0.3-0.1,0.6-0.1,0.8-0.1c0.2,0,0.3,0,0.3,0s0,0.5-0.1,1.3c-0.1,0.8-0.2,2-0.5,3.3c-0.1,0.3-0.1,0.7-0.2,1
				c-0.1,0.4-0.2,0.7-0.3,1.1c-0.2,0.7-0.5,1.5-0.8,2.2C505.7,359.3,504.8,360.8,503.5,362"/>
			<path style="clip-path:url(#SVGID_00000075137488329231256530000001481395889213494696_);fill:#231F20;" d="M504.9,367.3
				c-0.4-0.1-0.8-0.1-1.1-0.2c-0.4,0-0.7-0.1-1.1-0.1c-0.4,0-0.7,0-1.1,0c-0.4,0-0.7,0.1-1,0.1c-1.3,0.2-2.6,0.5-3.6,0.9
				c-1.1,0.4-1.9,0.8-2.6,1.1c-0.6,0.3-1,0.5-1,0.5s0.2,0.4,0.6,1c0.2,0.3,0.4,0.7,0.7,1.1c0.3,0.4,0.6,0.9,1,1.3
				c0.8,0.9,1.8,1.9,3,2.7c0.6,0.4,1.3,0.8,2,1.1c0.2,0.1,0.4,0.2,0.5,0.2c0.2,0.1,0.4,0.1,0.6,0.2c0.4,0.1,0.8,0.2,1.2,0.3
				c0.5,0.1,0.9,0.2,1.4,0.2c0.5,0,0.9,0.1,1.4,0.1c0.4,0,0.9,0,1.3,0c0.4,0,0.9-0.1,1.3-0.2c0.4-0.1,0.8-0.1,1.3-0.2
				c0.4-0.1,0.8-0.2,1.2-0.3c0.4-0.1,0.8-0.2,1.1-0.4c0.4-0.1,0.7-0.3,1-0.4c0.7-0.3,1.3-0.6,1.8-0.8c0.5-0.3,1-0.5,1.4-0.8
				c0.4-0.2,0.7-0.4,0.9-0.6c0.2-0.1,0.3-0.2,0.3-0.2s-0.3-0.3-1-0.9c-0.6-0.5-1.5-1.3-2.6-2c-0.3-0.2-0.6-0.4-0.9-0.6
				c-0.3-0.2-0.6-0.4-0.9-0.6c-0.7-0.4-1.3-0.7-2.1-1.1C508.2,368.2,506.6,367.6,504.9,367.3"/>
			<path style="clip-path:url(#SVGID_00000075137488329231256530000001481395889213494696_);fill:#231F20;" d="M519.8,354.8
				c-0.4,0.7-0.9,1.3-1.4,1.8c-0.3,0.3-0.5,0.5-0.8,0.7c-0.3,0.2-0.6,0.4-0.8,0.6c-0.6,0.4-1.1,0.7-1.7,1c-0.6,0.3-1.1,0.5-1.6,0.7
				c-0.5,0.2-1,0.3-1.4,0.4c-0.4,0.1-0.8,0.2-1.2,0.2c-0.7,0.1-1,0.1-1,0.1s0-0.5,0-1.2c0-0.8,0.1-1.8,0.3-3
				c0.2-1.2,0.4-2.6,0.9-3.9c0.1-0.2,0.1-0.3,0.2-0.5c0.1-0.2,0.1-0.3,0.2-0.5c0.1-0.3,0.3-0.7,0.4-1c0.3-0.7,0.7-1.3,1.1-2
				c0.5-0.7,0.9-1.3,1.4-1.9c0.5-0.6,1-1.1,1.5-1.6c1.1-0.9,2.1-1.7,3.1-2.3c0.5-0.3,0.9-0.5,1.3-0.8c0.2-0.1,0.4-0.2,0.6-0.3
				c0.2-0.1,0.3-0.2,0.5-0.2c0.6-0.3,1-0.4,1-0.4s0.1,0.5,0.2,1.3c0.1,0.8,0.1,2,0.1,3.4c0,0.7-0.1,1.4-0.2,2.2
				c-0.1,0.8-0.2,1.6-0.5,2.4c-0.2,0.8-0.5,1.6-0.8,2.4C520.7,353.2,520.2,354,519.8,354.8"/>
			<path style="clip-path:url(#SVGID_00000075137488329231256530000001481395889213494696_);fill:#231F20;" d="M522,359.6
				c-0.8,0-1.5,0.1-2.2,0.2c-0.4,0.1-0.7,0.2-1,0.2c-0.3,0.1-0.7,0.2-1,0.3c-0.6,0.2-1.3,0.5-1.8,0.8c-0.6,0.3-1.1,0.6-1.6,0.9
				c-0.5,0.3-0.9,0.6-1.3,0.9c-0.4,0.3-0.7,0.5-1,0.7c-0.6,0.4-0.9,0.7-0.9,0.7s0.3,0.4,0.7,0.9c0.5,0.5,1.2,1.3,2.1,2
				c0.9,0.7,2,1.5,3.4,2c0.2,0.1,0.3,0.1,0.5,0.2c0.2,0.1,0.3,0.1,0.5,0.2c0.4,0.1,0.7,0.2,1.1,0.3c0.7,0.2,1.5,0.3,2.4,0.2
				c0.9,0,1.8-0.1,2.7-0.3c0.9-0.2,1.7-0.4,2.6-0.7c1.6-0.6,3.1-1.4,4.3-2.2c0.6-0.4,1.1-0.8,1.6-1.2c0.2-0.2,0.5-0.4,0.7-0.5
				c0.2-0.2,0.4-0.3,0.5-0.5c0.7-0.6,1-1,1-1s-0.4-0.3-1.1-0.7c-0.7-0.4-1.7-0.9-2.9-1.4c-0.6-0.3-1.3-0.5-2-0.8
				c-0.7-0.2-1.4-0.4-2.2-0.6c-0.8-0.2-1.6-0.3-2.4-0.4C523.7,359.7,522.8,359.6,522,359.6"/>
			<path style="clip-path:url(#SVGID_00000075137488329231256530000001481395889213494696_);fill:#231F20;" d="M534.5,344.3
				c-0.3,0.7-0.7,1.4-1.1,2.1c-0.4,0.6-0.9,1.2-1.4,1.7c-0.5,0.5-1,0.9-1.5,1.3c-0.1,0.1-0.3,0.2-0.4,0.3c-0.1,0.1-0.3,0.2-0.4,0.3
				c-0.3,0.2-0.5,0.3-0.7,0.5c-1,0.6-1.8,0.9-2.5,1.1c-0.3,0.1-0.6,0.2-0.7,0.2c-0.2,0-0.3,0.1-0.3,0.1s-0.1-0.4-0.2-1.2
				c-0.1-0.8-0.2-1.8-0.2-3c0-0.6,0-1.3,0-1.9c0-0.7,0.1-1.4,0.2-2.1c0.2-1.4,0.6-2.9,1.2-4.3c0.3-0.8,0.7-1.5,1.1-2.2
				c0.4-0.7,0.8-1.3,1.3-1.9c0.4-0.6,0.9-1.1,1.3-1.6c0.4-0.5,0.9-0.9,1.3-1.3c0.2-0.2,0.4-0.4,0.6-0.5c0.2-0.2,0.4-0.3,0.6-0.5
				c0.4-0.3,0.7-0.5,1-0.7c0.6-0.4,0.9-0.6,0.9-0.6s0.2,0.5,0.4,1.3c0.2,0.8,0.5,1.9,0.6,3.3c0.1,0.7,0.1,1.4,0.2,2.2
				c0,0.8,0,1.6-0.1,2.4c-0.1,0.8-0.2,1.7-0.4,2.5c-0.1,0.4-0.2,0.9-0.4,1.3c-0.1,0.2-0.1,0.4-0.2,0.6
				C534.7,343.9,534.6,344.1,534.5,344.3"/>
			<path style="clip-path:url(#SVGID_00000075137488329231256530000001481395889213494696_);fill:#231F20;" d="M537.5,348.6
				c-0.8,0.2-1.5,0.4-2.2,0.7c-0.7,0.3-1.3,0.6-1.9,1c-0.6,0.3-1.2,0.7-1.7,1.1c-0.1,0.1-0.3,0.2-0.4,0.3c-0.1,0.1-0.2,0.2-0.4,0.3
				c-0.2,0.2-0.5,0.4-0.7,0.6c-0.9,0.8-1.6,1.5-2,2.1c-0.2,0.3-0.4,0.5-0.5,0.7c-0.1,0.2-0.2,0.2-0.2,0.2s0.3,0.3,0.9,0.7
				c0.6,0.4,1.4,1,2.4,1.5c0.5,0.3,1.1,0.5,1.7,0.7c0.6,0.2,1.3,0.4,2,0.5c1.4,0.3,2.9,0.3,4.6,0c0.9-0.2,1.8-0.5,2.6-0.9
				c0.8-0.4,1.6-0.8,2.4-1.3c0.7-0.5,1.4-1,2.1-1.5c0.6-0.5,1.2-1.1,1.8-1.6c0.1-0.1,0.3-0.3,0.4-0.4c0.1-0.1,0.2-0.3,0.4-0.4
				c0.2-0.3,0.4-0.5,0.7-0.7c0.4-0.5,0.8-0.9,1-1.3c0.5-0.7,0.8-1.2,0.8-1.2s-0.4-0.2-1.2-0.4c-0.8-0.2-1.8-0.5-3.1-0.8
				c-0.6-0.1-1.3-0.2-2.1-0.3c-0.7-0.1-1.5-0.2-2.3-0.2c-0.8,0-1.6,0-2.4,0.1c-0.4,0-0.8,0.1-1.3,0.2c-0.2,0-0.4,0.1-0.6,0.1
				C537.9,348.5,537.7,348.6,537.5,348.6"/>
			<path style="clip-path:url(#SVGID_00000075137488329231256530000001481395889213494696_);fill:#231F20;" d="M547.3,330.9
				c-0.8,3.2-2.7,5.6-4.4,7.1c-0.9,0.7-1.7,1.3-2.2,1.6c-0.6,0.3-1,0.5-1,0.5s-0.2-0.4-0.4-1.1c-0.2-0.7-0.5-1.7-0.7-2.9
				c-0.1-0.6-0.2-1.2-0.3-1.9c-0.1-0.7-0.1-1.4-0.2-2.1c0-0.7,0-1.5,0.1-2.2c0.1-0.7,0.2-1.5,0.4-2.3c0.2-0.8,0.4-1.6,0.7-2.4
				c0.3-0.7,0.6-1.4,0.9-2.1c0.2-0.3,0.3-0.6,0.5-0.9c0.2-0.3,0.3-0.6,0.5-0.9c0.2-0.3,0.4-0.5,0.5-0.8c0.2-0.3,0.4-0.5,0.5-0.7
				c0.3-0.5,0.7-0.9,1-1.2c0.3-0.4,0.6-0.7,0.8-0.9c0.2-0.3,0.4-0.4,0.6-0.6c0.1-0.1,0.2-0.2,0.2-0.2s0.1,0.1,0.2,0.3
				c0.1,0.2,0.3,0.5,0.4,0.9c0.3,0.7,0.8,1.8,1.2,3.1c0.1,0.3,0.2,0.7,0.3,1c0.1,0.4,0.2,0.7,0.2,1.1c0.1,0.8,0.3,1.6,0.3,2.4
				C547.8,327.3,547.7,329.1,547.3,330.9"/>
			<path style="clip-path:url(#SVGID_00000075137488329231256530000001481395889213494696_);fill:#231F20;" d="M550.9,334.6
				c-2.9,1.3-4.9,3.5-6.4,5.4c-0.7,0.9-1.3,1.8-1.7,2.4c-0.4,0.6-0.6,1-0.6,1s0.3,0.2,1,0.5c0.6,0.3,1.5,0.7,2.6,1
				c0.5,0.2,1.1,0.3,1.8,0.4c0.6,0.1,1.3,0.1,2,0.1c0.7,0,1.4-0.1,2.2-0.2c0.8-0.2,1.5-0.4,2.3-0.7c0.9-0.4,1.7-0.9,2.4-1.4
				c0.8-0.5,1.5-1.1,2.1-1.7c0.3-0.3,0.7-0.6,1-0.9c0.3-0.3,0.6-0.6,0.9-1c0.3-0.3,0.5-0.6,0.8-1c0.2-0.3,0.5-0.6,0.7-1
				c0.4-0.6,0.8-1.2,1.1-1.8c0.3-0.6,0.6-1,0.8-1.5c0.2-0.4,0.4-0.7,0.5-1c0.1-0.2,0.2-0.4,0.2-0.4s-0.1,0-0.3-0.1
				c-0.2,0-0.5-0.1-0.9-0.1c-0.8-0.1-1.9-0.2-3.2-0.1c-0.3,0-0.7,0-1,0c-0.3,0-0.7,0-1.1,0.1c-0.7,0.1-1.5,0.2-2.3,0.3
				C554.1,333.4,552.5,333.8,550.9,334.6"/>
			<path style="clip-path:url(#SVGID_00000075137488329231256530000001481395889213494696_);fill:#231F20;" d="M557.6,315.2
				c-0.2,3.3-1.7,6.1-3.1,7.9c-0.4,0.5-0.7,0.9-1,1.2c-0.3,0.3-0.6,0.6-0.9,0.9c-0.5,0.5-0.8,0.7-0.8,0.7s-0.2-0.4-0.6-1
				c-0.3-0.7-0.8-1.6-1.2-2.7c-0.1-0.3-0.2-0.6-0.3-0.9c-0.1-0.3-0.2-0.6-0.3-0.9c-0.2-0.6-0.4-1.3-0.5-2c-0.1-0.7-0.2-1.4-0.3-2.2
				c0-0.4,0-0.8,0-1.1c0-0.2,0-0.4,0-0.6c0-0.2,0-0.4,0-0.6c0.2-3.5,1.4-6.3,2.4-8.5c0.1-0.3,0.3-0.5,0.4-0.8
				c0.1-0.2,0.3-0.5,0.4-0.7c0.2-0.4,0.5-0.8,0.7-1.1c0.4-0.6,0.6-0.9,0.6-0.9s0.3,0.4,0.8,1c0.2,0.3,0.5,0.7,0.8,1.2
				c0.3,0.5,0.6,1,0.9,1.6c0.3,0.6,0.6,1.3,0.9,2c0.3,0.7,0.5,1.5,0.7,2.3C557.5,311.5,557.8,313.3,557.6,315.2"/>
			<path style="clip-path:url(#SVGID_00000075137488329231256530000001481395889213494696_);fill:#231F20;" d="M561.8,318
				c-2.6,1.9-4.3,4.5-5.4,6.6c-0.3,0.5-0.5,1.1-0.7,1.5c-0.2,0.5-0.4,0.9-0.5,1.2c-0.3,0.7-0.4,1.1-0.4,1.1s0.4,0.2,1,0.3
				c0.7,0.2,1.6,0.4,2.7,0.5c0.3,0,0.6,0,0.9,0c0.3,0,0.6,0,0.9,0c0.6,0,1.3-0.1,2-0.3c0.7-0.2,1.4-0.4,2.1-0.7
				c0.4-0.2,0.7-0.3,1.1-0.5c0.2-0.1,0.4-0.2,0.5-0.3c0.2-0.1,0.3-0.2,0.5-0.4c3.1-2.2,5.3-5.6,6.6-8.5c0.1-0.2,0.2-0.3,0.2-0.5
				c0.1-0.2,0.1-0.3,0.2-0.5c0.1-0.3,0.3-0.7,0.4-1c0.2-0.6,0.4-1.1,0.5-1.6c0.3-0.9,0.4-1.5,0.4-1.5s-0.5,0-1.2,0.1
				c-0.4,0-0.9,0.1-1.4,0.2c-0.5,0.1-1.1,0.2-1.8,0.3c-0.6,0.1-1.3,0.3-2,0.5c-0.7,0.2-1.4,0.5-2.2,0.8
				C564.8,316.1,563.3,316.9,561.8,318"/>
			<path style="clip-path:url(#SVGID_00000075137488329231256530000001481395889213494696_);fill:#231F20;" d="M565.2,297.5
				c0.1,1.6,0,3.3-0.3,4.7c-0.3,1.4-0.9,2.7-1.4,3.8c-0.6,1-1.1,1.9-1.6,2.4c-0.4,0.6-0.7,0.9-0.7,0.9s-0.3-0.3-0.7-0.9
				c-0.4-0.6-1-1.4-1.6-2.4c-0.6-1-1.2-2.2-1.7-3.6c-0.5-1.3-0.9-2.8-1.1-4.3c0-0.4-0.1-0.9-0.1-1.3c0-0.4,0-0.8,0-1.2
				c0-0.8,0.1-1.6,0.2-2.3c0.1-0.7,0.2-1.5,0.4-2.1c0.1-0.3,0.2-0.7,0.3-1c0.1-0.3,0.2-0.6,0.3-0.9c0.2-0.6,0.4-1.1,0.5-1.6
				c0.1-0.2,0.2-0.5,0.3-0.7c0.1-0.2,0.2-0.4,0.2-0.6c0.3-0.7,0.5-1.1,0.5-1.1s0.4,0.3,0.9,0.8c0.3,0.3,0.6,0.6,1,1
				c0.4,0.4,0.8,0.9,1.1,1.4c0.8,1.1,1.6,2.3,2.3,3.9c0.3,0.8,0.6,1.5,0.8,2.4c0.1,0.4,0.2,0.9,0.3,1.3c0,0.2,0.1,0.4,0.1,0.7
				C565.2,297.1,565.2,297.3,565.2,297.5"/>
			<path style="clip-path:url(#SVGID_00000075137488329231256530000001481395889213494696_);fill:#231F20;" d="M569.8,299.4
				c-1.1,1.2-2,2.5-2.7,3.8c-0.7,1.3-1.2,2.6-1.6,3.8c-0.4,1.2-0.6,2.2-0.8,3c-0.2,0.7-0.2,1.2-0.2,1.2s0.4,0.1,1.1,0.1
				c0.7,0,1.6,0,2.8-0.1c1.1-0.2,2.4-0.5,3.7-1.1c1.3-0.6,2.6-1.5,3.8-2.7c0.3-0.4,0.7-0.7,1-1.1c0.3-0.4,0.6-0.8,0.9-1.2
				c0.5-0.8,1-1.6,1.4-2.5c0.4-0.8,0.8-1.7,1.1-2.5c0.2-0.4,0.3-0.8,0.4-1.2c0.1-0.4,0.2-0.8,0.3-1.2c0.2-0.8,0.4-1.5,0.5-2.1
				c0.1-0.3,0.1-0.6,0.2-0.9c0-0.3,0.1-0.5,0.1-0.8c0.1-0.9,0.1-1.5,0.1-1.5s-0.5,0.1-1.2,0.3c-0.4,0.1-0.8,0.3-1.3,0.5
				c-0.5,0.2-1.1,0.4-1.7,0.7c-1.2,0.5-2.6,1.2-3.9,2.1c-0.7,0.4-1.4,0.9-2,1.5c-0.3,0.3-0.7,0.6-1,0.9c-0.2,0.2-0.3,0.3-0.5,0.5
				C570.1,299.1,569.9,299.3,569.8,299.4"/>
			<path style="clip-path:url(#SVGID_00000075137488329231256530000001481395889213494696_);fill:#231F20;" d="M569.8,278.6
				c0.1,0.4,0.2,0.8,0.3,1.2c0.1,0.4,0.1,0.8,0.1,1.2c0.1,0.8,0.1,1.6,0,2.3c-0.1,0.7-0.2,1.4-0.3,2.1c-0.1,0.3-0.1,0.7-0.2,1
				c-0.1,0.3-0.2,0.6-0.3,0.9c-0.4,1.1-0.8,2.1-1.1,2.7c-0.2,0.3-0.3,0.6-0.4,0.7c-0.1,0.2-0.2,0.3-0.2,0.3s-0.3-0.3-0.9-0.7
				c-0.5-0.5-1.2-1.2-2-2.1c-0.8-0.9-1.6-2-2.3-3.2c-0.7-1.2-1.4-2.6-1.7-4c-0.5-1.7-0.6-3.3-0.7-4.8c0-0.4,0-0.7,0-1.1
				c0-0.4,0-0.7,0-1.1c0-0.7,0.1-1.3,0.2-1.9c0-0.3,0.1-0.6,0.1-0.9c0-0.3,0.1-0.5,0.1-0.8c0.1-0.5,0.2-0.9,0.3-1.3
				c0.1-0.4,0.2-0.6,0.2-0.8c0.1-0.2,0.1-0.3,0.1-0.3s0.1,0.1,0.3,0.2c0.2,0.1,0.4,0.3,0.8,0.5c0.6,0.4,1.5,1.1,2.4,1.9
				c0.5,0.4,1,0.9,1.5,1.5c0.5,0.6,0.9,1.2,1.4,1.8c0.4,0.7,0.9,1.4,1.2,2.2C569.3,276.9,569.6,277.7,569.8,278.6"/>
			<path style="clip-path:url(#SVGID_00000075137488329231256530000001481395889213494696_);fill:#231F20;" d="M574.6,279.5
				c-0.2,0.4-0.4,0.7-0.6,1.1c-0.2,0.4-0.4,0.7-0.5,1.1c-0.3,0.7-0.6,1.5-0.8,2.2c-0.2,0.7-0.4,1.4-0.6,2.1c-0.1,0.3-0.1,0.7-0.2,1
				c-0.1,0.3-0.1,0.6-0.1,1c-0.2,1.2-0.3,2.3-0.3,3.1c0,0.4,0,0.7,0,0.9c0,0.2,0,0.3,0,0.3s0.4,0,1.1-0.1c0.7-0.1,1.6-0.3,2.7-0.7
				c1.1-0.4,2.3-1,3.5-1.8c1.2-0.9,2.3-2,3.3-3.5c1.1-1.7,1.9-3.5,2.4-5.4c0.1-0.5,0.3-0.9,0.4-1.4c0.1-0.2,0.1-0.4,0.2-0.7
				c0-0.2,0.1-0.4,0.1-0.7c0.2-0.9,0.3-1.7,0.3-2.5c0-0.4,0.1-0.8,0.1-1.1c0-0.4,0-0.7,0-1c0-0.7,0-1.2,0-1.7c0-0.5,0-0.9-0.1-1.1
				c0-0.3,0-0.4,0-0.4s-0.1,0-0.3,0.1c-0.2,0.1-0.5,0.2-0.8,0.4c-0.7,0.4-1.7,1-2.8,1.8c-0.5,0.4-1.1,0.8-1.7,1.3
				c-0.6,0.5-1.2,1-1.8,1.6c-0.6,0.6-1.2,1.2-1.7,1.9C575.7,278,575.1,278.8,574.6,279.5"/>
			<path style="clip-path:url(#SVGID_00000075137488329231256530000001481395889213494696_);fill:#231F20;" d="M571.2,259.1
				c0.3,0.7,0.6,1.5,0.8,2.3c0.1,0.4,0.2,0.8,0.2,1.1c0.1,0.4,0.1,0.7,0.1,1.1c0.1,0.7,0.1,1.5,0.1,2.1c0,0.7-0.1,1.3-0.2,1.9
				c-0.1,0.6-0.2,1.2-0.3,1.6c-0.1,0.5-0.3,0.9-0.4,1.3c-0.2,0.7-0.4,1.1-0.4,1.1s-0.4-0.2-1-0.5c-0.6-0.4-1.4-0.9-2.3-1.6
				c-0.2-0.2-0.4-0.4-0.7-0.6c-0.2-0.2-0.5-0.4-0.7-0.6c-0.5-0.4-0.9-0.9-1.4-1.4c-0.5-0.5-0.9-1.1-1.3-1.7
				c-0.4-0.6-0.8-1.2-1.1-1.9c-0.2-0.4-0.3-0.8-0.5-1.2c-0.2-0.4-0.3-0.8-0.4-1.1c-0.1-0.4-0.2-0.8-0.3-1.1
				c-0.1-0.4-0.2-0.7-0.2-1.1c-0.3-1.5-0.4-2.9-0.5-4.1c0-0.6,0-1.2,0-1.7c0-0.5,0-1,0-1.3c0.1-0.7,0.1-1.2,0.1-1.2s0.4,0.1,1.1,0.4
				c0.7,0.3,1.7,0.7,2.7,1.4c1.1,0.7,2.2,1.5,3.3,2.7c0.6,0.6,1.1,1.2,1.6,1.9C570.4,257.5,570.8,258.3,571.2,259.1"/>
			<path style="clip-path:url(#SVGID_00000075137488329231256530000001481395889213494696_);fill:#231F20;" d="M576.1,259
				c-0.3,0.8-0.6,1.6-0.8,2.4c-0.1,0.4-0.2,0.8-0.3,1.2c-0.1,0.4-0.1,0.8-0.2,1.1c-0.1,0.8-0.2,1.5-0.2,2.2c0,0.7-0.1,1.4,0,2
				c0,0.6,0.1,1.2,0.1,1.7c0,0.5,0.1,1,0.1,1.3c0.1,0.8,0.2,1.2,0.2,1.2s0.4-0.1,1-0.3c0.6-0.2,1.5-0.6,2.5-1.2
				c0.3-0.1,0.5-0.3,0.8-0.5c0.3-0.2,0.5-0.4,0.8-0.6c0.5-0.4,1-0.9,1.6-1.4c0.5-0.5,1-1.2,1.5-1.8c0.4-0.7,0.9-1.4,1.2-2.3
				c0.2-0.5,0.4-0.9,0.6-1.4c0.2-0.5,0.3-1,0.4-1.4c0.1-0.5,0.2-1,0.3-1.5c0.1-0.5,0.2-1,0.2-1.4c0.2-1.9,0.2-3.7,0.1-5.3
				c-0.1-0.8-0.1-1.5-0.2-2.2c-0.1-0.6-0.2-1.2-0.3-1.7c-0.2-0.9-0.3-1.5-0.3-1.5s-0.4,0.3-1,0.8s-1.5,1.3-2.4,2.3
				c-0.9,1-2,2.2-3,3.6c-0.5,0.7-1,1.4-1.4,2.2C576.8,257.3,576.4,258.1,576.1,259"/>
			<path style="clip-path:url(#SVGID_00000075137488329231256530000001481395889213494696_);fill:#231F20;" d="M569.4,239.6
				c0.5,0.7,0.8,1.3,1.2,2c0.3,0.7,0.5,1.4,0.7,2.1c0.1,0.4,0.2,0.7,0.3,1.1c0.1,0.4,0.1,0.7,0.2,1c0.1,0.7,0.1,1.3,0.1,1.9
				c0,0.6,0,1.2,0,1.7c0,0.5-0.1,0.9-0.1,1.3c0,0.4-0.1,0.7-0.1,0.9c0,0.2-0.1,0.3-0.1,0.3s-0.1,0-0.3-0.1c-0.2-0.1-0.4-0.1-0.8-0.3
				c-0.6-0.2-1.5-0.6-2.5-1.1c-0.5-0.3-1-0.6-1.5-0.9c-0.3-0.2-0.5-0.3-0.8-0.5c-0.3-0.2-0.5-0.4-0.8-0.6c-0.5-0.4-1.1-0.9-1.5-1.4
				c-0.2-0.3-0.5-0.5-0.7-0.8c-0.2-0.3-0.5-0.6-0.7-0.9c-1.9-2.7-2.8-5.7-3.3-8.1c-0.1-0.6-0.2-1.1-0.3-1.7
				c-0.1-0.5-0.1-0.9-0.2-1.3c-0.1-0.7-0.1-1.2-0.1-1.2s0.4,0,1.2,0.2c0.7,0.1,1.8,0.4,2.9,0.8c0.6,0.2,1.2,0.5,1.8,0.8
				c0.3,0.2,0.6,0.3,1,0.5c0.3,0.2,0.6,0.4,1,0.6c0.6,0.4,1.3,1,1.9,1.5c0.3,0.3,0.6,0.6,0.9,0.9
				C568.8,238.9,569.1,239.2,569.4,239.6"/>
			<path style="clip-path:url(#SVGID_00000075137488329231256530000001481395889213494696_);fill:#231F20;" d="M574.1,238.5
				c-0.2,0.8-0.3,1.7-0.4,2.5c-0.1,0.8-0.1,1.6-0.1,2.4c0,0.4,0,0.8,0.1,1.1c0,0.4,0.1,0.7,0.1,1.1c0.1,0.7,0.2,1.4,0.3,2
				c0.1,0.6,0.2,1.2,0.4,1.7c0.1,0.5,0.3,0.9,0.4,1.3c0.1,0.4,0.2,0.6,0.3,0.8c0.1,0.2,0.1,0.3,0.1,0.3s0.1,0,0.3-0.1
				c0.2-0.1,0.4-0.2,0.7-0.4c0.6-0.4,1.4-0.9,2.3-1.7c0.4-0.4,0.9-0.9,1.3-1.4c0.2-0.3,0.5-0.5,0.7-0.8c0.2-0.3,0.4-0.6,0.6-0.9
				c0.4-0.6,0.8-1.3,1.1-2.1c0.2-0.4,0.3-0.8,0.5-1.2c0.1-0.4,0.3-0.8,0.4-1.3c0.2-1,0.4-2,0.5-3c0.1-1,0.1-2,0-3c0-0.2,0-0.5,0-0.7
				c0-0.2,0-0.5-0.1-0.7c-0.1-0.5-0.1-0.9-0.2-1.4c-0.1-0.4-0.1-0.9-0.2-1.3c0-0.2-0.1-0.4-0.1-0.6c0-0.2-0.1-0.4-0.1-0.6
				c-0.2-0.8-0.4-1.5-0.6-2.1c-0.2-0.6-0.4-1.2-0.6-1.6c-0.4-0.9-0.6-1.4-0.6-1.4s-0.3,0.4-0.9,1c-0.5,0.7-1.2,1.6-2,2.8
				c-0.4,0.6-0.8,1.2-1.2,1.9c-0.2,0.3-0.4,0.7-0.6,1.1c-0.2,0.4-0.4,0.8-0.6,1.1c-0.4,0.8-0.7,1.6-1,2.5c-0.2,0.4-0.3,0.9-0.4,1.3
				C574.4,237.6,574.2,238,574.1,238.5"/>
			<path style="clip-path:url(#SVGID_00000075137488329231256530000001481395889213494696_);fill:#231F20;" d="M564.3,220.8
				c0.3,0.3,0.5,0.6,0.8,0.9c0.3,0.3,0.5,0.6,0.7,0.9c0.4,0.6,0.8,1.3,1.1,1.9c0.3,0.7,0.5,1.3,0.7,2c0.1,0.3,0.2,0.6,0.3,1
				c0.1,0.3,0.1,0.6,0.2,0.9c0.2,1.2,0.3,2.2,0.3,3c0,0.4,0,0.7,0,0.9c0,0.2,0,0.3,0,0.3s-0.4,0-1.1-0.1c-0.3-0.1-0.7-0.1-1.2-0.2
				c-0.5-0.1-1-0.2-1.5-0.4c-1.1-0.3-2.2-0.7-3.4-1.3c-0.6-0.3-1.2-0.6-1.8-1c-0.3-0.2-0.6-0.4-0.8-0.6c-0.3-0.2-0.5-0.5-0.8-0.7
				c-0.6-0.6-1.1-1.2-1.6-1.8c-0.1-0.2-0.2-0.3-0.3-0.5c-0.1-0.2-0.2-0.3-0.3-0.5c-0.2-0.3-0.4-0.6-0.6-0.9
				c-0.2-0.3-0.4-0.6-0.5-0.9c-0.2-0.3-0.3-0.6-0.5-0.9c-0.3-0.6-0.5-1.2-0.7-1.8c-0.1-0.3-0.2-0.6-0.3-0.8
				c-0.1-0.3-0.2-0.5-0.3-0.7c-0.2-0.5-0.3-0.9-0.4-1.3c-0.1-0.4-0.2-0.6-0.2-0.8c0-0.2-0.1-0.3-0.1-0.3s0.4-0.1,1.2-0.1
				c0.2,0,0.4,0,0.6,0c0.2,0,0.5,0,0.7,0c0.5,0,1.1,0.1,1.7,0.2c1.2,0.2,2.6,0.5,4,1.1c0.7,0.3,1.4,0.7,2.1,1.1
				C563.1,219.7,563.7,220.2,564.3,220.8"/>
			<path style="clip-path:url(#SVGID_00000075137488329231256530000001481395889213494696_);fill:#231F20;" d="M568.9,218.8
				c0,0.4,0,0.9,0,1.3c0,0.4,0,0.8,0,1.2c0.1,0.8,0.2,1.6,0.3,2.3c0.1,0.7,0.3,1.5,0.5,2.1c0.1,0.3,0.2,0.7,0.3,1
				c0.1,0.3,0.2,0.6,0.3,0.9c0.4,1.2,0.9,2.1,1.2,2.8c0.2,0.3,0.3,0.6,0.4,0.8c0.1,0.2,0.2,0.3,0.2,0.3s0.3-0.2,0.9-0.7
				c0.3-0.2,0.6-0.5,0.9-0.9c0.3-0.4,0.7-0.8,1-1.3c0.7-1,1.5-2.2,2.1-3.6c0.3-0.7,0.6-1.5,0.8-2.3c0.1-0.4,0.2-0.8,0.3-1.3
				c0.1-0.4,0.1-0.9,0.2-1.4c0.1-1,0-2.1,0-3.1c0-0.3,0-0.5-0.1-0.8c0-0.2-0.1-0.5-0.1-0.7c-0.1-0.5-0.2-1-0.3-1.4
				c-0.1-0.5-0.2-0.9-0.3-1.4c-0.1-0.4-0.3-0.9-0.4-1.3c-0.3-0.8-0.6-1.6-0.9-2.3c-0.1-0.4-0.3-0.7-0.5-1c-0.2-0.3-0.3-0.6-0.5-0.9
				c-0.3-0.6-0.6-1-0.8-1.4c-0.2-0.4-0.4-0.7-0.6-0.9c-0.1-0.2-0.2-0.3-0.2-0.3s-0.3,0.4-0.7,1.2c-0.1,0.2-0.2,0.4-0.3,0.6
				c-0.1,0.2-0.2,0.5-0.4,0.7c-0.3,0.5-0.5,1.1-0.8,1.8c-0.6,1.3-1.1,2.9-1.6,4.6c-0.2,0.9-0.4,1.7-0.6,2.6
				C569,216.9,568.9,217.8,568.9,218.8"/>
			<path style="clip-path:url(#SVGID_00000075137488329231256530000001481395889213494696_);fill:#231F20;" d="M552.7,194.2
				c0,0,0.4,0.1,1.2,0.3c0.4,0.1,0.8,0.3,1.3,0.5c0.2,0.1,0.5,0.2,0.8,0.3c0.1,0.1,0.3,0.1,0.4,0.2c0.1,0.1,0.3,0.1,0.4,0.2
				c0.6,0.3,1.2,0.7,1.8,1.1c0.3,0.2,0.6,0.4,0.9,0.7c0.3,0.3,0.6,0.5,0.9,0.8c0.3,0.3,0.6,0.6,0.9,0.9c0.3,0.3,0.6,0.6,0.9,1
				c0.6,0.7,1.1,1.5,1.5,2.3c0.2,0.4,0.4,0.8,0.6,1.1c0.2,0.4,0.3,0.8,0.4,1.2c0.1,0.4,0.2,0.8,0.3,1.2c0.1,0.4,0.2,0.8,0.2,1.2
				c0.3,1.5,0.3,3,0.2,4.2c-0.1,1.3-0.3,2.3-0.4,3c-0.2,0.7-0.3,1.2-0.3,1.2s-0.4-0.1-1-0.4c-0.6-0.3-1.5-0.7-2.4-1.4
				c-0.2-0.2-0.5-0.3-0.7-0.5c-0.1-0.1-0.2-0.2-0.4-0.3c-0.1-0.1-0.2-0.2-0.4-0.3c-0.5-0.4-1-0.8-1.5-1.3c-0.2-0.2-0.5-0.5-0.7-0.8
				c-0.2-0.3-0.5-0.5-0.7-0.8c-0.5-0.6-0.9-1.2-1.2-1.9c-0.4-0.8-0.8-1.5-1.1-2.3c-0.1-0.2-0.1-0.4-0.2-0.6
				c-0.1-0.2-0.1-0.4-0.2-0.6c-0.1-0.4-0.3-0.8-0.4-1.2c-0.1-0.4-0.2-0.8-0.3-1.2c-0.1-0.4-0.2-0.8-0.2-1.1
				c-0.1-0.7-0.3-1.5-0.3-2.2c-0.1-0.7-0.2-1.3-0.2-1.9c-0.1-0.6-0.1-1.1-0.1-1.5C552.7,194.7,552.7,194.2,552.7,194.2"/>
			<path style="clip-path:url(#SVGID_00000075137488329231256530000001481395889213494696_);fill:#231F20;" d="M484,368.4
				c0,2.9-2.4,5.3-5.3,5.3c-2.9,0-5.3-2.4-5.3-5.3c0-2.9,2.4-5.3,5.3-5.3C481.6,363.1,484,365.4,484,368.4"/>
			
				<path style="clip-path:url(#SVGID_00000075137488329231256530000001481395889213494696_);fill:none;stroke:#231F20;stroke-width:5.0312;stroke-linecap:round;stroke-linejoin:round;stroke-miterlimit:10;" d="
				M476.7,353.3c0,0-0.9-33.7,56.4-41.2l-0.3-62.7c0,0-7.3-2.6-25.3,2.6"/>
			
				<path style="clip-path:url(#SVGID_00000075137488329231256530000001481395889213494696_);fill:none;stroke:#231F20;stroke-width:5.0312;stroke-linecap:round;stroke-linejoin:round;stroke-miterlimit:10;" d="
				M476.1,353.3c0,0,0.9-33.7-56.4-41.2l0.3-62.7c0,0,10.1-2.6,28.1,2.6"/>
			<path style="clip-path:url(#SVGID_00000075137488329231256530000001481395889213494696_);fill:#231F20;" d="M621.4,72.3v238.5
				C621.4,378.7,496.9,435,480,435c-17,0-141.4-56.3-141.4-124.3V72.3L480,40L621.4,72.3z M606.9,310.8v-226L480,55.8L353,84.8v226
				c0,53.1,107,106.6,126.9,108.8C499.9,417.4,606.9,363.9,606.9,310.8"/>
			<path style="clip-path:url(#SVGID_00000075137488329231256530000001481395889213494696_);fill:#231F20;" d="M458.4,249.4
				c0.8-1.9,1.8-3.4,2.9-5.1c1.8-2.8,6.2-7.2,8.5-9.7c2.4-2.6,5-5.1,7.6-7.6c2.9-2.8,3.5-3.7,6.2-6.6c1.4-1.5,2.7-3,3.9-4.5
				c1.1-1.3,2.1-2.7,3.1-4.1c2.6-3.7,4.7-7.5,5.9-11.8c0.9-3,1.4-6.1,1.4-9.3c0-1.7,0-3.3-0.3-5c-0.2-1.5-0.4-2.9-0.8-4.4
				c-0.4-1.5-0.9-3.1-1.3-4.6c0,0,0-0.1,0-0.1c0,0,0,0,0.1,0c0.1,0.2,0.3,0.4,0.4,0.6c1.7,2.8,3.1,5.6,4.2,8.6
				c0.6,1.7,1.1,3.4,1.6,5.2c0.4,1.5,0.6,2.9,0.8,4.4c0.5,4.8,0,9.6-1.6,14.2c-0.8,2.3-1.9,4.5-3.2,6.7c-1.3,2.1-2.7,4.1-4.2,6
				c-1.9,2.3-3.9,4.5-6.1,6.6c-3.1,3-6.4,5.8-9.7,8.6c-2.4,2-4.8,4.1-7.1,6.2c-2.2,1.9-3.9,3.5-5.7,5.7"/>
			<path style="clip-path:url(#SVGID_00000075137488329231256530000001481395889213494696_);fill:#231F20;" d="M476.1,249.6
				c2.7-2.8,11.3-10.3,14.3-12.9c3.3-2.9,6.6-5.7,9.8-8.7c2-1.9,4-3.9,5.8-6.1c2.8-3.6,5-7.5,6.2-11.9c0.9-3.1,1.3-6.3,1.1-9.6
				l0.1,0c0.6,1.8,1.2,3.6,1.5,5.4c0.3,1.9,0.5,3.9,0.4,5.9c0,0.2,0,0.3,0,0.5c0,0.2,0,0.3-0.1,0.5c-0.1,2.3-0.5,4.5-1.2,6.7
				c-0.4,1.2-0.9,2.5-1.3,3.7c-0.4,0.8-0.8,1.7-1.2,2.5c-1.5,2.8-3.3,5.3-5.5,7.6c-2.6,2.8-5.4,5.3-8.4,7.7
				c-3.1,2.4-8.5,6.5-11.7,8.9"/>
			<path style="clip-path:url(#SVGID_00000075137488329231256530000001481395889213494696_);fill:#231F20;" d="M501.5,169.7
				c-1-0.1-2-0.3-3-0.4c-2.1-0.3-4.2-0.7-6.4-0.6c-2.4,0.2-4.4,1-6,2.8c-1.8,1.9-3,4.2-4.3,6.5c-0.2,0.4-0.5,0.8-0.7,1.2
				c-0.1,0-0.2-0.1-0.2-0.1c0.1-0.5,0.1-0.9,0.2-1.4c0.4-2.1,0.7-4.3,0.8-6.5c0.1-3.5-1.3-6.3-4.2-8.2c-1.8-1.2-3.7-2.3-5.6-3.4
				c-0.4-0.2-0.8-0.5-1.1-0.7l0,0c1,0.1,2,0.3,3,0.4c2.1,0.3,4.2,0.7,6.4,0.6c2.3-0.2,4.4-1,6-2.7c1-1.1,1.9-2.4,2.7-3.7
				c0.7-1,1.2-2.2,1.8-3.2c0.2-0.3,0.4-0.6,0.5-0.9c0.1,0,0.1,0.1,0.2,0.1c-0.1,0.5-0.1,0.9-0.2,1.4c-0.4,2.1-0.7,4.3-0.8,6.5
				c-0.1,3.5,1.3,6.3,4.2,8.2c1.8,1.2,3.7,2.3,5.6,3.4C500.7,169.2,501.1,169.4,501.5,169.7L501.5,169.7z"/>
			<path style="clip-path:url(#SVGID_00000075137488329231256530000001481395889213494696_);fill:#A9ABAD;" d="M498.3,171.2
				C498.3,171.2,498.4,171.2,498.3,171.2C498.4,171.2,498.3,171.2,498.3,171.2C498.3,171.2,498.3,171.2,498.3,171.2L498.3,171.2z"/>
			<path style="clip-path:url(#SVGID_00000075137488329231256530000001481395889213494696_);fill:#A9ABAD;" d="M483.5,165.9
				C483.5,165.9,483.5,165.9,483.5,165.9C483.5,165.9,483.5,165.9,483.5,165.9C483.5,165.9,483.5,165.9,483.5,165.9L483.5,165.9z"/>
			<polygon style="clip-path:url(#SVGID_00000075137488329231256530000001481395889213494696_);fill:#A9ABAD;" points="493.5,161.1 
				493.5,161.2 493.5,161.2 			"/>
			<path style="clip-path:url(#SVGID_00000075137488329231256530000001481395889213494696_);fill:#231F20;" d="M482.3,203.1
				c0,4.9-4,8.9-8.9,8.9s-8.9-4-8.9-8.9c0-4.9,4-8.9,8.9-8.9S482.3,198.2,482.3,203.1"/>
		</g>
		<g style="clip-path:url(#SVGID_00000012461914810091346030000001966152704447762836_);">
			<text transform="matrix(1 0 0 1 383.2031 117.6756)"><tspan x="0" y="0" class="st4 st5 st6">SANT</tspan><tspan x="98.7" y="0" class="st4 st5 st6">H</tspan><tspan x="127.7" y="0" class="st4 st5 st6">O</tspan><tspan x="155.3" y="0" class="st4 st5 st6">M</tspan></text>
		</g>
		<g style="clip-path:url(#SVGID_00000012461914810091346030000001966152704447762836_);">
			<text transform="matrix(1 0 0 1 383.2412 133.5955)" class="st4 st7 st8">S</text>
		</g>
		<g style="clip-path:url(#SVGID_00000012461914810091346030000001966152704447762836_);">
			<text transform="matrix(1 0 0 1 392.873 133.5955)"><tspan x="0" y="0" class="st4 st7 st8 st9">C</tspan><tspan x="13.3" y="0" class="st4 st7 st8">H</tspan></text>
		</g>
		<g style="clip-path:url(#SVGID_00000012461914810091346030000001966152704447762836_);">
			<text transform="matrix(1 0 0 1 420.9629 133.5955)" class="st4 st7 st8">O</text>
		</g>
		<g style="clip-path:url(#SVGID_00000012461914810091346030000001966152704447762836_);">
			<text transform="matrix(1 0 0 1 435.3057 133.5955)" class="st4 st7 st8">O</text>
		</g>
		<g style="clip-path:url(#SVGID_00000012461914810091346030000001966152704447762836_);">
			<text transform="matrix(1 0 0 1 449.4238 133.5955)" class="st4 st7 st8">L</text>
		</g>
		<g style="clip-path:url(#SVGID_00000012461914810091346030000001966152704447762836_);">
			<text transform="matrix(1 0 0 1 649.6318 201.742)" class="st10 st5 st11">S</text>
		</g>
		<g style="clip-path:url(#SVGID_00000012461914810091346030000001966152704447762836_);">
			<text transform="matrix(1 0 0 1 727.5859 201.742)" class="st10 st5 st11">A</text>
		</g>
		<g style="clip-path:url(#SVGID_00000012461914810091346030000001966152704447762836_);">
			<text transform="matrix(1 0 0 1 839.4658 201.742)" class="st10 st5 st11">NTHOM</text>
		</g>
		<g style="clip-path:url(#SVGID_00000012461914810091346030000001966152704447762836_);">
			<text transform="matrix(1.0119 0 0 1 647.0137 283.8084)" class="st10 st7 st12">S</text>
		</g>
		<g style="clip-path:url(#SVGID_00000012461914810091346030000001966152704447762836_);">
			<text transform="matrix(1.0119 0 0 1 690.0088 283.8084)"><tspan x="0" y="0" class="st10 st7 st12 st13">C</tspan><tspan x="58.6" y="0" class="st10 st7 st12">H</tspan></text>
		</g>
		<g style="clip-path:url(#SVGID_00000012461914810091346030000001966152704447762836_);">
			<text transform="matrix(1.0119 0 0 1 815.3945 283.8084)" class="st10 st7 st12">O</text>
		</g>
		<g style="clip-path:url(#SVGID_00000012461914810091346030000001966152704447762836_);">
			<text transform="matrix(1.0119 0 0 1 879.4189 283.8084)"><tspan x="0" y="0" class="st10 st7 st12 st13">OL,</tspan><tspan x="137.4" y="0" class="st10 st7 st12"> </tspan></text>
		</g>
		<g style="clip-path:url(#SVGID_00000012461914810091346030000001966152704447762836_);">
			<text transform="matrix(1.0119 0 0 1 1042.8301 283.8084)" class="st10 st7 st12">D</text>
		</g>
		<g style="clip-path:url(#SVGID_00000012461914810091346030000001966152704447762836_);">
			<text transform="matrix(1.0119 0 0 1 1106.9268 283.8084)"><tspan x="0" y="0" class="st10 st7 st12 st13">OMBIV</tspan><tspan x="278.1" y="0" class="st10 st7 st12">L</tspan></text>
		</g>
		<g style="clip-path:url(#SVGID_00000012461914810091346030000001966152704447762836_);">
			<text transform="matrix(1.0119 0 0 1 1438.6475 283.8084)" class="st10 st7 st12">I</text>
		</g>
		
			<rect x="649.1" y="317.1" style="clip-path:url(#SVGID_00000012461914810091346030000001966152704447762836_);fill:#231F20;" width="151.1" height="5"/>
		<g style="clip-path:url(#SVGID_00000012461914810091346030000001966152704447762836_);">
			<text transform="matrix(1 0 0 1 806.3623 328.282)"><tspan x="0" y="0" class="st10 st7 st15 st9">IN</tspan><tspan x="42.2" y="0" class="st10 st7 st15">T</tspan></text>
		</g>
		<g style="clip-path:url(#SVGID_00000012461914810091346030000001966152704447762836_);">
			<text transform="matrix(1 0 0 1 873.2344 328.282)" class="st10 st7 st15">E</text>
		</g>
		<g style="clip-path:url(#SVGID_00000012461914810091346030000001966152704447762836_);">
			<text transform="matrix(1 0 0 1 894.002 328.282)"><tspan x="0" y="0" class="st10 st7 st15 st9">GR</tspan><tspan x="52.4" y="0" class="st10 st7 st15">I</tspan></text>
		</g>
		<g style="clip-path:url(#SVGID_00000012461914810091346030000001966152704447762836_);">
			<text transform="matrix(1 0 0 1 960.04 328.282)" class="st10 st7 st15">T</text>
		</g>
		<g style="clip-path:url(#SVGID_00000012461914810091346030000001966152704447762836_);">
			<text transform="matrix(1 0 0 1 984.9756 328.282)" class="st10 st7 st15">Y</text>
		</g>
		<g style="clip-path:url(#SVGID_00000012461914810091346030000001966152704447762836_);">
			<text transform="matrix(1 0 0 1 1004.877 328.282)"><tspan x="0" y="0" class="st10 st7 st15 st9">, DILI</tspan><tspan x="94.8" y="0" class="st10 st7 st15">G</tspan></text>
		</g>
		<g style="clip-path:url(#SVGID_00000012461914810091346030000001966152704447762836_);">
			<text transform="matrix(1 0 0 1 1125.5195 328.282)" class="st10 st7 st15">E</text>
		</g>
		<g style="clip-path:url(#SVGID_00000012461914810091346030000001966152704447762836_);">
			<text transform="matrix(1 0 0 1 1146.2871 328.282)" class="st10 st7 st15">N</text>
		</g>
		<g style="clip-path:url(#SVGID_00000012461914810091346030000001966152704447762836_);">
			<text transform="matrix(1 0 0 1 1174.8555 328.282)"><tspan x="0" y="0" class="st10 st7 st15 st9">C</tspan><tspan x="25.3" y="0" class="st10 st7 st15">E</tspan></text>
		</g>
		<g style="clip-path:url(#SVGID_00000012461914810091346030000001966152704447762836_);">
			<text transform="matrix(1 0 0 1 1220.9922 328.282)"><tspan x="0" y="0" class="st10 st7 st15 st9">,</tspan><tspan x="9.8" y="0" class="st10 st7 st15"> </tspan></text>
		</g>
		<g style="clip-path:url(#SVGID_00000012461914810091346030000001966152704447762836_);">
			<text transform="matrix(1 0 0 1 1240.0938 328.282)" class="st10 st7 st15">E</text>
		</g>
		<g style="clip-path:url(#SVGID_00000012461914810091346030000001966152704447762836_);">
			<text transform="matrix(1 0 0 1 1260.8623 328.282)" class="st10 st7 st15">X</text>
		</g>
		<g style="clip-path:url(#SVGID_00000012461914810091346030000001966152704447762836_);">
			<text transform="matrix(1 0 0 1 1285.7637 328.282)"><tspan x="0" y="0" class="st10 st7 st15 st9">C</tspan><tspan x="25.3" y="0" class="st10 st7 st15">E</tspan></text>
		</g>
		<g style="clip-path:url(#SVGID_00000012461914810091346030000001966152704447762836_);">
			<text transform="matrix(1 0 0 1 1331.9004 328.282)"><tspan x="0" y="0" class="st10 st7 st15 st9">L</tspan><tspan x="21.3" y="0" class="st10 st7 st15">L</tspan></text>
		</g>
		<g style="clip-path:url(#SVGID_00000012461914810091346030000001966152704447762836_);">
			<text transform="matrix(1 0 0 1 1374.4365 328.282)" class="st10 st7 st15">E</text>
		</g>
		<g style="clip-path:url(#SVGID_00000012461914810091346030000001966152704447762836_);">
			<text transform="matrix(1 0 0 1 1395.2051 328.282)" class="st10 st7 st15">N</text>
		</g>
		<g style="clip-path:url(#SVGID_00000012461914810091346030000001966152704447762836_);">
			<text transform="matrix(1 0 0 1 1423.7734 328.282)" class="st10 st7 st15">C</text>
		</g>
		<g style="clip-path:url(#SVGID_00000012461914810091346030000001966152704447762836_);">
			<text transform="matrix(1 0 0 1 1449.1416 328.282)" class="st10 st7 st15">E</text>
		</g>
	</g>
</g>
<rect x="637.8" y="357.6" class="st16" width="838.8" height="66.2"/>
<rect x="637.8" y="357.6" class="st17" width="838.8" height="66.2"/>
<g>
</g>
<g>
	<path class="st4" d="M701.1,406.2h-8.3l-3.3-7.1h-15.1l-3.1,7.1h-8.1l14.7-31.1h8.1L701.1,406.2z M687,393.9l-5.2-11.5l-5.1,11.5
		H687z"/>
	<path class="st4" d="M705.2,406.2v-31.1h12.3c4.6,0,7.7,0.2,9.1,0.5c2.2,0.5,4,1.5,5.4,3c1.5,1.6,2.2,3.6,2.2,6.1
		c0,1.9-0.4,3.5-1.3,4.8c-0.8,1.3-1.9,2.3-3.2,3.1c-1.3,0.7-2.6,1.2-4,1.5c-1.8,0.3-4.5,0.4-7.9,0.4h-5v11.7H705.2z M712.8,380.3
		v8.8h4.2c3,0,5-0.2,6-0.5c1-0.3,1.8-0.8,2.4-1.5c0.6-0.7,0.9-1.5,0.9-2.4c0-1.1-0.4-2.1-1.2-2.8c-0.8-0.7-1.8-1.2-3.1-1.4
		c-0.9-0.1-2.7-0.2-5.5-0.2H712.8z"/>
	<path class="st4" d="M740.4,406.2v-31.1h12.3c4.6,0,7.7,0.2,9.1,0.5c2.2,0.5,4,1.5,5.4,3c1.5,1.6,2.2,3.6,2.2,6.1
		c0,1.9-0.4,3.5-1.3,4.8c-0.8,1.3-1.9,2.3-3.2,3.1c-1.3,0.7-2.6,1.2-4,1.5c-1.8,0.3-4.5,0.4-7.9,0.4h-5v11.7H740.4z M748,380.3v8.8
		h4.2c3,0,5-0.2,6-0.5c1-0.3,1.8-0.8,2.4-1.5c0.6-0.7,0.9-1.5,0.9-2.4c0-1.1-0.4-2.1-1.2-2.8c-0.8-0.7-1.8-1.2-3.1-1.4
		c-0.9-0.1-2.7-0.2-5.5-0.2H748z"/>
	<path class="st4" d="M775.8,406.2v-30.9h7.6v25.6h19v5.2H775.8z"/>
	<path class="st4" d="M807.7,406.2v-31.1h7.6v31.1H807.7z"/>
	<path class="st4" d="M846.8,394.7l7.4,1.9c-1.1,3.4-3,5.9-5.7,7.6c-2.6,1.6-6,2.5-10,2.5c-5,0-9.1-1.4-12.4-4.2
		c-3.2-2.8-4.8-6.7-4.8-11.6c0-5.2,1.6-9.2,4.9-12.1c3.2-2.9,7.5-4.3,12.8-4.3c4.6,0,8.4,1.1,11.3,3.4c1.7,1.3,3,3.2,3.9,5.7
		l-7.6,1.5c-0.4-1.6-1.4-2.9-2.8-3.8s-3.1-1.4-5.2-1.4c-2.8,0-5.1,0.8-6.8,2.5s-2.6,4.3-2.6,8c0,3.9,0.9,6.7,2.6,8.4
		c1.7,1.7,4,2.5,6.7,2.5c2,0,3.8-0.5,5.2-1.6C845.1,398.7,846.1,397,846.8,394.7z"/>
	<path class="st4" d="M894.8,406.2h-8.3l-3.3-7.1h-15.1l-3.1,7.1h-8.1l14.7-31.1h8.1L894.8,406.2z M880.8,393.9l-5.2-11.5l-5.1,11.5
		H880.8z"/>
</g>
<g>
	<path class="st4" d="M903.5,406.2v-25.8h-11.2v-5.3h30v5.3h-11.2v25.8H903.5z"/>
	<path class="st4" d="M927,406.2v-31.1h7.6v31.1H927z"/>
	<path class="st4" d="M940.3,390.8c0-3.2,0.6-5.8,1.7-8c0.9-1.6,2-3,3.5-4.3s3.1-2.2,4.9-2.8c2.4-0.8,5.1-1.2,8.2-1.2
		c5.6,0,10,1.4,13.4,4.3c3.3,2.8,5,6.8,5,11.9c0,5-1.7,9-5,11.8s-7.8,4.3-13.3,4.3c-5.6,0-10.1-1.4-13.4-4.2
		C942,399.7,940.3,395.8,940.3,390.8z M948.2,390.6c0,3.5,1,6.2,3,8c2,1.8,4.5,2.7,7.5,2.7c3,0,5.5-0.9,7.5-2.7s2.9-4.5,2.9-8.1
		c0-3.6-1-6.2-2.9-8c-1.9-1.8-4.4-2.6-7.6-2.6c-3.1,0-5.7,0.9-7.6,2.7S948.2,387,948.2,390.6z"/>
	<path class="st4" d="M983.1,406.2v-31.1h7.4l15.5,20.8v-20.8h7.1v31.1h-7.7l-15.2-20.3v20.3H983.1z"/>
	<path class="st4" d="M1035.9,406.2v-31.1h25.9v5.3h-18.3v7.4h15.8v5.3h-15.8v13.2H1035.9z"/>
	<path class="st4" d="M1066.5,390.8c0-3.2,0.6-5.8,1.7-8c0.9-1.6,2-3,3.5-4.3s3.1-2.2,4.9-2.8c2.4-0.8,5.1-1.2,8.2-1.2
		c5.6,0,10,1.4,13.4,4.3c3.3,2.8,5,6.8,5,11.9c0,5-1.7,9-5,11.8s-7.8,4.3-13.3,4.3c-5.6,0-10.1-1.4-13.4-4.2
		C1068.2,399.7,1066.5,395.8,1066.5,390.8z M1074.4,390.6c0,3.5,1,6.2,3,8c2,1.8,4.5,2.7,7.5,2.7c3,0,5.5-0.9,7.5-2.7
		s2.9-4.5,2.9-8.1c0-3.6-1-6.2-2.9-8c-1.9-1.8-4.4-2.6-7.6-2.6c-3.1,0-5.7,0.9-7.6,2.7S1074.4,387,1074.4,390.6z"/>
	<path class="st4" d="M1109.2,406.2v-31.1h16.1c4,0,7,0.3,8.8,0.8c1.8,0.6,3.3,1.6,4.4,3c1.1,1.4,1.7,3.1,1.7,4.9
		c0,2.3-0.8,4.3-2.5,5.8c-1.7,1.5-4.2,2.5-7.5,2.9c1.7,0.8,3,1.7,4.1,2.6c1.1,0.9,2.5,2.6,4.3,5l4.6,6.1h-9.1l-5.5-6.8
		c-2-2.4-3.3-3.9-4-4.6c-0.7-0.6-1.5-1.1-2.3-1.3s-2.1-0.3-3.8-0.3h-1.5v13H1109.2z M1116.8,388.2h5.6c3.7,0,5.9-0.1,6.9-0.4
		c0.9-0.3,1.6-0.7,2.1-1.3c0.5-0.6,0.8-1.4,0.8-2.3c0-1-0.3-1.9-1-2.5c-0.7-0.6-1.6-1-2.9-1.2c-0.6-0.1-2.5-0.1-5.6-0.1h-6V388.2z"
		/>
</g>
<g>
	<path class="st4" d="M1194.1,406.2h-8.3l-3.3-7.1h-15.1l-3.1,7.1h-8.1l14.7-31.1h8.1L1194.1,406.2z M1180.1,393.9l-5.2-11.5
		l-5.1,11.5H1180.1z"/>
	<path class="st4" d="M1198.1,375.1h14c3.1,0,5.5,0.2,7.2,0.6c2.2,0.5,4.1,1.5,5.7,2.9c1.6,1.4,2.8,3.1,3.6,5c0.8,2,1.2,4.4,1.2,7.4
		c0,2.6-0.4,4.8-1.2,6.6c-0.9,2.3-2.3,4.1-4,5.5c-1.3,1.1-3.1,1.9-5.4,2.5c-1.7,0.4-3.9,0.7-6.8,0.7h-14.4V375.1z M1205.8,380.3
		v20.6h5.7c2.1,0,3.7-0.1,4.6-0.3c1.2-0.3,2.3-0.7,3.1-1.3c0.8-0.6,1.5-1.6,2-3c0.5-1.4,0.8-3.3,0.8-5.7c0-2.4-0.3-4.3-0.8-5.5
		c-0.5-1.3-1.2-2.3-2.2-3c-0.9-0.7-2.1-1.2-3.5-1.5c-1.1-0.2-3.2-0.3-6.3-0.3H1205.8z"/>
	<path class="st4" d="M1236.2,406.2v-31.1h11.4l6.9,21.2l6.8-21.2h11.5v31.1h-7.1v-24.5l-7.5,24.5h-7.4l-7.5-24.5v24.5H1236.2z"/>
	<path class="st4" d="M1280.1,406.2v-31.1h7.6v31.1H1280.1z"/>
	<path class="st4" d="M1293.1,396.1l7.4-0.6c0.4,2.1,1.4,3.6,2.7,4.5c1.4,1,3.2,1.4,5.5,1.4c2.5,0,4.3-0.4,5.6-1.3
		c1.2-0.9,1.9-1.9,1.9-3c0-0.7-0.3-1.4-0.8-1.9c-0.5-0.5-1.4-1-2.7-1.3c-0.9-0.3-2.9-0.7-6.1-1.4c-4.1-0.8-7-1.9-8.6-3.1
		c-2.3-1.7-3.5-3.8-3.5-6.3c0-1.6,0.5-3.1,1.6-4.4c1.1-1.4,2.7-2.4,4.7-3.2s4.5-1.1,7.4-1.1c4.7,0,8.3,0.9,10.7,2.6
		c2.4,1.7,3.7,4,3.8,6.9l-7.6,0.3c-0.3-1.6-1-2.7-2.1-3.4c-1.1-0.7-2.7-1.1-4.8-1.1c-2.2,0-4,0.4-5.2,1.1c-0.8,0.5-1.2,1.1-1.2,1.9
		c0,0.7,0.4,1.4,1.1,1.9c1,0.7,3.3,1.4,7,2.1c3.7,0.7,6.5,1.5,8.2,2.2c1.8,0.8,3.2,1.8,4.2,3.2s1.5,3,1.5,5c0,1.8-0.6,3.5-1.8,5
		c-1.2,1.6-2.9,2.7-5.1,3.5c-2.2,0.8-4.9,1.1-8.2,1.1c-4.8,0-8.5-0.9-11-2.7C1295.1,402.2,1293.6,399.5,1293.1,396.1z"/>
	<path class="st4" d="M1328.3,396.1l7.4-0.6c0.4,2.1,1.4,3.6,2.7,4.5c1.4,1,3.2,1.4,5.5,1.4c2.5,0,4.3-0.4,5.6-1.3
		c1.2-0.9,1.9-1.9,1.9-3c0-0.7-0.3-1.4-0.8-1.9c-0.5-0.5-1.4-1-2.7-1.3c-0.9-0.3-2.9-0.7-6.1-1.4c-4.1-0.8-7-1.9-8.6-3.1
		c-2.3-1.7-3.5-3.8-3.5-6.3c0-1.6,0.5-3.1,1.6-4.4c1.1-1.4,2.7-2.4,4.7-3.2s4.5-1.1,7.4-1.1c4.7,0,8.3,0.9,10.7,2.6
		c2.4,1.7,3.7,4,3.8,6.9l-7.6,0.3c-0.3-1.6-1-2.7-2.1-3.4c-1.1-0.7-2.7-1.1-4.8-1.1c-2.2,0-4,0.4-5.2,1.1c-0.8,0.5-1.2,1.1-1.2,1.9
		c0,0.7,0.4,1.4,1.1,1.9c1,0.7,3.3,1.4,7,2.1c3.7,0.7,6.5,1.5,8.2,2.2c1.8,0.8,3.2,1.8,4.2,3.2s1.5,3,1.5,5c0,1.8-0.6,3.5-1.8,5
		c-1.2,1.6-2.9,2.7-5.1,3.5c-2.2,0.8-4.9,1.1-8.2,1.1c-4.8,0-8.5-0.9-11-2.7C1330.3,402.2,1328.8,399.5,1328.3,396.1z"/>
	<path class="st4" d="M1365.2,406.2v-31.1h7.6v31.1H1365.2z"/>
	<path class="st4" d="M1378.6,390.8c0-3.2,0.6-5.8,1.7-8c0.9-1.6,2-3,3.5-4.3c1.5-1.3,3.1-2.2,4.9-2.8c2.4-0.8,5.1-1.2,8.2-1.2
		c5.6,0,10,1.4,13.4,4.3s5,6.8,5,11.9c0,5-1.7,9-5,11.8c-3.3,2.8-7.8,4.3-13.3,4.3c-5.6,0-10.1-1.4-13.4-4.2
		C1380.3,399.7,1378.6,395.8,1378.6,390.8z M1386.5,390.6c0,3.5,1,6.2,3,8s4.5,2.7,7.5,2.7c3,0,5.5-0.9,7.5-2.7s2.9-4.5,2.9-8.1
		c0-3.6-1-6.2-2.9-8c-1.9-1.8-4.4-2.6-7.6-2.6c-3.1,0-5.7,0.9-7.6,2.7C1387.4,384.4,1386.5,387,1386.5,390.6z"/>
	<path class="st4" d="M1421.3,406.2v-31.1h7.4l15.5,20.8v-20.8h7.1v31.1h-7.7l-15.2-20.3v20.3H1421.3z"/>
</g>
</svg>
