<?xml version="1.0" encoding="utf-8"?>
<!-- Generator: Adobe Illustrator 26.0.2, SVG Export Plug-In . SVG Version: 6.00 Build 0)  -->
<svg version="1.1" id="Layer_1" xmlns="http://www.w3.org/2000/svg" xmlns:xlink="http://www.w3.org/1999/xlink" x="0px" y="0px"
	 viewBox="0 0 841.9 595.3" style="enable-background:new 0 0 841.9 595.3;" xml:space="preserve">
<style type="text/css">
	.st0{clip-path:url(#SVGID_00000040570138230062342080000012962022510750466956_);}
	.st1{clip-path:url(#SVGID_00000003094769048458658530000017076124017645082499_);fill:#44205A;}
	.st2{clip-path:url(#SVGID_00000003094769048458658530000017076124017645082499_);fill:#FFFFFF;}
	
		.st3{clip-path:url(#SVGID_00000003094769048458658530000017076124017645082499_);fill:none;stroke:#FFFFFF;stroke-width:5.2444;stroke-linecap:round;stroke-linejoin:round;stroke-miterlimit:10;}
	
		.st4{clip-path:url(#SVGID_00000008135879924782865280000013016976751752189834_);fill:url(#SVGID_00000039100338794134054640000010652941808377442478_);}
	.st5{clip-path:url(#SVGID_00000132051938511775973280000000718354674750370180_);fill:#FFFFFF;}
	.st6{clip-path:url(#SVGID_00000132051938511775973280000000718354674750370180_);fill:#A9ABAD;}
	.st7{fill:#421F58;}
	.st8{font-family:'EBGaramond-Bold';}
	.st9{font-size:37.6741px;}
	.st10{font-family:'EBGaramond-SemiBold';}
	.st11{font-size:16.8181px;}
	.st12{letter-spacing:1;}
</style>
<g>
	<g>
		<defs>
			<rect id="SVGID_1_" x="185.1" y="54.9" width="472" height="472"/>
		</defs>
		<clipPath id="SVGID_00000040538539553982210160000003974469690268985985_">
			<use xlink:href="#SVGID_1_"  style="overflow:visible;"/>
		</clipPath>
		<g style="clip-path:url(#SVGID_00000040538539553982210160000003974469690268985985_);">
			<defs>
				<rect id="SVGID_00000066510572934636320480000004845598745494535040_" x="185.1" y="54.9" width="472" height="472"/>
			</defs>
			<clipPath id="SVGID_00000016033908687443291610000011833960522028817301_">
				<use xlink:href="#SVGID_00000066510572934636320480000004845598745494535040_"  style="overflow:visible;"/>
			</clipPath>
			<path style="clip-path:url(#SVGID_00000016033908687443291610000011833960522028817301_);fill:#44205A;" d="M266.9,129.5
				l4.1,254.8c0,0,39.9,98.1,124.6,102.3c0,0,104.5,10.8,152.4-97.7V138.7l-138-36.9L266.9,129.5z"/>
			<path style="clip-path:url(#SVGID_00000016033908687443291610000011833960522028817301_);fill:#FFFFFF;" d="M289.9,251.6
				c0,0,74.9-91,238.3-53l4-4.4l-1.4-42.8l-25.5-8.9l-94.3-21.5l-123.7,27.7L289.9,251.6z"/>
			<path style="clip-path:url(#SVGID_00000016033908687443291610000011833960522028817301_);fill:#FFFFFF;" d="M402.7,407.1
				l-16.8-63.2l30.6-7v-1.9l-45.2-1.3l7-16.1c0,0,34.2-8.9,64,0l0.4,6.4l-26.3-0.9v1.4c0,0,26.5,8.2,26.3,9.5v8.4l-11.9,3.1L409,352
				l20.1,0.7L408,407.1"/>
			<path style="clip-path:url(#SVGID_00000016033908687443291610000011833960522028817301_);fill:#FFFFFF;" d="M410,475.1l-0.5-0.1
				c-20.6-3.6-124.1-55.8-124.1-104.2V146.4L410,118.3l0.7,0.2l124,28v224.3c0,48.4-103.5,100.6-124.1,104.2L410,475.1z
				 M291.7,151.9v218.9c0,43.7,98,93.3,118.3,97.5c20.3-4.1,118.3-53.8,118.3-97.5V151.9L410,125.2L291.7,151.9z"/>
			<path style="clip-path:url(#SVGID_00000016033908687443291610000011833960522028817301_);fill:#FFFFFF;" d="M384.3,426.5
				c0.3,0.3,0.6,0.6,0.9,0.8c0.3,0.3,0.6,0.5,0.9,0.7c0.3,0.2,0.6,0.4,0.9,0.6c0.3,0.2,0.6,0.3,1,0.5c1.3,0.6,2.6,0.9,3.7,1
				c1.1,0.1,2.1,0.1,2.8,0.1c0.7-0.1,1.1-0.1,1.1-0.1s-0.1-0.5-0.2-1.2c-0.1-0.4-0.2-0.8-0.3-1.4c-0.1-0.5-0.3-1.1-0.5-1.7
				c-0.4-1.2-0.9-2.5-1.6-3.8c-0.3-0.7-0.7-1.3-1.1-1.9c-0.1-0.2-0.2-0.3-0.3-0.5c-0.1-0.2-0.2-0.3-0.3-0.5
				c-0.2-0.3-0.5-0.6-0.7-0.9c-0.3-0.3-0.6-0.6-0.9-0.9c-0.3-0.3-0.6-0.5-0.9-0.8c-0.3-0.2-0.6-0.5-0.9-0.7
				c-0.3-0.2-0.6-0.4-0.9-0.6c-0.3-0.2-0.6-0.3-0.9-0.5c-0.3-0.2-0.6-0.3-0.9-0.5c-0.3-0.1-0.6-0.3-0.9-0.4
				c-0.3-0.1-0.6-0.2-0.8-0.3c-0.5-0.2-1.1-0.3-1.5-0.5c-0.5-0.1-0.9-0.2-1.2-0.3c-0.3-0.1-0.6-0.1-0.8-0.2c-0.2,0-0.3,0-0.3,0
				s0,0.5,0.1,1.4c0.1,0.9,0.2,2.1,0.5,3.5c0.1,0.4,0.2,0.7,0.2,1.1c0.1,0.4,0.2,0.7,0.3,1.1c0.2,0.8,0.5,1.5,0.9,2.3
				C382.1,423.6,383.1,425.2,384.3,426.5"/>
			<path style="clip-path:url(#SVGID_00000016033908687443291610000011833960522028817301_);fill:#FFFFFF;" d="M382.9,432
				c0.4-0.1,0.8-0.1,1.2-0.2c0.4,0,0.8-0.1,1.1-0.1s0.7,0,1.1,0c0.4,0,0.7,0.1,1.1,0.1c1.4,0.2,2.7,0.5,3.8,0.9
				c1.1,0.4,2,0.8,2.7,1.1c0.6,0.3,1,0.6,1,0.6s-0.2,0.4-0.6,1.1c-0.2,0.3-0.4,0.7-0.7,1.1c-0.3,0.4-0.7,0.9-1.1,1.4
				c-0.8,0.9-1.8,1.9-3.1,2.8c-0.6,0.4-1.3,0.8-2.1,1.1c-0.2,0.1-0.4,0.2-0.6,0.2c-0.2,0.1-0.4,0.1-0.6,0.2
				c-0.4,0.1-0.8,0.2-1.2,0.3c-0.5,0.1-1,0.2-1.4,0.2c-0.5,0-0.9,0.1-1.4,0.1c-0.5,0-0.9,0-1.4,0c-0.5,0-0.9-0.1-1.4-0.2
				c-0.4-0.1-0.9-0.1-1.3-0.2c-0.4-0.1-0.8-0.2-1.2-0.3c-0.4-0.1-0.8-0.2-1.2-0.4c-0.4-0.1-0.7-0.3-1.1-0.4
				c-0.7-0.3-1.3-0.6-1.9-0.9c-0.5-0.3-1-0.6-1.4-0.8c-0.4-0.2-0.7-0.4-0.9-0.6c-0.2-0.1-0.3-0.2-0.3-0.2s0.4-0.4,1-0.9
				c0.7-0.6,1.6-1.3,2.8-2.1c0.3-0.2,0.6-0.4,0.9-0.6c0.3-0.2,0.6-0.4,1-0.6c0.7-0.4,1.4-0.8,2.2-1.1
				C379.4,432.9,381.1,432.3,382.9,432"/>
			<path style="clip-path:url(#SVGID_00000016033908687443291610000011833960522028817301_);fill:#FFFFFF;" d="M367.4,419
				c0.5,0.7,1,1.3,1.5,1.9c0.3,0.3,0.5,0.5,0.8,0.8c0.3,0.2,0.6,0.5,0.9,0.7c0.6,0.4,1.2,0.8,1.8,1c0.6,0.3,1.1,0.5,1.7,0.7
				c0.5,0.2,1.1,0.3,1.5,0.4c0.5,0.1,0.9,0.2,1.2,0.2c0.7,0.1,1.1,0.1,1.1,0.1s0-0.5,0-1.3c0-0.8-0.1-1.9-0.3-3.1
				c-0.2-1.3-0.5-2.7-0.9-4.1c-0.1-0.2-0.1-0.4-0.2-0.5c-0.1-0.2-0.1-0.4-0.2-0.5c-0.1-0.4-0.3-0.7-0.4-1.1c-0.3-0.7-0.7-1.4-1.1-2
				c-0.5-0.7-1-1.4-1.5-2c-0.5-0.6-1.1-1.1-1.6-1.6c-1.1-1-2.2-1.8-3.2-2.4c-0.5-0.3-1-0.6-1.4-0.8c-0.2-0.1-0.4-0.2-0.6-0.3
				c-0.2-0.1-0.4-0.2-0.5-0.2c-0.6-0.3-1-0.4-1-0.4s-0.1,0.5-0.2,1.4c-0.1,0.9-0.1,2.1-0.1,3.5c0,0.7,0.1,1.5,0.2,2.3
				c0.1,0.8,0.3,1.6,0.5,2.5c0.2,0.8,0.5,1.7,0.8,2.5C366.5,417.3,366.9,418.2,367.4,419"/>
			<path style="clip-path:url(#SVGID_00000016033908687443291610000011833960522028817301_);fill:#FFFFFF;" d="M365.1,424
				c0.8,0,1.6,0.1,2.3,0.3c0.4,0.1,0.7,0.2,1.1,0.3c0.4,0.1,0.7,0.2,1,0.3c0.7,0.2,1.3,0.5,1.9,0.8s1.2,0.6,1.7,0.9
				c0.5,0.3,1,0.6,1.4,0.9c0.4,0.3,0.8,0.5,1.1,0.8c0.6,0.5,0.9,0.8,0.9,0.8s-0.3,0.4-0.8,0.9c-0.5,0.6-1.2,1.3-2.2,2.1
				c-1,0.8-2.1,1.5-3.5,2.1c-0.2,0.1-0.3,0.1-0.5,0.2c-0.2,0.1-0.4,0.1-0.5,0.2c-0.4,0.1-0.7,0.2-1.1,0.3c-0.8,0.2-1.6,0.3-2.5,0.2
				c-1,0-1.9-0.1-2.8-0.3c-0.9-0.2-1.8-0.4-2.7-0.8c-1.7-0.6-3.2-1.5-4.5-2.3c-0.6-0.4-1.2-0.9-1.7-1.2c-0.2-0.2-0.5-0.4-0.7-0.6
				c-0.2-0.2-0.4-0.4-0.6-0.5c-0.7-0.6-1.1-1-1.1-1s0.4-0.3,1.1-0.7c0.7-0.4,1.8-1,3-1.5c0.6-0.3,1.3-0.5,2.1-0.8
				c0.7-0.2,1.5-0.5,2.3-0.7c0.8-0.2,1.6-0.4,2.5-0.4C363.3,424.1,364.2,424,365.1,424"/>
			<path style="clip-path:url(#SVGID_00000016033908687443291610000011833960522028817301_);fill:#FFFFFF;" d="M352,408
				c0.3,0.8,0.7,1.5,1.2,2.2c0.4,0.6,0.9,1.2,1.4,1.8c0.5,0.5,1,1,1.6,1.4c0.1,0.1,0.3,0.2,0.4,0.3c0.1,0.1,0.3,0.2,0.4,0.3
				c0.3,0.2,0.5,0.3,0.8,0.5c1,0.6,1.9,1,2.6,1.2c0.3,0.1,0.6,0.2,0.8,0.2c0.2,0,0.3,0.1,0.3,0.1s0.1-0.5,0.2-1.2
				c0.1-0.8,0.2-1.9,0.2-3.2c0-0.6,0-1.3,0-2c0-0.7-0.1-1.5-0.2-2.2c-0.2-1.5-0.6-3-1.2-4.5c-0.3-0.8-0.7-1.6-1.2-2.3
				c-0.4-0.7-0.9-1.4-1.3-1.9c-0.4-0.6-0.9-1.1-1.4-1.6c-0.5-0.5-0.9-1-1.4-1.3c-0.2-0.2-0.4-0.4-0.6-0.6c-0.2-0.2-0.4-0.3-0.6-0.5
				c-0.4-0.3-0.7-0.6-1-0.8c-0.6-0.4-0.9-0.6-0.9-0.6s-0.2,0.5-0.4,1.3c-0.2,0.8-0.5,2-0.7,3.4c-0.1,0.7-0.2,1.5-0.2,2.3
				c0,0.8,0,1.6,0.1,2.5c0.1,0.9,0.2,1.8,0.4,2.7c0.1,0.4,0.2,0.9,0.4,1.3c0.1,0.2,0.1,0.4,0.2,0.7C351.8,407.6,351.9,407.8,352,408
				"/>
			<path style="clip-path:url(#SVGID_00000016033908687443291610000011833960522028817301_);fill:#FFFFFF;" d="M348.9,412.5
				c0.8,0.2,1.5,0.4,2.2,0.7c0.7,0.3,1.4,0.6,2,1c0.6,0.4,1.2,0.8,1.8,1.2c0.1,0.1,0.3,0.2,0.4,0.3c0.1,0.1,0.3,0.2,0.4,0.3
				c0.3,0.2,0.5,0.4,0.7,0.6c0.9,0.8,1.6,1.6,2.1,2.1c0.2,0.3,0.4,0.5,0.6,0.7c0.1,0.2,0.2,0.3,0.2,0.3s-0.3,0.3-0.9,0.8
				c-0.6,0.4-1.4,1-2.5,1.6c-0.5,0.3-1.1,0.5-1.8,0.8c-0.6,0.2-1.3,0.4-2,0.6c-1.5,0.3-3,0.3-4.7,0c-0.9-0.2-1.9-0.5-2.7-0.9
				c-0.9-0.4-1.7-0.8-2.5-1.3c-0.8-0.5-1.5-1-2.2-1.6c-0.7-0.5-1.3-1.1-1.8-1.7c-0.1-0.1-0.3-0.3-0.4-0.4c-0.1-0.1-0.3-0.3-0.4-0.4
				c-0.2-0.3-0.5-0.5-0.7-0.8c-0.4-0.5-0.8-0.9-1.1-1.3c-0.6-0.8-0.9-1.2-0.9-1.2s0.5-0.2,1.2-0.4c0.8-0.2,1.9-0.6,3.2-0.8
				c0.7-0.1,1.4-0.2,2.1-0.3c0.8-0.1,1.6-0.2,2.4-0.2c0.8,0,1.7,0,2.5,0.1c0.4,0,0.9,0.1,1.3,0.2c0.2,0,0.4,0.1,0.7,0.1
				C348.5,412.4,348.7,412.5,348.9,412.5"/>
			<path style="clip-path:url(#SVGID_00000016033908687443291610000011833960522028817301_);fill:#FFFFFF;" d="M338.7,394.1
				c0.8,3.4,2.8,5.9,4.6,7.4c0.9,0.8,1.7,1.3,2.3,1.7c0.6,0.4,1,0.5,1,0.5s0.2-0.4,0.4-1.2c0.2-0.7,0.5-1.8,0.7-3.1
				c0.1-0.6,0.2-1.3,0.3-2c0.1-0.7,0.1-1.4,0.2-2.2c0-0.8,0-1.5-0.1-2.3c-0.1-0.8-0.2-1.6-0.4-2.3c-0.2-0.9-0.5-1.7-0.8-2.5
				c-0.3-0.8-0.6-1.5-1-2.2c-0.2-0.3-0.4-0.7-0.5-1c-0.2-0.3-0.4-0.6-0.6-0.9c-0.2-0.3-0.4-0.6-0.6-0.8c-0.2-0.3-0.4-0.5-0.6-0.8
				c-0.4-0.5-0.7-0.9-1.1-1.3c-0.3-0.4-0.6-0.7-0.9-1c-0.3-0.3-0.5-0.5-0.6-0.6c-0.1-0.1-0.2-0.2-0.2-0.2s-0.1,0.1-0.2,0.3
				s-0.3,0.5-0.4,0.9c-0.4,0.8-0.8,1.9-1.2,3.2c-0.1,0.3-0.2,0.7-0.3,1.1c-0.1,0.4-0.2,0.7-0.3,1.1c-0.2,0.8-0.3,1.6-0.4,2.5
				C338.2,390.4,338.3,392.2,338.7,394.1"/>
			<path style="clip-path:url(#SVGID_00000016033908687443291610000011833960522028817301_);fill:#FFFFFF;" d="M334.9,397.9
				c3,1.4,5.2,3.7,6.7,5.6c0.8,1,1.3,1.9,1.7,2.5c0.4,0.7,0.6,1.1,0.6,1.1s-0.4,0.2-1,0.6c-0.6,0.3-1.6,0.7-2.7,1.1
				c-0.6,0.2-1.2,0.3-1.8,0.4c-0.7,0.1-1.4,0.2-2.1,0.1c-0.7,0-1.5-0.1-2.3-0.3c-0.8-0.2-1.6-0.4-2.4-0.8c-0.9-0.4-1.7-0.9-2.5-1.4
				c-0.8-0.5-1.5-1.2-2.2-1.8c-0.3-0.3-0.7-0.6-1-1c-0.3-0.3-0.6-0.7-0.9-1c-0.3-0.3-0.6-0.7-0.8-1c-0.3-0.3-0.5-0.7-0.7-1
				c-0.4-0.7-0.9-1.3-1.2-1.8c-0.3-0.6-0.6-1.1-0.8-1.5c-0.2-0.4-0.4-0.8-0.5-1c-0.1-0.2-0.2-0.4-0.2-0.4s0.1,0,0.3-0.1
				c0.2,0,0.5-0.1,1-0.1c0.8-0.1,2-0.2,3.3-0.1c0.3,0,0.7,0,1,0c0.4,0,0.7,0,1.1,0.1c0.8,0.1,1.6,0.2,2.4,0.3
				C331.6,396.6,333.3,397.1,334.9,397.9"/>
			<path style="clip-path:url(#SVGID_00000016033908687443291610000011833960522028817301_);fill:#FFFFFF;" d="M327.9,377.7
				c0.2,3.5,1.8,6.4,3.3,8.3c0.4,0.5,0.7,0.9,1.1,1.3c0.3,0.4,0.7,0.7,0.9,0.9c0.5,0.5,0.9,0.7,0.9,0.7s0.2-0.4,0.6-1.1
				c0.3-0.7,0.8-1.7,1.2-2.8c0.1-0.3,0.2-0.6,0.3-0.9c0.1-0.3,0.2-0.6,0.3-1c0.2-0.7,0.4-1.4,0.5-2.1c0.1-0.7,0.3-1.5,0.3-2.3
				c0-0.4,0-0.8,0.1-1.2c0-0.2,0-0.4,0-0.6c0-0.2,0-0.4,0-0.6c-0.2-3.6-1.4-6.6-2.5-8.8c-0.1-0.3-0.3-0.5-0.4-0.8
				c-0.1-0.3-0.3-0.5-0.4-0.7c-0.3-0.4-0.5-0.8-0.7-1.1c-0.4-0.6-0.7-1-0.7-1s-0.3,0.4-0.8,1.1c-0.2,0.3-0.5,0.8-0.8,1.3
				c-0.3,0.5-0.6,1.1-0.9,1.7c-0.3,0.6-0.6,1.3-0.9,2.1c-0.3,0.7-0.5,1.5-0.7,2.4C328,373.9,327.8,375.7,327.9,377.7"/>
			<path style="clip-path:url(#SVGID_00000016033908687443291610000011833960522028817301_);fill:#FFFFFF;" d="M323.6,380.6
				c2.7,2,4.5,4.7,5.6,6.9c0.3,0.6,0.5,1.1,0.8,1.6c0.2,0.5,0.4,0.9,0.5,1.3c0.3,0.7,0.4,1.2,0.4,1.2s-0.4,0.2-1.1,0.3
				c-0.7,0.2-1.7,0.4-2.8,0.5c-0.3,0-0.6,0-0.9,0c-0.3,0-0.6,0-1,0c-0.7,0-1.4-0.1-2.1-0.3c-0.7-0.2-1.5-0.4-2.2-0.7
				c-0.4-0.2-0.7-0.3-1.1-0.6c-0.2-0.1-0.4-0.2-0.6-0.3c-0.2-0.1-0.4-0.2-0.5-0.4c-3.3-2.3-5.5-5.9-6.9-8.8
				c-0.1-0.2-0.2-0.4-0.2-0.5c-0.1-0.2-0.1-0.4-0.2-0.5c-0.1-0.3-0.3-0.7-0.4-1c-0.2-0.6-0.4-1.2-0.6-1.7c-0.3-0.9-0.4-1.5-0.4-1.5
				s0.5,0,1.3,0.1c0.4,0,0.9,0.1,1.4,0.2c0.6,0.1,1.2,0.2,1.8,0.4c0.7,0.1,1.4,0.3,2.1,0.6c0.7,0.2,1.5,0.5,2.3,0.8
				C320.5,378.7,322.1,379.5,323.6,380.6"/>
			<path style="clip-path:url(#SVGID_00000016033908687443291610000011833960522028817301_);fill:#FFFFFF;" d="M320,359.3
				c-0.2,1.7,0,3.4,0.4,4.9c0.4,1.5,0.9,2.8,1.5,3.9c0.6,1.1,1.2,2,1.6,2.5c0.5,0.6,0.8,0.9,0.8,0.9s0.3-0.3,0.7-0.9
				c0.5-0.6,1-1.5,1.7-2.5c0.6-1.1,1.3-2.3,1.8-3.7c0.5-1.4,0.9-2.9,1.1-4.5c0-0.4,0.1-0.9,0.1-1.3c0-0.4,0-0.9,0-1.3
				c0-0.8-0.1-1.7-0.2-2.4c-0.1-0.8-0.2-1.5-0.4-2.2c-0.1-0.3-0.2-0.7-0.3-1c-0.1-0.3-0.2-0.6-0.3-0.9c-0.2-0.6-0.4-1.2-0.6-1.6
				c-0.1-0.2-0.2-0.5-0.3-0.7c-0.1-0.2-0.2-0.4-0.2-0.6c-0.3-0.7-0.5-1.1-0.5-1.1s-0.4,0.3-1,0.9c-0.3,0.3-0.6,0.6-1,1.1
				s-0.8,0.9-1.2,1.5c-0.8,1.1-1.6,2.4-2.4,4c-0.3,0.8-0.6,1.6-0.9,2.5c-0.1,0.4-0.2,0.9-0.3,1.4c0,0.2-0.1,0.5-0.1,0.7
				C320.1,358.8,320,359,320,359.3"/>
			<path style="clip-path:url(#SVGID_00000016033908687443291610000011833960522028817301_);fill:#FFFFFF;" d="M315.3,361.3
				c1.2,1.2,2.1,2.6,2.8,4c0.7,1.4,1.2,2.7,1.6,4c0.4,1.2,0.6,2.3,0.8,3.1c0.2,0.8,0.2,1.2,0.2,1.2s-0.4,0.1-1.1,0.1
				c-0.7,0-1.7,0-2.9-0.1c-1.2-0.2-2.5-0.5-3.9-1.1c-1.3-0.6-2.8-1.5-4-2.9c-0.4-0.4-0.7-0.8-1-1.1c-0.3-0.4-0.6-0.8-0.9-1.2
				c-0.6-0.8-1.1-1.7-1.5-2.6c-0.4-0.9-0.8-1.8-1.1-2.6c-0.2-0.4-0.3-0.9-0.4-1.3c-0.1-0.4-0.2-0.8-0.3-1.2
				c-0.2-0.8-0.4-1.5-0.5-2.2c-0.1-0.3-0.1-0.6-0.2-0.9c0-0.3-0.1-0.6-0.1-0.8c-0.1-1-0.1-1.6-0.1-1.6s0.5,0.1,1.3,0.4
				c0.4,0.1,0.9,0.3,1.4,0.5c0.5,0.2,1.1,0.4,1.7,0.7c1.3,0.6,2.7,1.3,4.1,2.2c0.7,0.5,1.4,1,2.1,1.6c0.3,0.3,0.7,0.6,1,0.9
				c0.2,0.2,0.3,0.3,0.5,0.5C314.9,360.9,315.1,361.1,315.3,361.3"/>
			<path style="clip-path:url(#SVGID_00000016033908687443291610000011833960522028817301_);fill:#FFFFFF;" d="M315.2,339.6
				c-0.1,0.4-0.2,0.8-0.3,1.2c-0.1,0.4-0.1,0.8-0.1,1.2c-0.1,0.8-0.1,1.6,0,2.4c0.1,0.8,0.2,1.5,0.3,2.2c0.1,0.3,0.2,0.7,0.2,1
				c0.1,0.3,0.2,0.6,0.3,0.9c0.4,1.2,0.8,2.2,1.2,2.8c0.2,0.3,0.3,0.6,0.4,0.8c0.1,0.2,0.2,0.3,0.2,0.3s0.3-0.3,0.9-0.8
				c0.5-0.5,1.3-1.2,2.1-2.2c0.8-0.9,1.6-2,2.4-3.3c0.8-1.3,1.4-2.7,1.8-4.2c0.5-1.7,0.7-3.4,0.7-5c0-0.4,0-0.8,0-1.2
				c0-0.4,0-0.7,0-1.1c0-0.7-0.1-1.4-0.2-2c0-0.3-0.1-0.6-0.1-0.9c0-0.3-0.1-0.6-0.1-0.8c-0.1-0.5-0.2-1-0.3-1.3
				c-0.1-0.4-0.2-0.7-0.2-0.9c-0.1-0.2-0.1-0.3-0.1-0.3s-0.1,0.1-0.3,0.2c-0.2,0.1-0.5,0.3-0.8,0.5c-0.7,0.4-1.6,1.1-2.6,2
				c-0.5,0.5-1,1-1.5,1.6c-0.5,0.6-1,1.2-1.5,1.9c-0.5,0.7-0.9,1.5-1.3,2.3C315.8,337.8,315.5,338.6,315.2,339.6"/>
			<path style="clip-path:url(#SVGID_00000016033908687443291610000011833960522028817301_);fill:#FFFFFF;" d="M310.2,340.5
				c0.2,0.4,0.4,0.7,0.6,1.1c0.2,0.4,0.4,0.7,0.6,1.1c0.3,0.8,0.6,1.5,0.9,2.3c0.2,0.7,0.4,1.5,0.6,2.2c0.1,0.4,0.1,0.7,0.2,1
				c0.1,0.3,0.1,0.7,0.2,1c0.2,1.3,0.3,2.4,0.3,3.2c0,0.4,0,0.7,0,0.9c0,0.2,0,0.3,0,0.3s-0.4,0-1.1-0.1c-0.7-0.1-1.7-0.3-2.8-0.7
				c-1.1-0.4-2.4-1-3.6-1.9c-1.2-0.9-2.4-2.1-3.5-3.6c-1.1-1.7-2-3.7-2.5-5.6c-0.1-0.5-0.3-1-0.4-1.4c-0.1-0.2-0.1-0.5-0.2-0.7
				c0-0.2-0.1-0.5-0.1-0.7c-0.2-0.9-0.3-1.8-0.4-2.6c0-0.4-0.1-0.8-0.1-1.2c0-0.4,0-0.7,0-1.1c0-0.7,0-1.3,0-1.8
				c0-0.5,0-0.9,0.1-1.2c0-0.3,0-0.4,0-0.4s0.1,0.1,0.3,0.2c0.2,0.1,0.5,0.3,0.9,0.5c0.7,0.4,1.8,1,2.9,1.8c0.6,0.4,1.2,0.9,1.8,1.4
				c0.6,0.5,1.3,1.1,1.9,1.7c0.6,0.6,1.2,1.3,1.8,2C309.1,339,309.7,339.7,310.2,340.5"/>
			<path style="clip-path:url(#SVGID_00000016033908687443291610000011833960522028817301_);fill:#FFFFFF;" d="M313.8,319.2
				c-0.4,0.8-0.6,1.6-0.8,2.3c-0.1,0.4-0.2,0.8-0.3,1.2c-0.1,0.4-0.1,0.8-0.1,1.2c-0.1,0.8-0.1,1.5-0.1,2.2c0,0.7,0.1,1.4,0.2,2
				c0.1,0.6,0.2,1.2,0.3,1.7c0.1,0.5,0.3,0.9,0.4,1.3c0.2,0.7,0.4,1.1,0.4,1.1s0.4-0.2,1-0.6c0.6-0.4,1.5-0.9,2.4-1.7
				c0.2-0.2,0.5-0.4,0.7-0.6c0.2-0.2,0.5-0.4,0.7-0.7c0.5-0.5,1-1,1.4-1.5c0.5-0.5,0.9-1.1,1.3-1.8c0.4-0.6,0.8-1.3,1.1-2
				c0.2-0.4,0.3-0.8,0.5-1.2c0.2-0.4,0.3-0.8,0.4-1.2c0.1-0.4,0.2-0.8,0.3-1.2c0.1-0.4,0.2-0.8,0.3-1.2c0.3-1.5,0.4-3,0.5-4.3
				c0-0.6,0-1.2,0-1.8c0-0.5,0-1-0.1-1.4c-0.1-0.8-0.1-1.2-0.1-1.2s-0.4,0.1-1.2,0.4c-0.7,0.3-1.7,0.8-2.9,1.5
				c-1.1,0.7-2.3,1.6-3.5,2.8c-0.6,0.6-1.1,1.2-1.6,2C314.7,317.6,314.2,318.3,313.8,319.2"/>
			<path style="clip-path:url(#SVGID_00000016033908687443291610000011833960522028817301_);fill:#FFFFFF;" d="M308.7,319.1
				c0.4,0.8,0.6,1.6,0.8,2.5c0.1,0.4,0.2,0.8,0.3,1.2c0.1,0.4,0.2,0.8,0.2,1.2c0.1,0.8,0.2,1.5,0.2,2.3c0,0.7,0.1,1.4,0,2.1
				c0,0.7-0.1,1.3-0.1,1.8c0,0.5-0.1,1-0.1,1.4c-0.1,0.8-0.2,1.3-0.2,1.3s-0.4-0.1-1.1-0.3c-0.7-0.3-1.6-0.7-2.6-1.3
				c-0.3-0.2-0.5-0.3-0.8-0.5c-0.3-0.2-0.5-0.4-0.8-0.6c-0.5-0.4-1.1-0.9-1.6-1.5c-0.5-0.6-1.1-1.2-1.5-1.9
				c-0.5-0.7-0.9-1.5-1.3-2.4c-0.2-0.5-0.4-1-0.6-1.5c-0.2-0.5-0.3-1-0.4-1.5c-0.1-0.5-0.2-1-0.3-1.5c-0.1-0.5-0.2-1-0.2-1.5
				c-0.2-2-0.3-3.9-0.1-5.6c0.1-0.8,0.1-1.6,0.2-2.3c0.1-0.7,0.2-1.3,0.3-1.7c0.2-1,0.4-1.5,0.4-1.5s0.4,0.3,1.1,0.8
				c0.7,0.6,1.5,1.4,2.5,2.4c1,1,2.1,2.3,3.1,3.8c0.5,0.7,1,1.5,1.5,2.3C307.9,317.3,308.3,318.2,308.7,319.1"/>
			<path style="clip-path:url(#SVGID_00000016033908687443291610000011833960522028817301_);fill:#FFFFFF;" d="M315.7,298.9
				c-0.5,0.7-0.9,1.4-1.2,2.1c-0.3,0.7-0.6,1.5-0.8,2.2c-0.1,0.4-0.2,0.7-0.3,1.1c-0.1,0.4-0.1,0.7-0.2,1.1c-0.1,0.7-0.1,1.4-0.2,2
				c0,0.6,0,1.2,0,1.7c0,0.5,0.1,1,0.1,1.4c0.1,0.4,0.1,0.7,0.1,0.9c0,0.2,0.1,0.3,0.1,0.3s0.1,0,0.3-0.1c0.2-0.1,0.5-0.1,0.8-0.3
				c0.7-0.2,1.6-0.6,2.6-1.2c0.5-0.3,1.1-0.6,1.6-0.9c0.3-0.2,0.5-0.4,0.8-0.6c0.3-0.2,0.6-0.4,0.8-0.6c0.6-0.4,1.1-0.9,1.6-1.4
				c0.3-0.3,0.5-0.5,0.7-0.8c0.2-0.3,0.5-0.6,0.7-0.9c2-2.8,2.9-6,3.4-8.4c0.1-0.6,0.2-1.2,0.3-1.7c0.1-0.5,0.1-1,0.2-1.4
				c0.1-0.8,0.1-1.2,0.1-1.2s-0.5,0-1.2,0.2c-0.8,0.1-1.9,0.4-3,0.9c-0.6,0.2-1.2,0.5-1.9,0.8c-0.3,0.2-0.7,0.3-1,0.5
				c-0.3,0.2-0.7,0.4-1,0.6c-0.7,0.5-1.3,1-1.9,1.6c-0.3,0.3-0.6,0.6-0.9,1C316.3,298.2,316,298.5,315.7,298.9"/>
			<path style="clip-path:url(#SVGID_00000016033908687443291610000011833960522028817301_);fill:#FFFFFF;" d="M310.7,297.8
				c0.2,0.9,0.3,1.7,0.4,2.6c0.1,0.8,0.1,1.7,0.1,2.5c0,0.4,0,0.8-0.1,1.2c0,0.4-0.1,0.8-0.1,1.1c-0.1,0.7-0.2,1.4-0.3,2
				c-0.1,0.6-0.3,1.2-0.4,1.7c-0.1,0.5-0.3,1-0.4,1.4c-0.1,0.4-0.2,0.7-0.3,0.9c-0.1,0.2-0.1,0.3-0.1,0.3s-0.1,0-0.3-0.1
				c-0.2-0.1-0.4-0.2-0.7-0.4c-0.6-0.4-1.5-1-2.4-1.8c-0.5-0.4-0.9-0.9-1.4-1.4c-0.2-0.3-0.5-0.6-0.7-0.9c-0.2-0.3-0.4-0.6-0.7-0.9
				c-0.4-0.7-0.8-1.4-1.2-2.2c-0.2-0.4-0.3-0.8-0.5-1.3c-0.1-0.4-0.3-0.9-0.4-1.3c-0.2-1-0.4-2.1-0.5-3.1c-0.1-1-0.1-2.1,0-3.1
				c0-0.3,0-0.5,0-0.7c0-0.2,0-0.5,0.1-0.7c0.1-0.5,0.1-1,0.2-1.4c0.1-0.5,0.1-0.9,0.2-1.3c0-0.2,0.1-0.4,0.1-0.6
				c0-0.2,0.1-0.4,0.1-0.6c0.2-0.8,0.4-1.5,0.6-2.2c0.2-0.6,0.4-1.2,0.6-1.7c0.4-0.9,0.6-1.4,0.6-1.4s0.4,0.4,0.9,1.1
				c0.6,0.7,1.3,1.7,2.1,2.9c0.4,0.6,0.8,1.3,1.2,2c0.2,0.4,0.4,0.7,0.6,1.1c0.2,0.4,0.4,0.8,0.6,1.2c0.4,0.8,0.8,1.7,1.1,2.6
				c0.2,0.5,0.3,0.9,0.4,1.4C310.5,296.8,310.6,297.3,310.7,297.8"/>
			<path style="clip-path:url(#SVGID_00000016033908687443291610000011833960522028817301_);fill:#FFFFFF;" d="M320.9,279.3
				c-0.3,0.3-0.6,0.6-0.8,0.9c-0.3,0.3-0.5,0.6-0.7,1c-0.4,0.7-0.8,1.3-1.1,2c-0.3,0.7-0.6,1.4-0.8,2.1c-0.1,0.3-0.2,0.7-0.3,1
				c-0.1,0.3-0.2,0.6-0.2,1c-0.2,1.2-0.3,2.3-0.3,3.1c0,0.4,0,0.7,0,0.9c0,0.2,0,0.3,0,0.3s0.4,0,1.1-0.1c0.3-0.1,0.8-0.1,1.2-0.2
				c0.5-0.1,1-0.2,1.5-0.4c1.1-0.3,2.3-0.8,3.5-1.4c0.6-0.3,1.2-0.7,1.8-1.1c0.3-0.2,0.6-0.4,0.9-0.7c0.3-0.2,0.6-0.5,0.8-0.8
				c0.6-0.6,1.2-1.2,1.6-1.9c0.1-0.2,0.2-0.3,0.4-0.5c0.1-0.2,0.2-0.3,0.3-0.5c0.2-0.3,0.4-0.7,0.6-1c0.2-0.3,0.4-0.7,0.5-1
				c0.2-0.3,0.3-0.6,0.5-1c0.3-0.6,0.6-1.3,0.8-1.8c0.1-0.3,0.2-0.6,0.3-0.8c0.1-0.3,0.2-0.5,0.3-0.8c0.2-0.5,0.3-0.9,0.4-1.3
				c0.1-0.4,0.2-0.7,0.2-0.9c0-0.2,0.1-0.3,0.1-0.3s-0.5-0.1-1.2-0.1c-0.2,0-0.4,0-0.6,0c-0.2,0-0.5,0-0.7,0c-0.5,0-1.1,0.1-1.7,0.2
				c-1.3,0.2-2.7,0.5-4.2,1.2c-0.7,0.3-1.5,0.7-2.2,1.2C322.3,278.1,321.6,278.7,320.9,279.3"/>
			<path style="clip-path:url(#SVGID_00000016033908687443291610000011833960522028817301_);fill:#FFFFFF;" d="M316.2,277.2
				c0,0.5,0,0.9,0,1.3c0,0.4,0,0.9,0,1.3c-0.1,0.8-0.2,1.7-0.3,2.4c-0.2,0.8-0.3,1.5-0.5,2.2c-0.1,0.3-0.2,0.7-0.3,1
				c-0.1,0.3-0.2,0.6-0.3,0.9c-0.4,1.2-0.9,2.2-1.3,2.9c-0.2,0.3-0.3,0.6-0.4,0.8c-0.1,0.2-0.2,0.3-0.2,0.3s-0.4-0.3-0.9-0.8
				c-0.3-0.3-0.6-0.6-0.9-0.9c-0.3-0.4-0.7-0.8-1.1-1.3c-0.8-1-1.5-2.2-2.2-3.7c-0.3-0.7-0.6-1.5-0.8-2.4c-0.1-0.4-0.2-0.9-0.3-1.3
				c-0.1-0.5-0.1-0.9-0.2-1.4c-0.1-1.1-0.1-2.1,0-3.2c0-0.3,0-0.5,0.1-0.8c0-0.3,0.1-0.5,0.1-0.8c0.1-0.5,0.2-1,0.3-1.5
				s0.2-1,0.3-1.4c0.1-0.5,0.3-0.9,0.4-1.4c0.3-0.9,0.6-1.7,0.9-2.4c0.2-0.4,0.3-0.7,0.5-1.1c0.2-0.3,0.3-0.6,0.5-0.9
				c0.3-0.6,0.6-1.1,0.8-1.5c0.2-0.4,0.5-0.7,0.6-0.9c0.1-0.2,0.2-0.3,0.2-0.3s0.3,0.4,0.7,1.2c0.1,0.2,0.2,0.4,0.3,0.6
				c0.1,0.2,0.3,0.5,0.4,0.8c0.3,0.6,0.6,1.2,0.9,1.9c0.6,1.4,1.2,3,1.7,4.8c0.2,0.9,0.5,1.8,0.6,2.8
				C316,275.2,316.2,276.2,316.2,277.2"/>
			<path style="clip-path:url(#SVGID_00000016033908687443291610000011833960522028817301_);fill:#FFFFFF;" d="M333.1,251.6
				c0,0-0.5,0.1-1.2,0.4c-0.4,0.1-0.8,0.3-1.3,0.5c-0.3,0.1-0.5,0.2-0.8,0.4c-0.1,0.1-0.3,0.1-0.4,0.2c-0.1,0.1-0.3,0.2-0.4,0.2
				c-0.6,0.3-1.2,0.7-1.9,1.2c-0.3,0.2-0.6,0.5-1,0.7c-0.3,0.3-0.6,0.5-1,0.8c-0.3,0.3-0.6,0.6-0.9,0.9c-0.3,0.3-0.6,0.7-0.9,1
				c-0.6,0.7-1.1,1.5-1.6,2.4c-0.2,0.4-0.4,0.8-0.6,1.2c-0.2,0.4-0.3,0.8-0.5,1.2c-0.1,0.4-0.3,0.8-0.4,1.2
				c-0.1,0.4-0.2,0.8-0.2,1.2c-0.3,1.6-0.3,3.1-0.2,4.4c0.1,1.3,0.3,2.4,0.4,3.2c0.2,0.8,0.3,1.2,0.3,1.2s0.4-0.1,1-0.5
				c0.6-0.3,1.5-0.8,2.5-1.4c0.2-0.2,0.5-0.3,0.7-0.5c0.1-0.1,0.3-0.2,0.4-0.3c0.1-0.1,0.3-0.2,0.4-0.3c0.5-0.4,1-0.8,1.5-1.3
				c0.3-0.2,0.5-0.5,0.7-0.8c0.3-0.3,0.5-0.6,0.7-0.8c0.5-0.6,0.9-1.3,1.3-2c0.5-0.8,0.8-1.6,1.1-2.4c0.1-0.2,0.2-0.4,0.2-0.6
				s0.1-0.4,0.2-0.6c0.1-0.4,0.3-0.8,0.4-1.2c0.1-0.4,0.2-0.8,0.3-1.2c0.1-0.4,0.2-0.8,0.3-1.2c0.2-0.8,0.3-1.5,0.4-2.2
				c0.1-0.7,0.2-1.4,0.2-2c0.1-0.6,0.1-1.1,0.1-1.6C333.1,252.1,333.1,251.6,333.1,251.6"/>
			<path style="clip-path:url(#SVGID_00000016033908687443291610000011833960522028817301_);fill:#FFFFFF;" d="M434.7,426.5
				c-0.3,0.3-0.6,0.6-0.9,0.8c-0.3,0.3-0.6,0.5-0.9,0.7c-0.3,0.2-0.6,0.4-0.9,0.6c-0.3,0.2-0.6,0.3-1,0.5c-1.3,0.6-2.6,0.9-3.7,1
				c-1.1,0.1-2.1,0.1-2.8,0.1c-0.7-0.1-1.1-0.1-1.1-0.1s0.1-0.5,0.2-1.2c0.1-0.4,0.2-0.8,0.3-1.4c0.1-0.5,0.3-1.1,0.5-1.7
				c0.4-1.2,0.9-2.5,1.6-3.8c0.3-0.7,0.7-1.3,1.1-1.9c0.1-0.2,0.2-0.3,0.3-0.5c0.1-0.2,0.2-0.3,0.3-0.5c0.2-0.3,0.5-0.6,0.7-0.9
				c0.3-0.3,0.6-0.6,0.9-0.9c0.3-0.3,0.6-0.5,0.9-0.8c0.3-0.2,0.6-0.5,0.9-0.7c0.3-0.2,0.6-0.4,0.9-0.6c0.3-0.2,0.6-0.3,0.9-0.5
				c0.3-0.2,0.6-0.3,0.9-0.5c0.3-0.1,0.6-0.3,0.9-0.4c0.3-0.1,0.6-0.2,0.8-0.3c0.5-0.2,1.1-0.3,1.5-0.5c0.5-0.1,0.9-0.2,1.2-0.3
				c0.3-0.1,0.6-0.1,0.8-0.2c0.2,0,0.3,0,0.3,0s0,0.5-0.1,1.4c-0.1,0.9-0.2,2.1-0.5,3.5c-0.1,0.4-0.2,0.7-0.2,1.1
				c-0.1,0.4-0.2,0.7-0.3,1.1c-0.2,0.8-0.5,1.5-0.9,2.3C436.9,423.6,436,425.2,434.7,426.5"/>
			<path style="clip-path:url(#SVGID_00000016033908687443291610000011833960522028817301_);fill:#FFFFFF;" d="M436.1,432
				c-0.4-0.1-0.8-0.1-1.2-0.2c-0.4,0-0.8-0.1-1.1-0.1s-0.7,0-1.1,0c-0.4,0-0.7,0.1-1.1,0.1c-1.4,0.2-2.7,0.5-3.8,0.9
				c-1.1,0.4-2,0.8-2.7,1.1c-0.6,0.3-1,0.6-1,0.6s0.2,0.4,0.6,1.1c0.2,0.3,0.4,0.7,0.7,1.1c0.3,0.4,0.7,0.9,1.1,1.4
				c0.8,0.9,1.8,1.9,3.1,2.8c0.6,0.4,1.3,0.8,2.1,1.1c0.2,0.1,0.4,0.2,0.6,0.2c0.2,0.1,0.4,0.1,0.6,0.2c0.4,0.1,0.8,0.2,1.2,0.3
				c0.5,0.1,1,0.2,1.4,0.2c0.5,0,0.9,0.1,1.4,0.1c0.5,0,0.9,0,1.4,0c0.5,0,0.9-0.1,1.4-0.2c0.4-0.1,0.9-0.1,1.3-0.2
				c0.4-0.1,0.8-0.2,1.2-0.3c0.4-0.1,0.8-0.2,1.2-0.4c0.4-0.1,0.7-0.3,1.1-0.4c0.7-0.3,1.3-0.6,1.9-0.9c0.5-0.3,1-0.6,1.4-0.8
				c0.4-0.2,0.7-0.4,0.9-0.6c0.2-0.1,0.3-0.2,0.3-0.2s-0.4-0.4-1-0.9c-0.7-0.6-1.6-1.3-2.8-2.1c-0.3-0.2-0.6-0.4-0.9-0.6
				c-0.3-0.2-0.6-0.4-1-0.6c-0.7-0.4-1.4-0.8-2.2-1.1C439.6,432.9,437.9,432.3,436.1,432"/>
			<path style="clip-path:url(#SVGID_00000016033908687443291610000011833960522028817301_);fill:#FFFFFF;" d="M451.6,419
				c-0.5,0.7-1,1.3-1.5,1.9c-0.3,0.3-0.5,0.5-0.8,0.8c-0.3,0.2-0.6,0.5-0.9,0.7c-0.6,0.4-1.2,0.8-1.8,1c-0.6,0.3-1.1,0.5-1.7,0.7
				c-0.5,0.2-1.1,0.3-1.5,0.4c-0.5,0.1-0.9,0.2-1.2,0.2c-0.7,0.1-1.1,0.1-1.1,0.1s0-0.5,0-1.3c0-0.8,0.1-1.9,0.3-3.1
				c0.2-1.3,0.5-2.7,0.9-4.1c0.1-0.2,0.1-0.4,0.2-0.5c0.1-0.2,0.1-0.4,0.2-0.5c0.1-0.4,0.3-0.7,0.4-1.1c0.3-0.7,0.7-1.4,1.1-2
				c0.5-0.7,1-1.4,1.5-2c0.5-0.6,1.1-1.1,1.6-1.6c1.1-1,2.2-1.8,3.2-2.4c0.5-0.3,1-0.6,1.4-0.8c0.2-0.1,0.4-0.2,0.6-0.3
				c0.2-0.1,0.4-0.2,0.5-0.2c0.6-0.3,1-0.4,1-0.4s0.1,0.5,0.2,1.4c0.1,0.9,0.1,2.1,0.1,3.5c0,0.7-0.1,1.5-0.2,2.3
				c-0.1,0.8-0.3,1.6-0.5,2.5c-0.2,0.8-0.5,1.7-0.8,2.5C452.5,417.3,452.1,418.2,451.6,419"/>
			<path style="clip-path:url(#SVGID_00000016033908687443291610000011833960522028817301_);fill:#FFFFFF;" d="M453.9,424
				c-0.8,0-1.6,0.1-2.3,0.3c-0.4,0.1-0.7,0.2-1.1,0.3c-0.4,0.1-0.7,0.2-1,0.3c-0.7,0.2-1.3,0.5-1.9,0.8c-0.6,0.3-1.2,0.6-1.7,0.9
				c-0.5,0.3-1,0.6-1.4,0.9c-0.4,0.3-0.8,0.5-1.1,0.8c-0.6,0.5-0.9,0.8-0.9,0.8s0.3,0.4,0.8,0.9c0.5,0.6,1.2,1.3,2.2,2.1
				c1,0.8,2.1,1.5,3.5,2.1c0.2,0.1,0.3,0.1,0.5,0.2c0.2,0.1,0.4,0.1,0.5,0.2c0.4,0.1,0.7,0.2,1.1,0.3c0.8,0.2,1.6,0.3,2.5,0.2
				c1,0,1.9-0.1,2.8-0.3c0.9-0.2,1.8-0.4,2.7-0.8c1.7-0.6,3.2-1.5,4.5-2.3c0.6-0.4,1.2-0.9,1.7-1.2c0.2-0.2,0.5-0.4,0.7-0.6
				c0.2-0.2,0.4-0.4,0.6-0.5c0.7-0.6,1.1-1,1.1-1s-0.4-0.3-1.1-0.7c-0.7-0.4-1.8-1-3-1.5c-0.6-0.3-1.3-0.5-2.1-0.8
				c-0.7-0.2-1.5-0.5-2.3-0.7c-0.8-0.2-1.6-0.4-2.5-0.4C455.7,424.1,454.8,424,453.9,424"/>
			<path style="clip-path:url(#SVGID_00000016033908687443291610000011833960522028817301_);fill:#FFFFFF;" d="M467,408
				c-0.3,0.8-0.7,1.5-1.2,2.2c-0.4,0.6-0.9,1.2-1.4,1.8c-0.5,0.5-1,1-1.6,1.4c-0.1,0.1-0.3,0.2-0.4,0.3c-0.1,0.1-0.3,0.2-0.4,0.3
				c-0.3,0.2-0.5,0.3-0.8,0.5c-1,0.6-1.9,1-2.6,1.2c-0.3,0.1-0.6,0.2-0.8,0.2c-0.2,0-0.3,0.1-0.3,0.1s-0.1-0.5-0.2-1.2
				c-0.1-0.8-0.2-1.9-0.2-3.2c0-0.6,0-1.3,0-2c0-0.7,0.1-1.5,0.2-2.2c0.2-1.5,0.6-3,1.2-4.5c0.3-0.8,0.7-1.6,1.2-2.3
				c0.4-0.7,0.9-1.4,1.3-1.9c0.4-0.6,0.9-1.1,1.4-1.6c0.5-0.5,0.9-1,1.4-1.3c0.2-0.2,0.4-0.4,0.6-0.6c0.2-0.2,0.4-0.3,0.6-0.5
				c0.4-0.3,0.7-0.6,1-0.8c0.6-0.4,0.9-0.6,0.9-0.6s0.2,0.5,0.4,1.3c0.2,0.8,0.5,2,0.7,3.4c0.1,0.7,0.2,1.5,0.2,2.3
				c0,0.8,0,1.6-0.1,2.5c-0.1,0.9-0.2,1.8-0.4,2.7c-0.1,0.4-0.2,0.9-0.4,1.3c-0.1,0.2-0.1,0.4-0.2,0.7
				C467.2,407.6,467.1,407.8,467,408"/>
			<path style="clip-path:url(#SVGID_00000016033908687443291610000011833960522028817301_);fill:#FFFFFF;" d="M470.1,412.5
				c-0.8,0.2-1.5,0.4-2.2,0.7c-0.7,0.3-1.4,0.6-2,1c-0.6,0.4-1.2,0.8-1.8,1.2c-0.1,0.1-0.3,0.2-0.4,0.3c-0.1,0.1-0.3,0.2-0.4,0.3
				c-0.3,0.2-0.5,0.4-0.7,0.6c-0.9,0.8-1.6,1.6-2.1,2.1c-0.2,0.3-0.4,0.5-0.6,0.7c-0.1,0.2-0.2,0.3-0.2,0.3s0.3,0.3,0.9,0.8
				c0.6,0.4,1.4,1,2.5,1.6c0.5,0.3,1.1,0.5,1.8,0.8c0.6,0.2,1.3,0.4,2,0.6c1.5,0.3,3,0.3,4.7,0c0.9-0.2,1.9-0.5,2.7-0.9
				c0.9-0.4,1.7-0.8,2.5-1.3c0.8-0.5,1.5-1,2.2-1.6c0.7-0.5,1.3-1.1,1.8-1.7c0.1-0.1,0.3-0.3,0.4-0.4c0.1-0.1,0.3-0.3,0.4-0.4
				c0.2-0.3,0.5-0.5,0.7-0.8c0.4-0.5,0.8-0.9,1.1-1.3c0.6-0.8,0.9-1.2,0.9-1.2s-0.5-0.2-1.2-0.4c-0.8-0.2-1.9-0.6-3.2-0.8
				c-0.7-0.1-1.4-0.2-2.1-0.3c-0.8-0.1-1.6-0.2-2.4-0.2c-0.8,0-1.7,0-2.5,0.1c-0.4,0-0.9,0.1-1.3,0.2c-0.2,0-0.4,0.1-0.7,0.1
				C470.5,412.4,470.3,412.5,470.1,412.5"/>
			<path style="clip-path:url(#SVGID_00000016033908687443291610000011833960522028817301_);fill:#FFFFFF;" d="M480.3,394.1
				c-0.8,3.4-2.8,5.9-4.6,7.4c-0.9,0.8-1.7,1.3-2.3,1.7c-0.6,0.4-1,0.5-1,0.5s-0.2-0.4-0.4-1.2c-0.2-0.7-0.5-1.8-0.7-3.1
				c-0.1-0.6-0.2-1.3-0.3-2c-0.1-0.7-0.1-1.4-0.2-2.2c0-0.8,0-1.5,0.1-2.3c0.1-0.8,0.2-1.6,0.4-2.3c0.2-0.9,0.5-1.7,0.8-2.5
				c0.3-0.8,0.6-1.5,1-2.2c0.2-0.3,0.4-0.7,0.5-1c0.2-0.3,0.4-0.6,0.6-0.9c0.2-0.3,0.4-0.6,0.6-0.8c0.2-0.3,0.4-0.5,0.6-0.8
				c0.4-0.5,0.7-0.9,1-1.3c0.3-0.4,0.6-0.7,0.9-1c0.3-0.3,0.5-0.5,0.6-0.6c0.1-0.1,0.2-0.2,0.2-0.2s0.1,0.1,0.2,0.3s0.3,0.5,0.4,0.9
				c0.4,0.8,0.8,1.9,1.2,3.2c0.1,0.3,0.2,0.7,0.3,1.1c0.1,0.4,0.2,0.7,0.3,1.1c0.2,0.8,0.3,1.6,0.4,2.5
				C480.8,390.4,480.8,392.2,480.3,394.1"/>
			<path style="clip-path:url(#SVGID_00000016033908687443291610000011833960522028817301_);fill:#FFFFFF;" d="M484.1,397.9
				c-3,1.4-5.2,3.7-6.7,5.6c-0.8,1-1.3,1.9-1.7,2.5c-0.4,0.7-0.6,1.1-0.6,1.1s0.4,0.2,1,0.6c0.6,0.3,1.6,0.7,2.7,1.1
				c0.6,0.2,1.2,0.3,1.8,0.4c0.7,0.1,1.4,0.2,2.1,0.1c0.7,0,1.5-0.1,2.3-0.3c0.8-0.2,1.6-0.4,2.4-0.8c0.9-0.4,1.7-0.9,2.5-1.4
				c0.8-0.5,1.5-1.2,2.2-1.8c0.3-0.3,0.7-0.6,1-1c0.3-0.3,0.6-0.7,0.9-1c0.3-0.3,0.6-0.7,0.8-1c0.3-0.3,0.5-0.7,0.7-1
				c0.4-0.7,0.9-1.3,1.2-1.8c0.3-0.6,0.6-1.1,0.8-1.5c0.2-0.4,0.4-0.8,0.5-1c0.1-0.2,0.2-0.4,0.2-0.4s-0.1,0-0.3-0.1
				c-0.2,0-0.5-0.1-1-0.1c-0.8-0.1-2-0.2-3.3-0.1c-0.3,0-0.7,0-1,0c-0.4,0-0.7,0-1.1,0.1c-0.8,0.1-1.6,0.2-2.4,0.3
				C487.5,396.6,485.8,397.1,484.1,397.9"/>
			<path style="clip-path:url(#SVGID_00000016033908687443291610000011833960522028817301_);fill:#FFFFFF;" d="M491.1,377.7
				c-0.2,3.5-1.8,6.4-3.3,8.3c-0.4,0.5-0.7,0.9-1.1,1.3c-0.3,0.4-0.7,0.7-0.9,0.9c-0.5,0.5-0.9,0.7-0.9,0.7s-0.2-0.4-0.6-1.1
				c-0.3-0.7-0.8-1.7-1.2-2.8c-0.1-0.3-0.2-0.6-0.3-0.9c-0.1-0.3-0.2-0.6-0.3-1c-0.2-0.7-0.4-1.4-0.5-2.1c-0.1-0.7-0.3-1.5-0.3-2.3
				c0-0.4,0-0.8-0.1-1.2c0-0.2,0-0.4,0-0.6c0-0.2,0-0.4,0-0.6c0.2-3.6,1.4-6.6,2.5-8.8c0.1-0.3,0.3-0.5,0.4-0.8
				c0.1-0.3,0.3-0.5,0.4-0.7c0.3-0.4,0.5-0.8,0.7-1.1c0.4-0.6,0.7-1,0.7-1s0.3,0.4,0.8,1.1c0.2,0.3,0.5,0.8,0.8,1.3
				c0.3,0.5,0.6,1.1,0.9,1.7s0.6,1.3,0.9,2.1c0.3,0.7,0.5,1.5,0.7,2.4C491,373.9,491.2,375.7,491.1,377.7"/>
			<path style="clip-path:url(#SVGID_00000016033908687443291610000011833960522028817301_);fill:#FFFFFF;" d="M495.4,380.6
				c-2.7,2-4.5,4.7-5.6,6.9c-0.3,0.6-0.5,1.1-0.8,1.6c-0.2,0.5-0.4,0.9-0.5,1.3c-0.3,0.7-0.4,1.2-0.4,1.2s0.4,0.2,1.1,0.3
				c0.7,0.2,1.7,0.4,2.8,0.5c0.3,0,0.6,0,0.9,0c0.3,0,0.6,0,1,0c0.7,0,1.4-0.1,2.1-0.3c0.7-0.2,1.5-0.4,2.2-0.7
				c0.4-0.2,0.7-0.3,1.1-0.6c0.2-0.1,0.4-0.2,0.6-0.3c0.2-0.1,0.4-0.2,0.5-0.4c3.3-2.3,5.5-5.9,6.9-8.8c0.1-0.2,0.2-0.4,0.2-0.5
				c0.1-0.2,0.1-0.4,0.2-0.5c0.1-0.3,0.3-0.7,0.4-1c0.2-0.6,0.4-1.2,0.6-1.7c0.3-0.9,0.4-1.5,0.4-1.5s-0.5,0-1.3,0.1
				c-0.4,0-0.9,0.1-1.4,0.2c-0.6,0.1-1.2,0.2-1.8,0.4c-0.7,0.1-1.4,0.3-2.1,0.6c-0.7,0.2-1.5,0.5-2.3,0.8
				C498.6,378.7,496.9,379.5,495.4,380.6"/>
			<path style="clip-path:url(#SVGID_00000016033908687443291610000011833960522028817301_);fill:#FFFFFF;" d="M499,359.3
				c0.2,1.7,0,3.4-0.4,4.9c-0.4,1.5-0.9,2.8-1.5,3.9c-0.6,1.1-1.2,2-1.6,2.5c-0.5,0.6-0.8,0.9-0.8,0.9s-0.3-0.3-0.8-0.9
				c-0.5-0.6-1-1.5-1.7-2.5c-0.6-1.1-1.3-2.3-1.8-3.7c-0.5-1.4-0.9-2.9-1.1-4.5c0-0.4-0.1-0.9-0.1-1.3c0-0.4,0-0.9,0-1.3
				c0-0.8,0.1-1.7,0.2-2.4c0.1-0.8,0.2-1.5,0.4-2.2c0.1-0.3,0.2-0.7,0.3-1c0.1-0.3,0.2-0.6,0.3-0.9c0.2-0.6,0.4-1.2,0.6-1.6
				c0.1-0.2,0.2-0.5,0.3-0.7c0.1-0.2,0.2-0.4,0.2-0.6c0.3-0.7,0.5-1.1,0.5-1.1s0.4,0.3,1,0.9c0.3,0.3,0.6,0.6,1,1.1
				c0.4,0.4,0.8,0.9,1.2,1.5c0.8,1.1,1.6,2.4,2.4,4c0.3,0.8,0.6,1.6,0.9,2.5c0.1,0.4,0.2,0.9,0.3,1.4c0,0.2,0.1,0.5,0.1,0.7
				C499,358.8,499,359,499,359.3"/>
			<path style="clip-path:url(#SVGID_00000016033908687443291610000011833960522028817301_);fill:#FFFFFF;" d="M503.8,361.3
				c-1.2,1.2-2.1,2.6-2.8,4c-0.7,1.4-1.2,2.7-1.6,4c-0.4,1.2-0.6,2.3-0.8,3.1c-0.2,0.8-0.2,1.2-0.2,1.2s0.4,0.1,1.1,0.1
				c0.7,0,1.7,0,2.9-0.1c1.2-0.2,2.5-0.5,3.9-1.1c1.3-0.6,2.8-1.5,4-2.9c0.4-0.4,0.7-0.8,1-1.1c0.3-0.4,0.6-0.8,0.9-1.2
				c0.6-0.8,1.1-1.7,1.5-2.6c0.4-0.9,0.8-1.8,1.1-2.6c0.2-0.4,0.3-0.9,0.4-1.3c0.1-0.4,0.2-0.8,0.3-1.2c0.2-0.8,0.4-1.5,0.5-2.2
				c0.1-0.3,0.1-0.6,0.2-0.9c0-0.3,0.1-0.6,0.1-0.8c0.1-1,0.1-1.6,0.1-1.6s-0.5,0.1-1.3,0.4c-0.4,0.1-0.9,0.3-1.4,0.5
				c-0.5,0.2-1.1,0.4-1.7,0.7c-1.3,0.6-2.7,1.3-4.1,2.2c-0.7,0.5-1.4,1-2.1,1.6c-0.3,0.3-0.7,0.6-1,0.9c-0.2,0.2-0.3,0.3-0.5,0.5
				C504.1,360.9,503.9,361.1,503.8,361.3"/>
			<path style="clip-path:url(#SVGID_00000016033908687443291610000011833960522028817301_);fill:#FFFFFF;" d="M503.8,339.6
				c0.1,0.4,0.2,0.8,0.3,1.2c0.1,0.4,0.1,0.8,0.1,1.2c0.1,0.8,0.1,1.6,0,2.4c-0.1,0.8-0.2,1.5-0.3,2.2c-0.1,0.3-0.2,0.7-0.2,1
				c-0.1,0.3-0.2,0.6-0.3,0.9c-0.4,1.2-0.8,2.2-1.2,2.8c-0.2,0.3-0.3,0.6-0.4,0.8c-0.1,0.2-0.2,0.3-0.2,0.3s-0.3-0.3-0.9-0.8
				c-0.5-0.5-1.3-1.2-2.1-2.2c-0.8-0.9-1.6-2-2.4-3.3c-0.8-1.3-1.4-2.7-1.8-4.2c-0.5-1.7-0.7-3.4-0.7-5c0-0.4,0-0.8,0-1.2
				c0-0.4,0-0.7,0-1.1c0-0.7,0.1-1.4,0.2-2c0-0.3,0.1-0.6,0.1-0.9c0-0.3,0.1-0.6,0.1-0.8c0.1-0.5,0.2-1,0.3-1.3
				c0.1-0.4,0.2-0.7,0.2-0.9c0.1-0.2,0.1-0.3,0.1-0.3s0.1,0.1,0.3,0.2c0.2,0.1,0.5,0.3,0.8,0.5c0.7,0.4,1.6,1.1,2.6,2
				c0.5,0.5,1,1,1.5,1.6c0.5,0.6,1,1.2,1.5,1.9c0.5,0.7,0.9,1.5,1.3,2.3C503.2,337.8,503.5,338.6,503.8,339.6"/>
			<path style="clip-path:url(#SVGID_00000016033908687443291610000011833960522028817301_);fill:#FFFFFF;" d="M508.8,340.5
				c-0.2,0.4-0.4,0.7-0.6,1.1c-0.2,0.4-0.4,0.7-0.6,1.1c-0.3,0.8-0.6,1.5-0.9,2.3c-0.2,0.7-0.4,1.5-0.6,2.2c-0.1,0.4-0.1,0.7-0.2,1
				c-0.1,0.3-0.1,0.7-0.2,1c-0.2,1.3-0.3,2.4-0.3,3.2c0,0.4,0,0.7,0,0.9c0,0.2,0,0.3,0,0.3s0.4,0,1.1-0.1c0.7-0.1,1.7-0.3,2.8-0.7
				c1.1-0.4,2.4-1,3.6-1.9c1.2-0.9,2.4-2.1,3.5-3.6c1.1-1.7,2-3.7,2.5-5.6c0.1-0.5,0.3-1,0.4-1.4c0.1-0.2,0.1-0.5,0.2-0.7
				c0-0.2,0.1-0.5,0.1-0.7c0.2-0.9,0.3-1.8,0.4-2.6c0-0.4,0.1-0.8,0.1-1.2c0-0.4,0-0.7,0-1.1c0-0.7,0-1.3,0-1.8c0-0.5,0-0.9-0.1-1.2
				c0-0.3,0-0.4,0-0.4s-0.1,0.1-0.3,0.2c-0.2,0.1-0.5,0.3-0.9,0.5c-0.7,0.4-1.8,1-2.9,1.8c-0.6,0.4-1.2,0.9-1.8,1.4
				c-0.6,0.5-1.3,1.1-1.9,1.7c-0.6,0.6-1.2,1.3-1.8,2C509.9,339,509.3,339.7,508.8,340.5"/>
			<path style="clip-path:url(#SVGID_00000016033908687443291610000011833960522028817301_);fill:#FFFFFF;" d="M505.3,319.2
				c0.4,0.8,0.6,1.6,0.8,2.3c0.1,0.4,0.2,0.8,0.3,1.2c0.1,0.4,0.1,0.8,0.1,1.2c0.1,0.8,0.1,1.5,0.1,2.2c0,0.7-0.1,1.4-0.2,2
				c-0.1,0.6-0.2,1.2-0.3,1.7c-0.1,0.5-0.3,0.9-0.4,1.3c-0.2,0.7-0.4,1.1-0.4,1.1s-0.4-0.2-1-0.6c-0.6-0.4-1.5-0.9-2.4-1.7
				c-0.2-0.2-0.5-0.4-0.7-0.6c-0.2-0.2-0.5-0.4-0.7-0.7c-0.5-0.5-1-1-1.4-1.5c-0.5-0.5-0.9-1.1-1.3-1.8c-0.4-0.6-0.8-1.3-1.1-2
				c-0.2-0.4-0.3-0.8-0.5-1.2c-0.2-0.4-0.3-0.8-0.4-1.2c-0.1-0.4-0.2-0.8-0.3-1.2c-0.1-0.4-0.2-0.8-0.3-1.2c-0.3-1.5-0.4-3-0.5-4.3
				c0-0.6,0-1.2,0-1.8c0-0.5,0-1,0.1-1.4c0.1-0.8,0.1-1.2,0.1-1.2s0.4,0.1,1.2,0.4c0.7,0.3,1.7,0.8,2.9,1.5c1.1,0.7,2.3,1.6,3.5,2.8
				c0.6,0.6,1.1,1.2,1.6,2C504.4,317.6,504.9,318.3,505.3,319.2"/>
			<path style="clip-path:url(#SVGID_00000016033908687443291610000011833960522028817301_);fill:#FFFFFF;" d="M510.3,319.1
				c-0.4,0.8-0.6,1.6-0.8,2.5c-0.1,0.4-0.2,0.8-0.3,1.2c-0.1,0.4-0.2,0.8-0.2,1.2c-0.1,0.8-0.2,1.5-0.2,2.3c0,0.7-0.1,1.4,0,2.1
				c0,0.7,0.1,1.3,0.1,1.8c0,0.5,0.1,1,0.1,1.4c0.1,0.8,0.2,1.3,0.2,1.3s0.4-0.1,1.1-0.3c0.7-0.3,1.6-0.7,2.6-1.3
				c0.3-0.2,0.5-0.3,0.8-0.5c0.3-0.2,0.5-0.4,0.8-0.6c0.5-0.4,1.1-0.9,1.6-1.5c0.5-0.6,1.1-1.2,1.5-1.9c0.5-0.7,0.9-1.5,1.3-2.4
				c0.2-0.5,0.4-1,0.6-1.5c0.2-0.5,0.3-1,0.4-1.5c0.1-0.5,0.2-1,0.3-1.5c0.1-0.5,0.2-1,0.2-1.5c0.2-2,0.3-3.9,0.1-5.6
				c-0.1-0.8-0.1-1.6-0.2-2.3c-0.1-0.7-0.2-1.3-0.3-1.7c-0.2-1-0.4-1.5-0.4-1.5s-0.4,0.3-1.1,0.8s-1.5,1.4-2.5,2.4
				c-1,1-2.1,2.3-3.1,3.8c-0.5,0.7-1,1.5-1.5,2.3C511.1,317.3,510.7,318.2,510.3,319.1"/>
			<path style="clip-path:url(#SVGID_00000016033908687443291610000011833960522028817301_);fill:#FFFFFF;" d="M503.3,298.9
				c0.5,0.7,0.9,1.4,1.2,2.1c0.3,0.7,0.6,1.5,0.8,2.2c0.1,0.4,0.2,0.7,0.3,1.1c0.1,0.4,0.1,0.7,0.2,1.1c0.1,0.7,0.1,1.4,0.2,2
				c0,0.6,0,1.2,0,1.7c0,0.5-0.1,1-0.1,1.4c-0.1,0.4-0.1,0.7-0.1,0.9c0,0.2-0.1,0.3-0.1,0.3s-0.1,0-0.3-0.1
				c-0.2-0.1-0.5-0.1-0.8-0.3c-0.7-0.2-1.6-0.6-2.6-1.2c-0.5-0.3-1.1-0.6-1.6-0.9c-0.3-0.2-0.5-0.4-0.8-0.6
				c-0.3-0.2-0.6-0.4-0.8-0.6c-0.6-0.4-1.1-0.9-1.6-1.4c-0.3-0.3-0.5-0.5-0.7-0.8c-0.2-0.3-0.5-0.6-0.7-0.9c-2-2.8-2.9-6-3.4-8.4
				c-0.1-0.6-0.2-1.2-0.3-1.7c-0.1-0.5-0.1-1-0.2-1.4c-0.1-0.8-0.1-1.2-0.1-1.2s0.5,0,1.2,0.2c0.8,0.1,1.9,0.4,3,0.9
				c0.6,0.2,1.2,0.5,1.9,0.8c0.3,0.2,0.7,0.3,1,0.5c0.3,0.2,0.7,0.4,1,0.6c0.7,0.5,1.3,1,1.9,1.6c0.3,0.3,0.6,0.6,0.9,1
				C502.8,298.2,503,298.5,503.3,298.9"/>
			<path style="clip-path:url(#SVGID_00000016033908687443291610000011833960522028817301_);fill:#FFFFFF;" d="M508.3,297.8
				c-0.2,0.9-0.3,1.7-0.4,2.6c-0.1,0.8-0.1,1.7-0.1,2.5c0,0.4,0,0.8,0.1,1.2c0,0.4,0.1,0.8,0.1,1.1c0.1,0.7,0.2,1.4,0.3,2
				c0.1,0.6,0.3,1.2,0.4,1.7c0.1,0.5,0.3,1,0.4,1.4c0.1,0.4,0.2,0.7,0.3,0.9c0.1,0.2,0.1,0.3,0.1,0.3s0.1,0,0.3-0.1
				c0.2-0.1,0.4-0.2,0.7-0.4c0.6-0.4,1.5-1,2.4-1.8c0.5-0.4,0.9-0.9,1.4-1.4c0.2-0.3,0.5-0.6,0.7-0.9c0.2-0.3,0.4-0.6,0.7-0.9
				c0.4-0.7,0.8-1.4,1.2-2.2c0.2-0.4,0.3-0.8,0.5-1.3c0.1-0.4,0.3-0.9,0.4-1.3c0.2-1,0.4-2.1,0.5-3.1c0.1-1,0.1-2.1,0-3.1
				c0-0.3,0-0.5,0-0.7c0-0.2,0-0.5-0.1-0.7c-0.1-0.5-0.1-1-0.2-1.4c-0.1-0.5-0.1-0.9-0.2-1.3c0-0.2-0.1-0.4-0.1-0.6
				c0-0.2-0.1-0.4-0.1-0.6c-0.2-0.8-0.4-1.5-0.6-2.2c-0.2-0.6-0.4-1.2-0.6-1.7c-0.4-0.9-0.6-1.4-0.6-1.4s-0.4,0.4-0.9,1.1
				c-0.6,0.7-1.3,1.7-2.1,2.9c-0.4,0.6-0.8,1.3-1.2,2c-0.2,0.4-0.4,0.7-0.6,1.1c-0.2,0.4-0.4,0.8-0.6,1.2c-0.4,0.8-0.8,1.7-1.1,2.6
				c-0.2,0.5-0.3,0.9-0.4,1.4C508.5,296.8,508.4,297.3,508.3,297.8"/>
			<path style="clip-path:url(#SVGID_00000016033908687443291610000011833960522028817301_);fill:#FFFFFF;" d="M498.1,279.3
				c0.3,0.3,0.6,0.6,0.8,0.9c0.3,0.3,0.5,0.6,0.7,1c0.4,0.7,0.8,1.3,1.1,2c0.3,0.7,0.6,1.4,0.8,2.1c0.1,0.3,0.2,0.7,0.3,1
				c0.1,0.3,0.2,0.6,0.2,1c0.2,1.2,0.3,2.3,0.3,3.1c0,0.4,0,0.7,0,0.9c0,0.2,0,0.3,0,0.3s-0.4,0-1.1-0.1c-0.3-0.1-0.8-0.1-1.2-0.2
				c-0.5-0.1-1-0.2-1.5-0.4c-1.1-0.3-2.3-0.8-3.5-1.4c-0.6-0.3-1.2-0.7-1.8-1.1c-0.3-0.2-0.6-0.4-0.9-0.7c-0.3-0.2-0.6-0.5-0.8-0.8
				c-0.6-0.6-1.2-1.2-1.6-1.9c-0.1-0.2-0.2-0.3-0.4-0.5c-0.1-0.2-0.2-0.3-0.3-0.5c-0.2-0.3-0.4-0.7-0.6-1c-0.2-0.3-0.4-0.7-0.5-1
				c-0.2-0.3-0.3-0.6-0.5-1c-0.3-0.6-0.6-1.3-0.8-1.8c-0.1-0.3-0.2-0.6-0.3-0.8c-0.1-0.3-0.2-0.5-0.3-0.8c-0.2-0.5-0.3-0.9-0.4-1.3
				c-0.1-0.4-0.2-0.7-0.2-0.9c0-0.2-0.1-0.3-0.1-0.3s0.5-0.1,1.2-0.1c0.2,0,0.4,0,0.6,0c0.2,0,0.5,0,0.7,0c0.5,0,1.1,0.1,1.7,0.2
				c1.3,0.2,2.7,0.5,4.2,1.2c0.7,0.3,1.5,0.7,2.2,1.2C496.8,278.1,497.4,278.7,498.1,279.3"/>
			<path style="clip-path:url(#SVGID_00000016033908687443291610000011833960522028817301_);fill:#FFFFFF;" d="M502.8,277.2
				c0,0.5,0,0.9,0,1.3c0,0.4,0,0.9,0,1.3c0.1,0.8,0.2,1.7,0.3,2.4c0.2,0.8,0.3,1.5,0.5,2.2c0.1,0.3,0.2,0.7,0.3,1
				c0.1,0.3,0.2,0.6,0.3,0.9c0.4,1.2,0.9,2.2,1.3,2.9c0.2,0.3,0.3,0.6,0.4,0.8c0.1,0.2,0.2,0.3,0.2,0.3s0.4-0.3,0.9-0.8
				c0.3-0.3,0.6-0.6,0.9-0.9c0.3-0.4,0.7-0.8,1.1-1.3c0.8-1,1.5-2.2,2.2-3.7c0.3-0.7,0.6-1.5,0.8-2.4c0.1-0.4,0.2-0.9,0.3-1.3
				c0.1-0.5,0.1-0.9,0.2-1.4c0.1-1.1,0.1-2.1,0-3.2c0-0.3,0-0.5-0.1-0.8c0-0.3-0.1-0.5-0.1-0.8c-0.1-0.5-0.2-1-0.3-1.5
				c-0.1-0.5-0.2-1-0.3-1.4c-0.1-0.5-0.3-0.9-0.4-1.4c-0.3-0.9-0.6-1.7-0.9-2.4c-0.2-0.4-0.3-0.7-0.5-1.1c-0.2-0.3-0.3-0.6-0.5-0.9
				c-0.3-0.6-0.6-1.1-0.8-1.5c-0.2-0.4-0.5-0.7-0.6-0.9c-0.1-0.2-0.2-0.3-0.2-0.3s-0.3,0.4-0.7,1.2c-0.1,0.2-0.2,0.4-0.3,0.6
				c-0.1,0.2-0.3,0.5-0.4,0.8c-0.3,0.6-0.6,1.2-0.9,1.9c-0.6,1.4-1.2,3-1.7,4.8c-0.2,0.9-0.5,1.8-0.6,2.8
				C503,275.2,502.8,276.2,502.8,277.2"/>
			<path style="clip-path:url(#SVGID_00000016033908687443291610000011833960522028817301_);fill:#FFFFFF;" d="M486,251.6
				c0,0,0.5,0.1,1.2,0.4c0.4,0.1,0.8,0.3,1.3,0.5c0.3,0.1,0.5,0.2,0.8,0.4c0.1,0.1,0.3,0.1,0.4,0.2c0.1,0.1,0.3,0.2,0.4,0.2
				c0.6,0.3,1.2,0.7,1.9,1.2c0.3,0.2,0.6,0.5,1,0.7c0.3,0.3,0.6,0.5,1,0.8c0.3,0.3,0.6,0.6,0.9,0.9c0.3,0.3,0.6,0.7,0.9,1
				c0.6,0.7,1.1,1.5,1.6,2.4c0.2,0.4,0.4,0.8,0.6,1.2c0.2,0.4,0.3,0.8,0.5,1.2c0.1,0.4,0.3,0.8,0.4,1.2c0.1,0.4,0.2,0.8,0.2,1.2
				c0.3,1.6,0.3,3.1,0.2,4.4c-0.1,1.3-0.3,2.4-0.4,3.2c-0.2,0.8-0.3,1.2-0.3,1.2s-0.4-0.1-1-0.5c-0.6-0.3-1.5-0.8-2.5-1.4
				c-0.2-0.2-0.5-0.3-0.7-0.5c-0.1-0.1-0.3-0.2-0.4-0.3c-0.1-0.1-0.3-0.2-0.4-0.3c-0.5-0.4-1-0.8-1.5-1.3c-0.3-0.2-0.5-0.5-0.7-0.8
				c-0.3-0.3-0.5-0.6-0.7-0.8c-0.5-0.6-0.9-1.3-1.3-2c-0.5-0.8-0.8-1.6-1.1-2.4c-0.1-0.2-0.1-0.4-0.2-0.6c-0.1-0.2-0.1-0.4-0.2-0.6
				c-0.1-0.4-0.3-0.8-0.4-1.2c-0.1-0.4-0.2-0.8-0.3-1.2c-0.1-0.4-0.2-0.8-0.3-1.2c-0.2-0.8-0.3-1.5-0.4-2.2c-0.1-0.7-0.2-1.4-0.2-2
				c-0.1-0.6-0.1-1.1-0.1-1.6C485.9,252.1,486,251.6,486,251.6"/>
			<path style="clip-path:url(#SVGID_00000016033908687443291610000011833960522028817301_);fill:#FFFFFF;" d="M414.3,433.1
				c0,3-2.5,5.5-5.5,5.5c-3,0-5.5-2.5-5.5-5.5c0-3,2.5-5.5,5.5-5.5C411.8,427.6,414.3,430.1,414.3,433.1"/>
			
				<path style="clip-path:url(#SVGID_00000016033908687443291610000011833960522028817301_);fill:none;stroke:#FFFFFF;stroke-width:5.2444;stroke-linecap:round;stroke-linejoin:round;stroke-miterlimit:10;" d="
				M406.7,417.4c0,0-0.9-35.1,58.8-42.9l-0.3-65.4c0,0-7.6-2.7-26.3,2.7"/>
			
				<path style="clip-path:url(#SVGID_00000016033908687443291610000011833960522028817301_);fill:none;stroke:#FFFFFF;stroke-width:5.2444;stroke-linecap:round;stroke-linejoin:round;stroke-miterlimit:10;" d="
				M406.1,417.4c0,0,0.9-35.1-58.8-42.9l0.3-65.4c0,0,10.6-2.7,29.3,2.7"/>
		</g>
		<g style="clip-path:url(#SVGID_00000040538539553982210160000003974469690268985985_);">
			<defs>
				<path id="SVGID_00000033344151495186516490000005736624217727106464_" d="M277.8,373.1V137.5l132.3-30.2l132.3,30.2v235.6
					c0,55.4-111.5,111.1-132.3,113.4C389.3,484.2,277.8,428.5,277.8,373.1 M262.7,124.5v248.6c0,70.8,129.7,129.5,147.4,129.5
					s147.4-58.7,147.4-129.5V124.5L410.1,90.8L262.7,124.5z"/>
			</defs>
			<clipPath id="SVGID_00000062161687706679747230000005365558271899698331_">
				<use xlink:href="#SVGID_00000033344151495186516490000005736624217727106464_"  style="overflow:visible;"/>
			</clipPath>
			
				<linearGradient id="SVGID_00000094596931415673130680000005802672702688783792_" gradientUnits="userSpaceOnUse" x1="0.636" y1="595.338" x2="1.9471" y2="595.338" gradientTransform="matrix(288.933 -166.8156 166.8156 288.933 -99289.1172 -171492.2812)">
				<stop  offset="0" style="stop-color:#E0C15B"/>
				<stop  offset="0.1613" style="stop-color:#E0C15B"/>
				<stop  offset="0.3028" style="stop-color:#E2C35B"/>
				<stop  offset="0.3538" style="stop-color:#E9C95A"/>
				<stop  offset="0.3595" style="stop-color:#EACA5A"/>
				<stop  offset="0.4647" style="stop-color:#F6D559"/>
				<stop  offset="0.5891" style="stop-color:#FFDE58"/>
				<stop  offset="0.5976" style="stop-color:#F9D754"/>
				<stop  offset="0.6266" style="stop-color:#E9C349"/>
				<stop  offset="0.6602" style="stop-color:#DEB541"/>
				<stop  offset="0.7018" style="stop-color:#D7AD3C"/>
				<stop  offset="0.7764" style="stop-color:#D5AB3B"/>
				<stop  offset="1" style="stop-color:#D5AB3B"/>
			</linearGradient>
			
				<polygon style="clip-path:url(#SVGID_00000062161687706679747230000005365558271899698331_);fill:url(#SVGID_00000094596931415673130680000005802672702688783792_);" points="
				336.4,630.3 735.8,399.7 483.8,-36.8 84.4,193.8 			"/>
		</g>
		<g style="clip-path:url(#SVGID_00000040538539553982210160000003974469690268985985_);">
			<defs>
				<rect id="SVGID_00000124872069556723603260000000264343142376008596_" x="185.1" y="54.9" width="472" height="472"/>
			</defs>
			<clipPath id="SVGID_00000144305636486381721140000006060621652173522576_">
				<use xlink:href="#SVGID_00000124872069556723603260000000264343142376008596_"  style="overflow:visible;"/>
			</clipPath>
			<path style="clip-path:url(#SVGID_00000144305636486381721140000006060621652173522576_);fill:#FFFFFF;" d="M387.7,309.1
				c0.8-2,1.9-3.6,3-5.4c1.9-2.9,6.5-7.5,8.8-10.1c2.5-2.7,5.2-5.3,7.9-7.9c3-2.9,3.7-3.8,6.5-6.9c1.4-1.5,2.8-3.1,4.1-4.7
				c1.1-1.4,2.2-2.8,3.2-4.2c2.7-3.8,4.9-7.9,6.2-12.3c0.9-3.2,1.4-6.4,1.5-9.6c0-1.7,0-3.5-0.3-5.2c-0.2-1.5-0.4-3.1-0.8-4.6
				c-0.4-1.6-0.9-3.2-1.3-4.8c0,0,0-0.1,0-0.1c0,0,0,0,0.1,0c0.1,0.2,0.3,0.4,0.4,0.6c1.7,2.9,3.3,5.8,4.4,9
				c0.6,1.8,1.2,3.6,1.6,5.4c0.4,1.5,0.6,3.1,0.8,4.6c0.5,5,0,10-1.7,14.8c-0.8,2.4-2,4.7-3.3,6.9c-1.3,2.2-2.8,4.3-4.4,6.3
				c-2,2.4-4.1,4.7-6.3,6.8c-3.2,3.1-6.7,6.1-10.1,9c-2.5,2.1-5,4.3-7.4,6.5c-2.2,2-4.1,3.6-6,5.9"/>
			<path style="clip-path:url(#SVGID_00000144305636486381721140000006060621652173522576_);fill:#FFFFFF;" d="M406.1,309.3
				c2.8-3,11.8-10.8,14.9-13.5c3.4-3,6.9-6,10.2-9.1c2.1-2,4.2-4.1,6-6.4c3-3.7,5.2-7.8,6.5-12.4c0.9-3.3,1.3-6.6,1.2-10l0.1,0
				c0.7,1.9,1.2,3.7,1.5,5.7c0.3,2,0.5,4.1,0.4,6.1c0,0.2,0,0.4,0,0.5c0,0.2,0,0.3-0.1,0.5c-0.1,2.4-0.5,4.7-1.2,7
				c-0.4,1.3-0.9,2.6-1.4,3.9c-0.4,0.9-0.8,1.8-1.3,2.6c-1.5,2.9-3.5,5.5-5.7,7.9c-2.7,2.9-5.6,5.5-8.8,8c-3.3,2.5-8.9,6.7-12.2,9.2
				"/>
			<path style="clip-path:url(#SVGID_00000144305636486381721140000006060621652173522576_);fill:#FFFFFF;" d="M432.5,226
				c-1-0.1-2.1-0.3-3.1-0.4c-2.2-0.4-4.4-0.7-6.7-0.6c-2.5,0.2-4.6,1.1-6.3,2.9c-1.9,2-3.2,4.4-4.5,6.8c-0.2,0.4-0.5,0.9-0.7,1.3
				c-0.1,0-0.2-0.1-0.2-0.1c0.1-0.5,0.1-1,0.2-1.5c0.4-2.2,0.8-4.5,0.9-6.8c0.1-3.7-1.3-6.5-4.3-8.6c-1.9-1.3-3.9-2.4-5.8-3.6
				c-0.4-0.2-0.8-0.5-1.2-0.8l0,0c1,0.1,2.1,0.3,3.1,0.4c2.2,0.4,4.4,0.7,6.7,0.6c2.4-0.2,4.6-1,6.2-2.9c1-1.2,2-2.5,2.8-3.8
				c0.7-1.1,1.3-2.2,1.9-3.4c0.2-0.3,0.4-0.6,0.6-0.9c0.1,0,0.2,0.1,0.2,0.1c-0.1,0.5-0.1,1-0.2,1.5c-0.4,2.2-0.8,4.5-0.9,6.8
				c-0.1,3.7,1.3,6.5,4.3,8.6c1.9,1.3,3.9,2.4,5.8,3.6C431.7,225.5,432.1,225.8,432.5,226L432.5,226z"/>
			<path style="clip-path:url(#SVGID_00000144305636486381721140000006060621652173522576_);fill:#A9ABAD;" d="M429.3,227.6
				C429.3,227.6,429.3,227.6,429.3,227.6C429.3,227.6,429.3,227.6,429.3,227.6C429.3,227.6,429.3,227.6,429.3,227.6L429.3,227.6z"/>
			<path style="clip-path:url(#SVGID_00000144305636486381721140000006060621652173522576_);fill:#A9ABAD;" d="M413.8,222.1
				C413.8,222.1,413.8,222.1,413.8,222.1C413.8,222.1,413.8,222.1,413.8,222.1C413.8,222.1,413.8,222.1,413.8,222.1L413.8,222.1z"/>
			<polygon style="clip-path:url(#SVGID_00000144305636486381721140000006060621652173522576_);fill:#A9ABAD;" points="424.3,217.1 
				424.3,217.1 424.3,217.1 			"/>
			<path style="clip-path:url(#SVGID_00000144305636486381721140000006060621652173522576_);fill:#FFFFFF;" d="M412.6,260.9
				c0,5.1-4.2,9.3-9.3,9.3s-9.3-4.2-9.3-9.3c0-5.1,4.2-9.3,9.3-9.3S412.6,255.8,412.6,260.9"/>
		</g>
		<g style="clip-path:url(#SVGID_00000040538539553982210160000003974469690268985985_);">
			<text transform="matrix(1 0 0 1 309.2617 171.8074)" class="st7 st8 st9">S</text>
		</g>
		<g style="clip-path:url(#SVGID_00000040538539553982210160000003974469690268985985_);">
			<text transform="matrix(1 0 0 1 327.873 171.8074)" class="st7 st8 st9">A</text>
		</g>
		<g style="clip-path:url(#SVGID_00000040538539553982210160000003974469690268985985_);">
			<text transform="matrix(1 0 0 1 354.584 171.8074)" class="st7 st8 st9">NTHOM</text>
		</g>
		<g style="clip-path:url(#SVGID_00000040538539553982210160000003974469690268985985_);">
			<text transform="matrix(1 0 0 1 309.3018 188.4031)" class="st7 st10 st11">S</text>
		</g>
		<g style="clip-path:url(#SVGID_00000040538539553982210160000003974469690268985985_);">
			<text transform="matrix(1 0 0 1 319.3428 188.4031)"><tspan x="0" y="0" class="st7 st10 st11 st12">C</tspan><tspan x="13.8" y="0" class="st7 st10 st11">H</tspan></text>
		</g>
		<g style="clip-path:url(#SVGID_00000040538539553982210160000003974469690268985985_);">
			<text transform="matrix(1 0 0 1 348.623 188.4031)" class="st7 st10 st11">O</text>
		</g>
		<g style="clip-path:url(#SVGID_00000040538539553982210160000003974469690268985985_);">
			<text transform="matrix(1 0 0 1 363.5742 188.4031)" class="st7 st10 st11">O</text>
		</g>
		<g style="clip-path:url(#SVGID_00000040538539553982210160000003974469690268985985_);">
			<text transform="matrix(1 0 0 1 378.29 188.4031)" class="st7 st10 st11">L</text>
		</g>
	</g>
</g>
</svg>
